<svg width="16" height="19" viewBox="0 0 16 19" fill="none" xmlns="http://www.w3.org/2000/svg">
<path fill-rule="evenodd" clip-rule="evenodd" d="M8.19571 0.663905L15.7337 4.41242C15.9181 4.49436 16 4.67871 16 4.86306C15.7952 8.22239 14.9348 10.9262 13.5829 13.1385C12.231 15.3507 10.408 17.0304 8.23668 18.3209C8.07281 18.4233 7.88846 18.4028 7.74507 18.3209C5.59428 17.0304 3.75075 15.3507 2.39883 13.1385C1.06739 10.9058 0.20707 8.2019 0.00223351 4.84258C-0.0182502 4.63774 0.104652 4.47387 0.268522 4.39194L7.78604 0.663905C7.90894 0.58197 8.07281 0.602453 8.19571 0.663905ZM8.74877 11.9504H7.21249C7.15104 11.9504 7.11008 11.9299 7.04862 11.9299C6.80282 11.848 6.67992 11.5817 6.76185 11.3359L7.25346 9.94302C7.00766 9.82012 6.78234 9.61528 6.63895 9.38996C6.47508 9.14416 6.37266 8.8369 6.37266 8.52964C6.37266 8.079 6.55702 7.68981 6.84379 7.40304C7.13056 7.11627 7.51975 6.93192 7.97039 6.93192C8.40055 6.93192 8.81022 7.11627 9.09699 7.40304C9.38377 7.68981 9.56812 8.079 9.56812 8.52964C9.56812 8.8369 9.4657 9.14416 9.32232 9.38996C9.17893 9.61528 8.95361 9.82012 8.7078 9.94302L9.17893 11.3154C9.19941 11.3769 9.2199 11.4383 9.2199 11.4998C9.2199 11.7456 9.01506 11.9504 8.74877 11.9504Z" fill="#F1FAEE"/>
</svg>
