<svg width="16" height="17" viewBox="0 0 16 17" fill="none" xmlns="http://www.w3.org/2000/svg">
<path d="M13.3341 6.86349L14.7334 8.26283L9.72744 13.2658L7.85299 13.7403L8.32977 11.8685L13.3341 6.86349ZM4.79076 1.39938L3.7749 2.30962L0.806955 4.96804H4.79076V1.39938ZM10.1059 14.201L7.28425 14.915C7.24421 14.9254 7.203 14.9305 7.16165 14.9304C7.08551 14.9304 7.01037 14.913 6.94198 14.8796C6.87358 14.8461 6.81373 14.7975 6.76699 14.7374C6.72026 14.6773 6.68787 14.6073 6.67231 14.5327C6.65675 14.4582 6.65843 14.3811 6.67721 14.3073L7.39487 11.4887C7.41698 11.4016 7.46222 11.3222 7.52581 11.2588L11.8904 6.89414V1.11351C11.8904 1.02515 11.8553 0.940402 11.7928 0.87792C11.7304 0.815437 11.6456 0.780334 11.5573 0.780334H5.79329V5.46781C5.79329 5.60035 5.74063 5.72747 5.64691 5.82119C5.55319 5.91492 5.42607 5.96757 5.29352 5.96757H0V16.2018C0 16.2901 0.0351026 16.3749 0.0975854 16.4374C0.160068 16.4999 0.244813 16.535 0.333177 16.535H11.5559C11.6443 16.535 11.729 16.4999 11.7915 16.4374C11.854 16.3749 11.8891 16.2901 11.8891 16.2018V12.5175L10.3368 14.0698C10.2731 14.1336 10.1933 14.1789 10.1059 14.201V14.201ZM15.8333 6.35073L15.2445 5.76167C15.1371 5.65465 14.9917 5.59456 14.8401 5.59456C14.6884 5.59456 14.543 5.65465 14.4356 5.76167L14.0408 6.15682L15.4401 7.55616L15.8336 7.15835C15.9402 7.05099 16.0001 6.90579 16 6.75447C15.9999 6.60314 15.94 6.45799 15.8333 6.35073V6.35073Z" fill="#F1FAEE"/>
</svg>
