<svg width="17" height="17" viewBox="0 0 17 17" fill="none" xmlns="http://www.w3.org/2000/svg">
<path d="M14.6913 1.08263C15.0131 0.760786 15.535 0.760786 15.8568 1.08263C16.1786 1.40448 16.1786 1.92629 15.8568 2.24814L8.43956 9.66539C8.11771 9.98723 7.59589 9.98723 7.27405 9.66539C6.9522 9.34354 6.9522 8.82172 7.27405 8.49988L14.6913 1.08263Z" fill="#457B9D"/>
<path d="M14.4499 2.48959H11.1534C10.6982 2.48959 10.3292 2.12061 10.3292 1.66545C10.3292 1.21029 10.6982 0.841309 11.1534 0.841309H15.2741C15.7292 0.841309 16.0982 1.21029 16.0982 1.66545V5.78614C16.0982 6.2413 15.7292 6.61028 15.2741 6.61028C14.8189 6.61028 14.4499 6.2413 14.4499 5.78614V2.48959Z" fill="#457B9D"/>
<path d="M12.8017 9.49493C12.8017 9.03977 13.1706 8.67079 13.6258 8.67079C14.081 8.67079 14.4499 9.03977 14.4499 9.49493V14.1307C14.4499 15.4393 13.3891 16.5001 12.0805 16.5001H2.80897C1.50039 16.5001 0.439575 15.4393 0.439575 14.1307L0.439577 4.85914C0.439577 3.55056 1.50039 2.48975 2.80897 2.48975C6.13185 2.48975 6.13185 2.48975 7.83107 2.48975C8.28623 2.48975 8.65521 2.85873 8.65521 3.31389C8.65521 3.76905 8.28623 4.13803 7.83107 4.13803C6.13185 4.13803 6.13185 4.13803 2.80897 4.13802C2.41071 4.13802 2.08785 4.46088 2.08785 4.85914L2.08785 14.1307C2.08785 14.529 2.41071 14.8518 2.80897 14.8518H12.0805C12.4788 14.8518 12.8017 14.529 12.8017 14.1307V9.49493Z" fill="#457B9D"/>
</svg>
