<svg width="19" height="17" viewBox="0 0 19 17" fill="none" xmlns="http://www.w3.org/2000/svg">
<path d="M18.4396 14.1692C18.4397 14.2465 18.4245 14.3231 18.395 14.3945C18.3654 14.466 18.3221 14.5309 18.2674 14.5855C18.2128 14.6402 18.1478 14.6836 18.0764 14.7131C18.0049 14.7426 17.9284 14.7578 17.8511 14.7577H11.4718C11.3424 15.2565 11.051 15.6982 10.6434 16.0136C10.2358 16.3289 9.73511 16.5 9.21978 16.5C8.70446 16.5 8.20371 16.3289 7.79613 16.0136C7.38855 15.6982 7.0972 15.2565 6.9678 14.7577H0.588497C0.432418 14.7577 0.282731 14.6957 0.172367 14.5853C0.0620021 14.4749 0 14.3253 0 14.1692C0 14.0131 0.0620021 13.8634 0.172367 13.7531C0.282731 13.6427 0.432418 13.5807 0.588497 13.5807H6.9678C7.0972 13.0819 7.38855 12.6401 7.79613 12.3248C8.20371 12.0095 8.70446 11.8384 9.21978 11.8384C9.73511 11.8384 10.2358 12.0095 10.6434 12.3248C11.051 12.6401 11.3424 13.0819 11.4718 13.5807H17.8511C18.007 13.5811 18.1564 13.6433 18.2667 13.7536C18.377 13.8638 18.4391 14.0132 18.4396 14.1692ZM0.588497 3.41931H1.8675C1.9969 3.91813 2.28825 4.35986 2.69583 4.6752C3.10341 4.99054 3.60415 5.16163 4.11948 5.16163C4.6348 5.16163 5.13554 4.99054 5.54312 4.6752C5.9507 4.35986 6.24205 3.91813 6.37146 3.41931H17.8511C18.0071 3.41931 18.1568 3.35731 18.2672 3.24695C18.3776 3.13658 18.4396 2.98689 18.4396 2.83081C18.4396 2.67474 18.3776 2.52505 18.2672 2.41469C18.1568 2.30432 18.0071 2.24232 17.8511 2.24232H6.37146C6.24205 1.7435 5.9507 1.30177 5.54312 0.986431C5.13554 0.671093 4.6348 0.5 4.11948 0.5C3.60415 0.5 3.10341 0.671093 2.69583 0.986431C2.28825 1.30177 1.9969 1.7435 1.8675 2.24232H0.588497C0.432418 2.24232 0.282731 2.30432 0.172367 2.41469C0.0620021 2.52505 0 2.67474 0 2.83081C0 2.98689 0.0620021 3.13658 0.172367 3.24695C0.282731 3.35731 0.432418 3.41931 0.588497 3.41931ZM17.8511 7.9115H16.5721C16.4427 7.41269 16.1513 6.97095 15.7437 6.65562C15.3362 6.34028 14.8354 6.16918 14.3201 6.16918C13.8048 6.16918 13.304 6.34028 12.8964 6.65562C12.4889 6.97095 12.1975 7.41269 12.0681 7.9115H0.588497C0.432418 7.9115 0.282731 7.97351 0.172367 8.08387C0.0620021 8.19423 0 8.34392 0 8.5C0 8.65608 0.0620021 8.80577 0.172367 8.91613C0.282731 9.02649 0.432418 9.0885 0.588497 9.0885H12.0681C12.1975 9.58731 12.4889 10.029 12.8964 10.3444C13.304 10.6597 13.8048 10.8308 14.3201 10.8308C14.8354 10.8308 15.3362 10.6597 15.7437 10.3444C16.1513 10.029 16.4427 9.58731 16.5721 9.0885H17.8511C18.0071 9.0885 18.1568 9.02649 18.2672 8.91613C18.3776 8.80577 18.4396 8.65608 18.4396 8.5C18.4396 8.34392 18.3776 8.19423 18.2672 8.08387C18.1568 7.97351 18.0071 7.9115 17.8511 7.9115Z" fill="#457B9D"/>
</svg>
