<svg width="16" height="11" viewBox="0 0 16 11" fill="none" xmlns="http://www.w3.org/2000/svg">
<path fill-rule="evenodd" clip-rule="evenodd" d="M4.08323 0.0710449C2.89658 0.0710449 2.16086 1.76164 1.66247 2.69028L1.04541 2.28549C0.736879 2.095 0.309686 2.19024 0.119823 2.49979C-0.117508 2.7379 0.0248899 3.26175 0.309686 3.42842L0.950477 3.85703C0.689414 4.14276 0.238487 4.73804 0.238487 6.07147C0.214754 7.23822 0.214754 8.40497 0.214754 9.57171H15.7836C15.7836 8.40497 15.7836 7.23822 15.7599 6.07147C15.7599 4.73804 15.3089 4.14276 15.0479 3.85703L15.6887 3.42842C15.9972 3.23793 16.0921 2.80933 15.9023 2.49979C15.6175 2.23786 15.3564 2.04737 14.9529 2.28549L14.3359 2.69028C13.8375 1.76164 13.1018 0.0710449 11.9151 0.0710449H4.08323ZM0.214754 9.85745V10.4527C0.214754 10.7147 0.42835 10.929 0.689414 10.929H2.84911C3.13391 10.929 3.34751 10.7147 3.34751 10.4527C3.34751 10.2622 3.34751 10.0717 3.34751 9.88126H12.6508C12.6508 10.0717 12.6508 10.2622 12.6508 10.4527C12.6508 10.7147 12.8644 10.929 13.1492 10.929H15.3089C15.57 10.929 15.7836 10.7147 15.7836 10.4527V9.85745H0.214754ZM6.31413 8.78594C6.19546 8.78594 6.0768 8.6907 6.0768 8.54783V7.76206C6.0768 7.64301 6.19546 7.52395 6.31413 7.52395H9.68421C9.80288 7.52395 9.92154 7.64301 9.92154 7.76206V8.54783C9.92154 8.6907 9.80288 8.78594 9.68421 8.78594H6.31413ZM14.7631 6.33339C13.79 6.52388 12.817 6.66675 11.8439 6.88105C11.6303 7.0001 11.4405 7.19059 11.3218 7.45252C11.2743 7.57157 11.2743 7.71444 11.2981 7.88112C12.2236 7.73825 13.1492 7.59538 14.0748 7.42871C14.3833 7.30965 14.6207 7.09535 14.7868 6.7858C14.8105 6.5715 14.8105 6.42864 14.7631 6.33339ZM1.23527 6.33339C2.20832 6.52388 3.18138 6.66675 4.15443 6.88105C4.36803 7.0001 4.55789 7.19059 4.70029 7.45252C4.72402 7.57157 4.72402 7.71444 4.70029 7.88112C3.7747 7.73825 2.84911 7.59538 1.92353 7.42871C1.615 7.30965 1.37767 7.09535 1.21154 6.7858C1.18781 6.5715 1.18781 6.42864 1.23527 6.33339Z" fill="#F1FAEE"/>
</svg>
