<svg width="910" height="630" viewBox="0 0 910 630" fill="none" xmlns="http://www.w3.org/2000/svg">
<path d="M201.03 316.264C194.792 322.581 187.975 323.219 179.941 319.449C174.169 316.745 168.089 314.807 161.558 318.998C158.799 320.763 154.831 319.531 151.344 318.375C148.608 317.466 145.918 312.742 142.325 317.759C141.303 319.193 140.386 316.677 139.619 315.866C137.778 313.898 136.11 311.765 134.426 309.655C127.662 301.168 127.136 301.047 120.62 309.572C118.493 312.351 116.862 312.659 114.014 310.894C111.165 309.129 107.64 306.05 104.589 309.602C99.4331 315.611 94.6532 311.983 88.8736 310.969C72.9103 308.168 64.7558 297.097 57.1425 284.749C55.3325 281.768 54.5289 278.285 54.8502 274.812C55.1809 267.775 58.6757 265.987 64.9437 267.805C67.5366 268.556 70.1671 269.149 72.7525 269.923C79.7571 272.011 85.0557 270.163 89.8281 264.327C99.3054 252.746 107.768 240.496 113.239 226.646C116.682 217.949 121.559 214.479 129.654 219.045C138.116 223.822 145.73 220.923 153.651 218.565C160.656 216.477 167.179 214.929 168.855 225.257C169.366 228.359 172.328 227.961 173.951 226.496C178.551 222.328 181.617 225.197 185.037 228.156C189.719 232.212 194.589 236.042 199.384 239.97C203.841 245.768 210.552 249.314 214.739 255.42C216.58 258.109 218.992 258.191 221.721 256.171C223.867 254.535 226.229 253.203 228.74 252.213C237.526 248.946 241.239 251.311 242.058 260.347C242.178 261.691 242.404 263.021 242.592 264.358C244.358 277.186 243.343 278.207 230.394 277.877C224.734 277.727 220.766 279.296 219.872 286.199C218.835 294.46 218.549 302.88 215.483 310.804C213.979 314.747 212.536 317.924 207.576 314.439C204.946 312.591 202.458 312.967 201.03 316.264Z" fill="#1D3557"/>
<path d="M199.151 359.496C196.708 362.891 193.394 365.084 189.501 362.77C181.534 358.039 178.227 362.147 175.973 369.057C175.586 370.035 175.134 370.986 174.62 371.903C172.824 372.347 172.004 371.077 171.411 370.048C167.518 363.191 162.354 364.122 157.281 368.096C152.208 372.069 147.661 373.556 143.001 367.51C140.747 364.603 137.741 365.377 134.99 367.044C129.609 370.274 122.822 374.014 121.401 379.226C119.568 385.986 120.026 393.264 115.389 399.348C115.081 399.753 117.734 402.622 119.222 404.132C121.702 406.641 124.227 409.059 125.505 412.461C126.176 414.104 126.352 415.907 126.012 417.648C125.671 419.39 124.829 420.993 123.588 422.263C121.086 424.892 117.989 423.014 115.411 421.587C99.6285 412.694 84.5972 402.9 71.7679 389.832C66.9804 384.957 60.2539 382.201 56.9245 375.486C54.3015 370.229 48.2965 366.383 51.7913 359.045C52.6781 357.19 50.3934 355.177 49.3412 353.292C46.3349 347.892 40.9762 342.341 41.0739 336.903C41.2543 322.25 30.4843 317.691 21.0898 311.683C11.8981 305.779 10.1094 297.893 16.7532 289.451C23.3971 281.009 24.9754 280.536 35.3094 285.575C37.5641 286.694 38.7441 286.371 39.8564 284.366C41.1641 282.015 42.5245 279.687 43.8547 277.351C49.1608 277.907 51.2501 282.24 53.8355 285.928C56.9245 290.322 59.9383 294.806 62.8543 299.267C70.7909 311.412 84.1613 313.936 96.1037 316.82C102.567 318.397 110.699 310.21 118.899 315.761C119.237 315.994 121.371 314.492 121.905 313.425C125.768 305.246 129.654 307.139 132.968 313.553C139.649 326.501 152.058 323.835 161.813 321.942C169.622 320.44 175.913 321.191 182.474 323.88C191.102 327.447 197.603 325.525 202.541 317.744C210.996 318.119 215.024 322.385 213.423 330.024C212.281 335.476 213.972 340.02 216.317 344.625C217.88 347.696 220.465 351.024 218.293 354.351C215.866 358.069 211.484 356.784 207.862 356.386C204.239 355.988 200.789 354.862 199.151 359.496Z" fill="#1D3557"/>
<path d="M189.659 478.458C181.572 483.558 182.474 492.939 178.986 501.261C175.168 493.232 168.713 492.924 161.28 492.646C153.313 492.338 148.811 483.926 141.453 481.214C138.996 480.306 137.117 477.835 134.689 476.918C128.962 474.785 126.783 470.91 127.542 465.029C127.949 462.619 127.6 460.142 126.542 457.939C122.784 450.563 124.325 443.789 129.27 437.6C133.028 432.943 132.945 428.805 130.999 422.819C128.361 414.707 128.113 405.889 120.342 400.286C120.152 400.092 120.021 399.847 119.966 399.58C119.44 398.078 120.62 397.132 121.259 395.998C126.181 387.233 123.566 374.052 136.718 370.033C139.725 369.124 141.363 370.371 143.039 372.181C147.406 376.883 151.855 376.53 156.53 372.662C161.385 368.651 165.834 366.511 170.201 373.759C172.966 378.355 176.762 377.769 178.115 372.549C180.114 364.821 183.992 363.356 191.012 366.593C195.852 368.847 199.331 366.593 200.925 361.539C210.763 357.535 218.278 359.12 224.561 366.428C232.701 375.907 237.338 385.956 237.188 399.363C237.098 409.179 236.925 417.584 230.724 425.462C229.221 427.355 228.755 430.72 229.033 433.221C230.206 443.954 225.065 452.546 220.127 461.221C215.189 469.896 208.899 476.445 197.633 475.236C196.138 475.04 194.619 475.233 193.221 475.798C191.824 476.363 190.597 477.279 189.659 478.458Z" fill="#1D3557"/>
<path d="M201.24 238.213C195.619 233.173 189.756 228.389 184.465 223.033C180.249 218.775 174.59 224.01 172.403 221.877C169.472 219.03 168.111 214.546 163.188 213.915C159.942 213.502 156.605 213.547 153.629 215.012C144.482 219.518 135.456 217.423 126.399 214.854C122.446 213.735 119.289 212.173 123.784 207.974C131.826 200.464 135.29 190.467 138.815 180.545C142.385 170.428 147.36 161.378 155.748 154.378C161.801 149.302 166.024 142.385 167.773 134.685C169.133 129.134 171.125 123.847 175.634 119.904C178.318 117.553 179.039 114.488 178.385 111.064C177.431 106.092 179.452 102.171 182.496 98.4606C190.658 88.5239 199.256 90.2664 202.969 100.278C206.727 110.5 214.641 116.591 225.027 120.144C233.257 122.961 233.235 124.245 227.568 131.027C227.395 131.237 227.215 131.44 227.027 131.628C220.834 137.757 228.394 143.179 227.838 148.797C227.26 154.671 222.878 160.439 231.198 164.683C234.903 166.575 238.067 170.008 240.72 173.35C245.673 179.584 248.025 186.591 243.832 194.312C240.435 200.554 240.758 206.157 246.312 211.031C247.605 215.342 250.626 219.128 249.852 224.07C249.431 226.781 249.296 230.679 247.221 231.385C239.908 233.894 237.21 238.513 238.037 245.896C238.217 247.511 236.534 247.871 235.136 247.954C233.738 248.037 232.025 247.541 231.16 248.209C218.677 257.973 212.146 247.353 204.457 240.601C203.457 239.722 202.315 239.001 201.24 238.213Z" fill="#1D3557"/>
<path d="M751.868 464.751C763.525 458.93 763.969 457.736 756.378 446.958C754.033 443.638 754.048 440.386 754.612 436.984C755.822 429.676 754.123 423.374 750.14 417.088C746.555 411.432 744.398 404.891 741.264 398.92C738.814 394.263 740.633 392.212 744.916 390.44C754.364 386.549 761.954 387.165 766.524 395.953C774.423 411.139 787.012 414.684 802.344 415.12C811.49 415.383 820.562 417.005 829.798 416.975C838.246 416.975 844.123 413.671 848.099 406.415C848.782 404.963 849.815 403.704 851.105 402.75C859.613 397.635 882.025 400.932 889.435 408.143C890.893 409.562 891.915 410.786 891.186 413.017C890.457 415.248 890.51 417.629 892.111 419.198C901.581 428.459 895.012 439.335 895.117 449.422C895.252 462.993 886.489 470.587 874.396 473.043C863.972 475.161 858.328 482.266 851.91 489.108C849.948 491.204 848.362 494.508 844.912 493.863C840.749 493.111 842.485 489.078 841.733 486.449C841.29 484.895 840.907 483.317 840.576 481.733C839.997 478.916 838.772 476.34 835.803 475.814C832.835 475.289 830.828 477.497 829.099 479.615C828.258 480.651 827.281 481.815 827.025 483.062C824.77 493.81 817.961 495.545 807.95 494.696C798.586 493.893 789.101 493.848 779.684 493.021C773.138 492.451 768.08 490.49 767.659 482.889C767.448 479.217 765.449 477.166 762.202 475.596C757.564 473.342 753.895 469.491 751.868 464.751Z" fill="#1D3557"/>
<path d="M277.352 288.7C272.196 294.288 274.202 298.464 277.908 302.294C285.423 310.068 292.939 317.819 300.56 325.472C308.587 333.524 313.171 342.108 307.422 353.683C304.543 359.473 305.686 364.949 310.789 369.755C315.298 373.999 318.77 379.249 322.897 383.891C329.135 390.928 325.73 402.382 316.41 403.726C309.902 404.673 303.686 405.89 297.929 409.082C296.216 410.028 294.172 410.892 292.563 409.66C285.897 404.575 279.494 407.482 273.579 410.599C266.371 414.407 258.187 412.537 250.791 415.623C247.078 417.171 239.24 407.865 240.111 401.473C242.411 384.657 235.113 372.226 224.163 360.915C223.363 360.187 222.758 359.27 222.402 358.248C222.046 357.226 221.952 356.132 222.126 355.064C222.878 350.288 221.285 346.007 218.857 341.988C216.79 338.578 217.249 334.778 216.805 331.045C215.047 316.091 222.698 302.625 223.179 288.099C223.359 282.624 226.095 281.272 230.965 281.595C237.534 282.015 243.621 282.218 246.936 274.084C248.642 269.915 254.211 272.582 257.976 272.537C262.2 272.484 264.868 275.195 265.89 279.364C267.235 284.862 268.648 290.247 277.352 288.7Z" fill="#1D3557"/>
<path d="M372.921 238.288C366.157 227.119 372.598 208.087 384.435 203.919C386.945 203.04 387.674 205.256 389.162 206.112C397.354 210.799 402.57 209.417 407.2 201.282C410.259 195.89 413.062 190.294 417.722 186.021C419.3 184.571 421.141 182.093 422.742 182.19C433.527 182.821 438.187 174.484 444.132 168.153C450.077 161.821 458.028 158.434 465.927 156.331C478.599 152.951 489.406 164.593 486.28 177.166C485.838 179.282 485.136 181.335 484.19 183.279C480.094 190.873 481.244 197.467 486.618 204.189C493.54 212.856 492.999 216.311 485.295 224.378C479.831 230.101 473.39 234.555 466.686 238.648C462.403 241.255 459.922 245.002 459.532 249.779C459.103 255.194 458.833 260.294 455.112 264.936C452.572 268.12 455.646 270.899 458.269 272.957C461.876 275.789 465.619 278.455 469.197 281.332C472.398 283.9 472.496 286.379 469.122 289.218C457.75 298.787 440.156 294.994 434.249 281.489C431.588 275.391 427.207 270.922 420.525 273.047C413.844 275.173 408.838 274.467 404.329 269.134C403.577 268.271 401.916 268.195 400.676 267.76C398.564 267.166 395.859 266.551 394.566 268.203C389.177 275.09 385.404 270.088 381.699 266.603C378.806 263.884 376.498 260.535 373.898 257.493C371.095 254.203 369.659 251.101 373.184 247.12C375.484 244.492 375.251 241.179 372.921 238.288Z" fill="#1D3557"/>
<path d="M261.215 611.36C257.202 604.848 262.373 601.431 266.085 597.841C269.31 594.716 273.233 592.659 273.128 586.995C273.067 583.398 276.743 581.13 279.892 579.485C287.332 575.647 290.03 569.871 286.611 562.21C284.138 556.667 285.401 552.957 290.436 550.095C295.269 547.346 297.283 543.644 297.065 537.65C296.924 534.386 297.7 531.147 299.304 528.3C300.908 525.453 303.278 523.111 306.144 521.54C312.254 518.265 315.501 513.548 317.816 507.592C333.478 486.329 342.279 492.766 354.169 509.094C364.541 523.305 373.92 538.386 381.098 554.159C389.478 572.597 389.778 592.891 384.48 612.742C382.834 618.909 379.707 620.839 373.259 616.685C363.301 610.279 351.749 608.131 339.995 608.273C331.898 608.422 323.834 607.221 316.132 604.721C307.189 601.799 298.982 604.586 290.797 608.341C281.372 612.63 271.609 615.604 261.215 611.36Z" fill="#1D3557"/>
<path d="M556.762 229.065C560.076 221.036 566.532 220.014 574.318 220.307C587.441 220.803 600.698 220.9 612.077 212.496C613.264 211.903 614.723 211.572 615.602 210.678C626.875 199.217 639.652 196.829 654.871 202.184C660.756 204.249 664.063 206.81 666.964 212.278C675.727 228.802 679.801 247.098 687.452 264.012C688.617 266.581 688.121 269.878 688.624 272.8C689.263 276.502 691.788 280.934 690.526 283.683C688.526 288.046 683.987 283.157 680.462 283.953C673.766 285.455 667.753 288.55 661.928 291.922C652.436 297.42 642.636 299.861 631.655 297.472C626.094 296.256 621.133 299.042 616.316 301.573C603.351 308.333 597.527 307.146 590.304 294.581C585.509 286.221 577.843 278.808 580.045 267.444C580.722 263.944 577.332 261.804 573.867 261.045C565.021 259.107 561.609 253.046 563.218 244.837C564.623 237.679 558.528 234.442 556.762 229.065Z" fill="#1D3557"/>
<path d="M248.003 209.101C245.44 203.979 246.718 189.265 250.04 185.69C251.543 184.098 252.986 185.187 254.421 185.743C259.186 187.613 263.869 189.716 268.701 191.361C276.217 193.922 283.394 194.741 289.234 187.403C291.662 184.346 295.419 184.744 299.004 185.502C303.258 186.404 307.52 186.652 311.728 184.924C317.448 182.573 320.319 178.615 319.327 172.306C318.831 169.121 318.207 165.952 317.711 162.767C316.877 157.405 318.68 154.002 323.836 151.193C333.306 146.041 342.204 139.83 348.856 131.035C350.359 129.007 351.967 126.776 354.643 129.157C356.995 131.245 362.542 130.216 361.61 135.443C360.144 143.705 364.188 149.331 369.674 154.588C372.004 156.841 374.898 159.553 374.514 162.722C373.297 172.742 377.521 180.831 381.812 189.31C384.893 195.386 384.615 201.635 377.528 206.014C373.432 208.56 370.508 212.594 368.254 217.047C363.053 227.202 363.519 231.213 371.26 240.331C371.485 248.698 365.743 250.523 359.145 251.274C343.715 253.039 330.044 247.601 316.689 240.849C311.946 238.319 306.974 236.247 301.838 234.66C295.179 232.752 289.692 234.382 286.31 239.918C282.553 246.076 278.043 245.971 272.669 243.282C266.657 240.278 260.907 236.771 254.902 233.744C252.114 232.339 252.076 230.657 252.648 227.9C254.016 220.983 253.204 214.441 248.003 209.101Z" fill="#1D3557"/>
<path d="M827.416 512.512C824.553 520.24 817.353 524.266 812.325 530.154C810.416 532.408 808.439 534.571 806.493 536.771C800.247 542.878 797.654 550.013 799.826 558.748C801.083 563.714 802.047 568.75 802.712 573.829C803.644 581.25 805.365 588.926 796.97 593.95C793.964 595.746 793.393 599.208 794.204 602.663C795.061 606.336 795.978 610.008 796.655 613.719C798.481 623.678 791.98 629.198 782.232 626.051C775.821 623.986 770.958 619.652 766.592 614.845C760.406 608.086 754.101 601.326 748.622 594.003C744.781 588.858 740.655 587.664 735.454 590.571C728.916 594.243 723.535 594.431 718.529 587.889C715.711 584.194 711.555 583.931 706.782 584.802C695.148 586.913 684.385 580.784 680.319 570.802C679.109 567.843 678.884 565.913 682.529 564.666C691.187 561.707 699.59 558.177 709.187 559.221C714.837 559.728 720.526 559.584 726.143 558.793C731.99 558.042 736.266 554.955 736.431 548.323C736.499 545.709 737.1 543.599 739.686 542.367C750.253 537.312 751.711 527.924 751.11 517.732C750.756 511.768 750.185 505.076 746.202 500.885C734.673 488.74 745.45 478.939 747.615 467.275C753.056 471.841 755.995 477.347 761.97 479.292C764.382 480.088 764.397 482.754 764.555 484.85C765.201 493.066 770.718 495.267 777.73 496.116C788.444 497.49 799.253 497.977 810.047 497.573C813.565 497.438 816.338 497.483 815.97 502.56C815.128 514.472 815.331 514.472 827.416 512.512Z" fill="#1D3557"/>
<path d="M542.279 288.399C538.664 285.598 535.154 282.654 531.426 280.01C522.851 273.934 514.373 276.405 511.134 286.401C509.789 290.6 507.775 291.111 504.753 289.338C496.719 284.621 488.828 285.703 480.748 289.053C477.434 290.427 474.315 292.192 474.984 285.418C475.547 279.664 469.866 276.878 465.672 274.151C460.411 270.712 455.503 267.692 461.546 260.94C461.736 260.736 461.841 260.468 461.839 260.189C459.945 245.453 471.046 239.835 480.666 233.038C483.72 230.807 486.515 228.242 489 225.392C496.291 217.31 496.982 211.362 490.105 203.145C484.656 196.618 483.897 190.79 487.775 183.317C491.09 176.955 491.436 169.745 489.376 162.813C487.633 156.969 490.744 153.544 494.727 150.668C499.282 147.378 502.183 150.923 504.934 153.957C509.608 159.102 514.967 162.97 522.152 163.564C524.211 163.721 526.293 164.187 526.248 166.5C526.023 176.797 536.447 184.03 532.794 196.19C530.344 204.347 537.304 212.909 542.565 220.134C544.586 222.891 547.923 222.312 550.832 222.23C554.252 222.125 556.093 223.161 554.996 226.932C553.432 229.065 552.388 231.753 554.635 233.511C559.896 237.627 559.663 242.944 559.633 248.78C559.633 256.208 563.248 261.947 570.831 263.719C578.272 265.462 577.084 270.757 575.341 275.03C572.222 282.774 550.419 291.081 542.279 288.399Z" fill="#1D3557"/>
<path d="M395.814 270.794C396.347 270.749 396.994 270.479 397.407 270.681C406.035 274.978 414.152 280.693 424.877 276.562C427.267 275.639 430.002 279.416 430.709 282.398C433.385 293.732 440.893 297.945 451.941 297.945C454.368 297.945 458.509 296.255 459.186 300.694C459.719 304.164 457.427 306.62 454.789 308.806C451.475 311.547 446.905 312.419 444.267 316.076C438.593 322.017 434.903 329.423 429.589 335.724C425.921 340.073 429.521 346.75 430.686 352.113C431.648 356.514 430.251 357.648 427.011 360.134C419.33 366.008 411.807 370.732 401.578 368.711C399.895 368.381 397.82 369.23 396.114 370.011C385.592 374.938 374.973 375.524 363.902 371.611C356.078 368.839 348.608 369.508 342.144 375.734C339.807 377.987 336.883 381.397 333.125 378.182C329.789 375.336 329.999 371.325 331.81 367.743C335.125 361.186 334.568 356.416 327.729 352.128C320.89 347.839 323.866 341.613 326.76 336.355C330.059 330.347 336.139 327.493 342.084 324.909C347.601 322.52 351.622 318.863 354.072 313.485C356.041 309.174 358.761 305.058 362.88 303.18C377.874 296.368 385.54 282.331 395.814 270.794Z" fill="#1D3557"/>
<path d="M330.375 385.716C321.777 379.279 316.719 370.266 310.383 362.59C308.361 360.142 309.676 356.364 311.337 353.397C317.147 343.032 313.72 334.41 306.287 326.501C297.802 317.488 288.136 309.549 280.734 299.463C280.102 298.599 278.479 297.42 278.682 297.119C285.799 284.298 267.408 284.419 267.296 274.587C267.25 269.495 260.802 268.639 256.135 269.194C248.085 270.163 245.658 266.746 246.184 259.107C246.582 253.392 246.184 247.496 242.381 242.524C240.998 240.706 241.449 238.46 243.253 237.642C246.259 236.297 249.198 234.262 252.978 236.515C259.186 240.218 265.642 243.53 272.091 246.82C278.945 250.32 284.702 250.155 288.986 242.396C292.248 236.478 298.177 237.139 303.318 239.106C312.284 242.584 320.905 247.09 329.848 250.62C339.333 254.376 349.164 256.629 359.505 254.563C364.383 253.602 368.088 254.916 370.989 259.438C373.575 263.464 376.588 267.7 380.429 270.328C386.517 274.527 385.066 277.892 381.579 282.819C378.392 287.325 374.965 291.231 370.193 293.935C361.174 299.034 353.425 305.381 348.728 314.89C346.902 318.577 343.166 319.696 339.874 321.522C332.073 325.833 324.663 330.459 321.123 339.472C318.447 346.352 319.62 351.812 325.895 355.402C330.329 357.941 331.509 360.254 328.721 364.858C325.565 370.063 325.572 375.569 329.698 380.488C330.901 381.938 331.043 383.305 330.375 385.716Z" fill="#1D3557"/>
<path d="M345.444 478.03C346.263 470.301 344.902 462.595 343.189 454.934C342.114 450.09 343.94 445.884 345.797 441.723C347.826 437.096 349.254 432.335 346.751 427.701C341.911 418.748 343.85 411.177 350.411 404.094C351.802 402.592 353.944 400.579 352.531 398.491C350.892 396.065 348.179 397.342 345.895 398.161C345.383 398.349 344.91 398.612 344.391 398.784C339.191 400.549 333.937 404.485 328.503 400.752C326.158 399.137 335.079 385.438 338.762 381.9C348.781 372.271 359.761 373.098 371.628 376.928C378.039 378.994 384.465 377.679 390.703 375.501C393.251 374.622 395.784 373.646 398.376 372.932C413.055 368.892 416.174 371.385 411.905 385.701C408.32 397.718 412.348 410.418 407.32 422.323C406.133 425.147 409.304 429.886 410.65 433.672C412.649 439.267 410.852 443.526 407.876 448.648C398.106 465.367 386.366 481.275 384.029 501.471C383.586 505.301 384.487 511.1 378.768 512.151C371.854 513.428 363.669 514.149 358.814 508.921C351.073 500.517 340.979 492.27 345.444 478.03Z" fill="#1D3557"/>
<path d="M704.956 303.06C695.764 294.137 694.253 282.699 691.976 271.771C688.737 256.223 682.664 241.668 677.193 226.901C675.134 221.351 672.218 216.131 669.835 210.693C666.077 202.184 668.805 195.852 677.426 192.525C679.44 191.774 681.65 191.18 683.341 189.934C699.695 177.917 714.794 183.925 729.63 193.073C734.568 196.115 739.648 198.841 745.548 197.782C750.538 196.889 752.312 199.285 753.582 203.37C756.543 213.134 759.542 222.973 762.819 232.662C763.668 235.163 763.157 236.478 761.391 238.16C759.79 239.662 758.655 242.471 760.436 243.988C765.998 248.713 762.586 253.121 760.512 257.583C756.002 267.294 752.996 277.268 753.086 288.159C753.146 294.228 749.644 294.919 744.774 292.32C741.114 290.337 737.446 289.023 733.553 292.185C731.501 293.845 728.938 293.041 726.511 292.62C717.146 291.021 709.337 292.988 704.956 303.06Z" fill="#1D3557"/>
<path d="M593.303 345.113C596.617 362.951 607.523 371.4 622.614 375.847C638.908 380.668 655.127 385.733 671.27 391.041C674.863 392.212 681.59 392.257 680.973 396.351C680.162 401.706 679.335 408.293 673.901 412.078C672.578 412.995 671.053 413.618 669.692 414.497C662.928 418.815 660.936 424.441 664.176 431.809C666.455 436.702 669.077 441.428 672.022 445.952C675.539 451.63 675.69 457.007 671.699 462.475C667.862 467.71 664.925 473.549 663.011 479.75C659.321 479.292 657.051 476.828 654.676 474.74C651.797 472.209 648.295 470.587 645.003 471.946C635.579 475.859 627.319 471.158 619.277 468.304C613.685 466.328 613.174 459.291 614.497 453.823C615.361 450.225 615.955 447.506 612.558 445.441C605.794 441.348 604.434 435.091 605.193 427.933C606.004 420.265 603.314 416.502 594.904 416.382C582.691 416.202 582.217 415.263 580.767 402.795C579.715 393.73 574.852 386.091 571.447 377.905C569.892 374.149 568.794 369.815 574.356 369.154C585.81 367.795 589.117 359.849 591.169 350.378C591.469 349.101 592.168 347.899 593.303 345.113Z" fill="#1D3557"/>
<path d="M657.141 103.636C650.896 110.47 644.289 110.853 636.496 105.799C631.686 102.674 626.056 100.984 621.216 106.587C618.909 109.261 616.444 108.217 614.054 106.587C611.266 104.695 608.928 102.126 608.492 98.9188C606.403 83.7096 595.851 74.6367 585.141 65.4886C575.19 56.9865 574.86 49.9489 578.595 37.6238C583.104 22.7977 595.836 16.2032 605.441 6.40175C617.391 -2.26562 621.254 -2.26562 633.038 7.22042C644.44 16.406 655.443 25.9972 659.343 41.0187C660.178 44.2483 662.823 46.3963 665.048 48.7547C671.737 55.8598 675.675 63.994 673.315 73.9757C670.902 84.3255 679.373 89.0798 684.588 95.9746C675.743 100.519 663.778 92.8577 657.141 103.636Z" fill="#1D3557"/>
<path d="M316.117 505.624C312.217 512.031 308.82 510.484 305.212 505.189C302.206 500.787 298.944 496.476 293.503 494.674C293.33 494.471 293.202 494.17 292.977 494.065C281.26 488.387 272.624 480.441 267.686 467.613C262.087 453.057 249.273 443.856 237.015 435.151C232.31 431.816 232.333 429.368 234.309 425.522C235.812 422.661 237.879 420.137 239.608 417.403C240.51 415.984 241.306 414.399 243.276 415.698C254.151 423.036 264.192 415.503 274.383 413.61C280.298 412.506 285.656 408.12 291.759 413.055C292.341 413.405 292.998 413.611 293.675 413.654C294.353 413.697 295.031 413.576 295.652 413.303C303.544 408.045 313.389 409.908 321.611 405.972C323.024 405.296 324.813 404.237 326.061 404.605C332.945 406.656 339.296 404.507 348.014 401.511C339.611 411.275 338.882 420.1 343.715 429.616C345.181 432.5 344.662 436.12 343.121 439.064C338.988 446.943 339.694 454.889 341.107 463.354C342.452 471.481 342.001 479.878 342.31 488.184C342.4 490.648 341.19 491.414 338.762 491.046C327.015 489.341 321.236 496.994 316.117 505.624Z" fill="#1D3557"/>
<path d="M462.327 538.506C471.076 538.829 478.975 536.711 484.874 529.831C488.369 525.753 492.661 526.399 496.787 527.511C506.794 530.18 515.723 535.891 522.34 543.854C526.849 549.194 528.353 554.94 525.346 561.789C522.34 568.639 520.085 575.902 517.342 582.925C516.335 585.523 514.892 588.798 516.636 590.661C525.301 599.966 514.809 612.006 521.393 621.53C522.1 622.544 520.123 623.558 519.026 624.301C511.728 629.251 503.626 631.872 495.291 628.447C480.14 622.228 464.815 617.842 448.235 619.149C435.977 620.118 434.895 609.67 431.513 602.047C429.469 597.443 429.003 592.163 427.402 587.318C426.463 584.487 427.56 583.225 429.852 582.399C432.648 581.4 435.511 580.611 438.322 579.657C447.897 576.405 449.205 574.227 448.228 564.336C447.544 557.373 448.499 550.291 446.582 543.418C445.906 540.962 447.431 540.241 449.588 539.715C453.735 538.591 458.043 538.182 462.327 538.506Z" fill="#1D3557"/>
<path d="M671.669 170.173C669.948 160.304 664.439 157.563 654.766 158.787C646.875 159.786 638.57 158.697 630.603 157.495C624.591 156.586 619.022 153.342 612.566 153.74C610.07 153.897 606.132 153.522 609.116 149.286C616.263 139.124 615.346 128.571 611.371 117.688C610.559 115.435 609.454 113.182 611.055 110.395C616.263 112.371 620.991 113.97 625.59 107.894C628.349 104.244 633.053 107.894 636.631 109.592C647.904 115.067 650.587 114.571 659.012 105.341C667.753 98.6635 678.23 102.291 687.82 100.676C688.699 100.534 690.308 102.614 691.022 103.959C696.23 113.722 706.113 121.121 706.271 133.566C706.271 136.277 708.939 137.096 711.006 137.036C716.628 136.878 719.1 140.175 721.024 144.749C726.285 157.217 733.049 168.138 746.878 173.02C751.388 174.619 753.59 185.72 750.824 190.505C747.48 196.28 742.286 195.379 737.333 193.193C730.276 190.084 724.106 185.502 716.59 182.866C706.865 179.464 698.101 177.864 688.827 183.279C684.852 185.575 680.712 187.574 676.441 189.258C674.668 190.009 672.405 191.834 670.526 189.784C668.911 188.026 669.955 185.675 670.248 183.565C670.85 179.103 676.268 175.168 671.669 170.173Z" fill="#1D3557"/>
<path d="M363.346 515.876C386.569 515.809 385.299 516.996 388.471 496.198C389.688 488.192 392.184 480.516 397.7 474.109C403.397 467.492 407.47 466.599 414.054 472.111C419.819 476.963 425.005 482.514 430.438 487.764C431.821 489.101 433.016 490.565 432.896 492.646C431.784 511.19 439.983 527.864 443.523 545.476C445.079 553.25 444.312 561.076 444.921 568.857C445.169 571.997 443.553 573.987 440.765 575.061C438.255 576.022 435.677 576.826 433.114 577.652C422.284 581.167 422.103 581.55 425.516 592.336C427.597 598.93 427.455 606.275 432.445 611.908C433.82 613.456 433.332 615.484 431.769 617.008C429.747 618.976 427.83 617.842 425.884 616.798C418.195 612.69 410.356 608.927 401.308 611.54C398.241 612.427 395.506 614.387 392.484 615.476C389.463 616.565 387.148 616.385 388.305 611.871C392.469 595.565 391.131 579.237 387.809 563.006C384.698 547.82 374.003 536.403 367.419 522.937C366.375 520.819 365.06 518.828 363.346 515.876Z" fill="#1D3557"/>
<path d="M522.836 382.231C523.105 382.2 523.377 382.215 523.64 382.276C537.755 388.284 551.005 384.409 564.052 378.693C566.682 377.536 568.186 378.31 569.102 380.729C572.432 389.471 577.685 397.425 577.918 407.377C578.129 416.254 581.774 419.747 591.627 419.491C600.646 419.251 602.983 422.826 602.014 430.893C601.262 437.134 602.81 442.752 608.5 446.425C611.07 448.085 612.378 449.872 610.799 453.087C610.138 454.424 609.822 456.579 610.446 457.796C615.023 466.674 609.83 469.28 602.878 473.568C589.124 482.011 574.258 483.505 558.994 484.729C556.348 484.94 554.89 484.046 554.161 481.65C553.305 478.818 552.305 476.017 551.651 473.14C548.51 459.306 541.264 448.085 529.006 441.017C519.131 435.316 513.787 426.867 510.398 416.615C508.962 412.274 507.669 407.88 506.324 403.509C502.446 390.86 509.548 381.772 522.836 382.231Z" fill="#1D3557"/>
<path d="M597.098 495.695C597.512 475.289 607.057 468.574 627.161 474.485C632.805 476.167 638.442 478.113 644.477 475.416C645.591 474.861 646.854 474.677 648.081 474.89C649.307 475.104 650.433 475.704 651.294 476.603C660.703 486.712 672.285 485.353 683.746 482.213C700.424 477.639 716.274 478.255 731.193 487.606C743.218 495.117 753.221 518.993 745.037 533.256C739.656 542.622 725.316 544.26 717.462 534.623C704.437 518.648 687.933 521.487 671.443 523.966C665.566 524.852 660.418 525.723 655.217 522.336C653.676 521.329 651.647 520.203 649.956 520.39C640.419 521.465 632.144 520.06 625.733 511.806C623.914 509.455 620.104 510.814 617.406 512.362C601.337 521.585 597.527 511.821 597.068 498.947C597.061 497.836 597.091 496.747 597.098 495.695Z" fill="#1D3557"/>
<path d="M751.463 434.152C748.892 440.581 750.997 446.981 756.325 452.846C758.58 455.355 758.843 458.412 754.544 459.606C746.442 461.859 743.376 468.101 741.452 475.514C738.551 486.652 737.859 487.336 727.623 481.853C713.524 474.305 699.236 474.77 684.491 478.586C682.927 478.991 681.364 479.449 679.778 479.727C669.828 481.47 668.415 480.418 672.871 471.548C679.56 458.224 678.395 446.763 669.707 434.746C663.319 425.905 665.002 420.941 674.344 415.721C676.125 414.786 677.68 413.475 678.901 411.878C680.123 410.281 680.981 408.437 681.417 406.475C682.995 400.399 685.881 395.652 692.224 393.429C695.013 392.445 697.673 390.53 698.921 387.781C702.859 379.091 708.368 381.945 713.411 385.986C719.258 390.665 725.158 394.578 733.019 394.18C735.274 394.068 736.236 395.397 737.025 397.387C740.745 406.937 745.255 416.159 750.508 424.959C752.011 427.52 751.485 430.239 751.463 434.152Z" fill="#1D3557"/>
<path d="M291.594 496.364C294.051 498.437 296.712 500.322 298.906 502.65C301.86 505.775 305.4 508.839 306.993 512.647C309.398 518.378 301.462 517.679 300.026 521.585C299.019 524.311 296.201 526.534 295.69 529.261C293.961 538.536 291.383 546.821 282.853 552.611C279.268 555.045 282.252 559.506 283.304 563.126C285.228 569.721 283.108 571.989 276.54 569.818C262.613 565.229 249.145 559.912 241.464 545.852C239.209 541.676 235.452 538.258 232.295 534.586C229.852 531.769 230.228 529.816 233.798 528.637C238.39 527.135 243.065 525.798 247.604 524.131C258.517 520.082 260.381 512.865 251.52 505.699C241.915 497.903 231.619 490.911 221.239 484.159C214.693 479.9 209.117 483.693 205.148 488.845C200.729 494.584 197.182 500.998 193.251 507.111C191.748 509.417 190.2 512.039 186.938 510.732C184.195 509.635 183.112 506.976 183.248 504.092C183.669 495.32 185.863 487.11 191.515 480.11C192.793 479.69 194.085 478.864 195.34 478.916C219.33 479.863 225.471 461.687 231.679 444.367C233.843 438.321 234.685 436.586 240.104 441.423C252.587 452.584 264.582 463.602 270.242 480.433C273.203 489.296 283.146 492.691 291.594 496.364Z" fill="#1D3557"/>
<path d="M527.383 514.059C517.492 513.608 506.782 515.403 497.32 522.2C494.412 524.288 490.624 525.07 489.346 520.826C484.386 504.415 475.6 488.763 477.321 470.902C479.207 451.104 480.395 431.035 491.052 413.25C493.54 409.104 493.134 404.432 492.518 399.821C492.277 398.018 490.368 395.247 494.119 395.142C496.659 395.067 500.071 393.189 501.311 397.83C503.197 404.853 505.407 411.8 507.707 418.703C511.119 428.947 516.643 437.434 526.308 443.255C543.594 453.643 549.93 470.294 551.11 489.484C551.11 489.747 551.02 490.017 551.05 490.28C551.696 496.837 548.449 507.209 544.504 511.152C541.505 514.081 541.505 514.081 527.383 514.059Z" fill="#1D3557"/>
<path d="M655.833 570.975C641.163 564.058 628.394 572.139 615.076 576.984C611.757 578.125 608.374 579.07 604.945 579.815C600.826 580.784 597.249 578.426 594.686 576.188C592.123 573.949 595.753 571.411 597.173 569.428C600.796 564.463 599.338 560.002 595.813 556.254C585.915 545.739 588.651 534 591.89 522.058C592.942 518.175 594.844 516.665 598.932 517.979C602.136 519.098 605.552 519.477 608.924 519.087C612.295 518.696 615.534 517.547 618.398 515.726C622.156 513.383 625.049 514.269 627.417 517.619C631.498 523.417 637.029 525.032 643.756 523.68C645.063 523.425 646.837 522.929 647.731 523.575C659.877 531.837 672.736 525.948 685.31 525.58C696.756 525.242 707.361 526.331 714.673 536.922C717.364 540.835 722.302 541.796 726.616 543.336C729.757 544.432 733.034 546.017 732.764 549.772C732.508 553.663 729.134 554.624 725.639 554.925C723.226 555.128 720.776 556.194 718.454 555.916C698.785 553.588 681.371 560.821 663.988 568.361C661.56 569.435 658.907 570.051 655.833 570.975Z" fill="#1D3557"/>
<path d="M562.849 356.747C560.985 352.338 557.874 349.664 552.884 350.265C547.465 350.911 543.632 348.56 540.212 344.685C536.627 340.614 532.554 337.632 526.879 341.26C526.318 341.61 525.673 341.803 525.012 341.817C524.35 341.832 523.697 341.668 523.122 341.342C517.432 338.804 510.135 320.493 513.231 315.055C516.989 308.528 518.83 303.038 513.479 295.872C510.848 292.335 513.644 286.108 517.237 282.481C520.408 279.281 524.534 279.477 528.42 281.857C532.539 284.381 535.552 288.497 540.325 290.067C545.421 294.633 551.005 294.611 556.732 291.569C561.94 288.775 567.569 286.394 572.034 282.661C577.159 278.372 578.798 280.671 581.007 285.2C584.81 292.891 588.425 300.784 595.325 306.417C595.874 306.806 596.31 307.335 596.585 307.95C596.86 308.564 596.964 309.241 596.888 309.91C594.783 327.252 591.499 344.354 584.036 360.232C580.834 367.052 569.328 366.931 565.623 360.637C564.788 359.285 563.774 358.039 562.849 356.747Z" fill="#1D3557"/>
<path d="M567.885 595.325C558.197 598.922 550.366 605.427 542.234 611.495C539.055 613.869 535.515 615.769 532.14 617.879C522.701 619.599 520.461 617.617 522.911 607.988C524.414 601.979 524.189 596.902 520.709 591.87C519.018 589.429 519.334 586.943 520.439 584.201C523.167 577.442 525.203 570.397 528.187 563.765C532.328 554.564 529.856 547.053 523.588 540.016C517.319 532.978 509.375 528.539 500.018 524.611C513.419 516.207 527.127 516.35 541.204 518.498C544.331 518.978 543.985 520.796 544.083 523.087C544.662 537.162 555.026 544.68 564.375 552.814C566.63 554.752 568.659 554.189 570.53 551.793C571.91 550.127 573.528 548.674 575.333 547.482C580.211 544.079 585.006 540.97 587.666 549.968C588.418 552.439 590.364 554.647 592.093 556.727C595.851 561.234 596.813 565.44 592.379 570.314C590.124 572.83 588.162 576.097 591.973 579.485C595.039 582.211 591.349 582.819 590.116 584.111C584.044 590.465 574.995 590.976 567.885 595.325Z" fill="#1D3557"/>
<path d="M593.574 480.921C594.881 492.127 592.228 501.952 595.708 511.25C595.933 511.866 595.836 513.203 595.52 513.33C585.584 517.484 587.817 527.195 585.975 534.841C585.141 538.288 583.72 539.888 580.669 541.015C578.166 541.946 575.16 542.78 573.574 544.665C567.344 552.086 563.556 547.714 558.212 543.095C549.314 535.404 547.442 525.633 547.142 514.96C547.044 511.46 550.103 510.454 552.515 509.778C560.955 507.464 560.873 501.674 557.446 496.018C553.613 489.694 555.943 488.087 561.865 487.531C564.54 487.283 567.194 486.637 569.869 486.562C577.888 486.337 586.148 487.741 593.574 480.921Z" fill="#1D3557"/>
<path d="M689.579 296.661C690.405 294.693 693.945 294.573 693.381 291.952C692.758 289.038 689.714 289.421 687.504 288.58C679.237 285.425 672.691 289.864 666.378 293.604C655.502 300.033 644.184 303.068 631.61 301.265C627.843 300.635 623.975 301.351 620.682 303.286C615.775 306.215 610.619 308.543 604.832 308.828C601.014 309.016 599.962 311.367 599.428 314.544C597.925 323.557 596.294 332.57 596.767 341.816C597.519 356.041 604.501 365.85 617.811 370.394C639.494 377.777 661.282 384.762 683.16 391.559C689.999 393.685 693.682 388.465 697.68 383.883C701.679 379.302 699.184 376.372 696.516 372.767C691.052 365.414 686.159 357.678 682.897 349.041C681.552 346.743 680.304 344.377 678.854 342.146C665.709 321.95 667.069 314.799 689.579 296.661Z" fill="#1D3557"/>
<path d="M753.868 377.995C750.11 369.41 749.02 360.359 749.742 351.114C750.794 337.707 751.523 324.225 753.545 310.954C754.755 303.045 755.664 297.93 745.277 295.97C735.124 294.055 725.564 297.412 715.696 296.721C713.509 296.563 711.547 298.847 710.097 300.972C705.377 307.867 704.227 307.852 698.643 301.528C696.779 299.417 695.787 294.971 691.473 298.449C686.625 304.645 679.448 308.483 676.005 316.377C673.803 321.491 673.54 325.119 676.141 329.761C679.275 335.349 681.83 341.267 684.641 347.035C693.276 361.756 700.747 376.988 717.477 385.408C726.067 389.726 733.2 393.099 742.181 387.954C744.721 386.497 747.622 385.092 750.448 384.859C755.95 384.379 755.506 381.705 753.868 377.995Z" fill="#1D3557"/>
<path d="M465.514 373.961C458.066 375.862 451.617 373.751 447.709 366.451C444.906 364.52 442.824 361.862 438.751 361.561C427.079 360.682 420.6 366.503 416.76 379.452C413.085 391.829 414.956 404.673 412.01 416.945C411.078 420.813 410.725 423.983 412.393 427.686C416.512 436.781 416.151 445.373 408.861 453.087C406.681 455.385 405.201 458.389 403.6 461.183C402.796 462.573 402.149 464.743 404.562 464.939C417.083 465.998 422.667 476.783 431.152 483.49C435.09 486.607 436.488 490.438 436.413 495.447C436.165 508.306 439.848 520.45 443.929 532.49C444.741 534.901 445.297 537.455 448.694 536.321C454.511 534.383 460.501 535.57 466.393 535.149C481.605 534 488.504 524.521 482.492 511.175C472.188 488.38 473.037 465.359 477.426 441.483C479.854 428.271 486.407 416.787 489.827 404.109C489.131 402.94 488.898 401.552 489.173 400.219C489.173 400.219 489.173 400.174 489.173 400.159C487.813 393.459 485.107 387.315 481.793 381.097C477.757 373.563 473.187 372.001 465.514 373.961Z" fill="#1D3557"/>
<path d="M561.173 358.782C558.212 354.929 554.657 352.541 549.449 353.42C548.234 353.594 546.996 353.504 545.819 353.155C544.643 352.806 543.555 352.207 542.632 351.399C537.296 346.945 532.945 339.908 524.302 345.3C523.881 345.571 522.798 344.895 522.047 344.549C513.607 340.847 506.384 320.515 510.563 312.253C514.576 304.299 514.005 298.621 506.97 294.408C500.958 290.788 494.119 287.137 486.445 290.652C481.781 292.778 476.664 293.717 471.549 293.386C468.137 293.206 464.033 294.303 463.613 298.644C462.515 309.557 454.428 313.71 446.078 317.781C441.862 322.243 441.922 329.423 436.083 332.953C428.342 337.632 433.272 344.564 433.648 350.468C433.956 355.23 436.075 358.97 442.291 358.782C445.515 358.692 447.89 361.614 449.468 364.596C454.225 370.191 459.719 372.181 467.25 370.131C475.179 367.968 481.207 370.882 484.491 379.144C486.129 383.282 489.294 386.82 491.766 390.628C497.29 392.227 501.597 390.44 505.437 386.301C512.547 378.656 521.22 376.124 530.991 380.376C538.01 383.44 544.346 382.253 551.178 379.752C567.554 373.744 567.629 373.954 561.173 358.782Z" fill="#1D3557"/>
<path d="M505.55 53.5691C512.111 54.2 518.018 51.9844 524.339 50.2118C538.95 46.1035 554.071 44.0756 569.298 43.2193C571.988 43.0616 572.702 43.9103 572.545 46.2236C571.538 61.1099 582.232 69.9425 591.875 77.0777C602.307 84.7837 603.817 95.2086 606.305 105.528C607.808 111.672 607.808 118.297 609.725 124.515C611.641 130.734 609.484 134.662 602.78 132.642C594.626 130.178 586.877 132.642 578.978 132.604C565.036 132.507 550.847 133.663 537.168 129.405C533.148 128.158 532.381 129.758 533.178 133.468C535.244 143.104 528.195 150.187 525.76 158.569C525.008 161.153 522.182 160.251 520.063 159.861C514.373 158.817 510.721 154.829 506.895 150.976C499.853 143.878 493.931 144.216 488.392 152.478C485.498 156.774 482.657 157.991 477.584 156.128C472.676 154.325 469.783 152.32 470.429 146.447C471.015 141.144 471.354 135.706 469.542 130.411C466.596 121.751 464.905 113.339 472.225 105.513C475.435 102.081 473.631 98.7536 469.911 96.1023C451.512 82.8534 456.322 80.6603 470.895 74.186C474.022 72.7966 477.381 70.8663 478.696 67.4264C483.491 54.5906 493.48 52.1571 505.55 53.5691Z" fill="#1D3557"/>
<path d="M309.053 38.6978C313.645 35.6935 316.41 38.097 319.041 39.5916C324.219 42.5208 328.932 42.8513 334.193 39.4789C339.266 36.2343 344.602 35.1077 349.517 40.5229C351.524 42.7311 354.545 44.0755 357.649 42.9639C364.345 40.5605 369.854 42.9639 374.973 46.8845C383.24 53.2236 391.733 54.8909 401.277 49.5884C411.499 43.9028 421.089 44.9843 430.769 51.8416C441.937 59.7278 454.752 64.8351 467.423 70.8137C453.805 81.3287 453.805 81.3287 456.337 90.4993C446.89 89.6055 438.645 92.099 430.649 96.8834C426.711 99.2417 421.164 97.4617 416.369 96.275C396.385 91.348 388.223 94.4875 376.468 111.447C373.552 115.66 370.801 120.001 367.818 124.162C364.834 128.323 361.287 129.255 356.702 126.22C344.346 118.034 330.871 113.58 315.952 111.822C306.475 110.696 301.732 100.984 295.825 94.2246C293.969 92.0915 297.561 89.4703 299.342 87.7428C304.213 83.0036 302.815 79.481 297.99 75.8759C294.983 73.6227 289.722 71.9403 292.841 66.6828C295.472 62.1763 299.508 65.4736 303.01 65.9317C305.944 66.3737 308.915 66.5247 311.879 66.3823C317.718 65.9467 321.1 61.8759 323.024 57.0015C324.948 52.127 322.07 48.1613 318.312 45.157C315.644 42.9789 312.638 41.1764 309.053 38.6978Z" fill="#1D3557"/>
<path d="M377.611 169.362C379.384 160.634 375.574 155.843 371.297 151.073C362.376 141.167 362.467 136.33 370.681 126.055C374.71 121 377.986 115.36 381.789 110.117C390.5 98.1001 398.196 95.0959 412.506 98.8512C422.524 101.487 431.536 102.216 440.908 95.5765C446.514 91.6034 454.751 92.5723 461.343 94.5025C469.941 97.0186 471.015 101.307 466.078 108.337C463.214 112.408 462.087 116.419 463.688 121.241C464.875 124.808 465.762 128.489 466.694 132.146C470.174 145.996 467.701 151.637 454.954 156.887C447.672 159.891 442.08 164.705 437.255 170.631C433.753 174.935 430.138 178.277 423.907 178.435C417.955 178.578 414.723 183.775 411.461 187.951C408.455 191.751 406.388 196.213 403.803 200.321C399.955 206.442 391.883 207.546 389.696 201.282C385.78 190.122 379.309 179.719 377.611 169.362Z" fill="#1D3557"/>
<path d="M278.021 115.33C277.667 110.493 277.134 105.656 277.013 100.819C276.938 97.4392 275.788 92.9628 279.727 91.4006C283.965 89.7182 288.219 91.7161 291.406 94.9156C296.163 99.7 300.861 104.567 305.265 109.667C309.293 114.331 314.163 116.374 320.229 116.291C328.548 116.186 336.011 119.295 343.482 122.54C348.841 124.831 348.164 127.189 344.985 130.674C338.897 137.314 332.043 143.375 323.979 146.987C314.051 151.434 313.457 158.682 314.832 167.469C316.884 180.771 314.081 183.49 300.259 181.965C294.495 181.334 289.166 181.394 284.905 186.734C281.418 191.105 276.134 190.49 271.377 188.777C264.763 186.434 258.322 183.632 251.768 181.116C250.636 180.697 249.606 180.04 248.748 179.19C247.89 178.34 247.223 177.317 246.793 176.189C244.929 171.855 241.727 168.446 238.052 165.674C232.31 161.401 226.493 157.525 231.386 149.015C231.882 148.137 231.048 146.432 230.687 145.147C227.718 134.505 231.438 128.143 241.494 123.734C249.01 120.437 255.023 120.182 262.35 124.891C271.144 130.554 278.968 125.259 278.021 115.33Z" fill="#1D3557"/>
<path d="M308.188 63.4907C305.31 62.8148 302.446 62.0787 299.553 61.4628C295.9 60.7118 291.992 59.1646 289.895 64.1066C287.798 69.0487 288.152 73.1195 293.134 76.7246C299.493 81.2836 299.493 84.5808 294.247 88.2911C291.661 90.1237 289.076 89.1699 286.483 88.5615C276.886 86.3083 272.774 89.628 273.195 99.5121C273.428 104.897 274.285 110.26 274.405 115.638C274.563 122.961 270.129 126.19 264.169 121.999C255.969 116.231 248.521 116.171 240.209 120.677C237.759 122.007 235.316 121.939 232.633 120.197C229.18 118.095 225.53 116.335 221.736 114.939C216.165 112.788 211.533 108.739 208.658 103.508C205.366 97.8673 203.495 90.995 196.25 88.1559C193.304 86.9918 195.822 84.7611 197.287 84.1001C205.554 80.3448 211.965 74.1334 218.85 68.5304C222.096 65.8867 225.403 65.2558 229.131 68.0422C233.197 71.0465 236.534 70.7236 240.111 66.2997C248.228 56.318 259.043 48.8674 269.002 41.0111C274.263 36.8502 281.523 34.4618 286.288 28.8663C287.618 27.3116 288.896 27.8223 290.519 28.7086C300.38 34.0863 307.595 42.9414 317.154 48.7397C319.98 50.4521 320.649 53.7418 319.229 56.6785C317.147 61.1249 313.6 63.8663 308.188 63.4907Z" fill="#1D3557"/>
<path d="M610.093 210.821C600.359 215.575 589.57 217.757 578.752 217.16C569.801 216.747 560.985 217.866 552.17 219.015C547.194 219.669 543.902 217.768 541.851 213.247C538.363 205.488 533.207 198.226 536.973 188.837C538.288 185.563 536.973 181.995 534.718 178.991C528.428 170.729 527.751 161.821 531.96 152.545C534.635 146.664 537.529 140.919 537.108 135.368C553.981 132.935 570.29 139.124 586.659 134.858C594.077 132.912 600.939 136.36 608.199 136.57C612.31 136.683 609.289 140.889 608.477 142.939C603.396 155.798 603.329 155.707 617.406 157.375C619.75 157.653 622.02 158.667 624.29 159.455C635.022 163.211 646.221 162.82 657.103 161.596C666.122 160.582 666.498 167.71 670.023 172.111C669.339 179.772 663.965 186.599 667.017 195.146C667.896 197.64 664.86 202.574 659.501 200.073C658.554 199.63 657.351 199.765 656.382 199.322C638.006 191.511 623.11 197.339 610.093 210.821Z" fill="#1D3557"/>
<path d="M584.549 183H581.912L576.779 174.58V183H574.143V170.203H576.779L581.921 178.641V170.203H584.549V183ZM596.221 172.339H592.301V183H589.664V172.339H585.797V170.203H596.221V172.339Z" fill="white"/>
<path d="M555.627 495.282C555.627 495.282 564.292 505.797 551.155 509.32C544.759 511.047 547.938 507.232 548.765 505.865C548.931 505.592 549.055 505.295 549.133 504.986C549.907 502.027 552.26 490.483 555.627 495.282Z" fill="#FF0000"/>
</svg>
