<svg width="16" height="15" viewBox="0 0 16 15" fill="none" xmlns="http://www.w3.org/2000/svg">
<path d="M15.6493 6.17684L12.8189 3.98003V1.70909C12.8189 1.53416 12.6744 1.38909 12.4978 1.38909H11.0706C10.8968 1.38909 10.7528 1.53363 10.7528 1.70909V2.37896L8.80555 0.86749C8.33995 0.508022 7.65995 0.508022 7.19328 0.868557L0.350595 6.17684C-0.0451394 6.48297 -0.116073 7.05311 0.190061 7.44777C0.496195 7.84351 1.06633 7.91551 1.46206 7.60831L2.405 6.87604V13.8686C2.405 14.1625 2.64447 14.4019 2.93833 14.4019H6.53514V9.69044H9.46528V14.4019H13.0642C13.356 14.4019 13.5954 14.1625 13.5954 13.8686V6.87604L14.5384 7.60831C14.7053 7.73737 14.9 7.79871 15.0946 7.79871C15.3634 7.79871 15.6322 7.67764 15.8104 7.44777C16.116 7.05311 16.045 6.48297 15.6493 6.17684Z" fill="#F1FAEE"/>
</svg>
