<svg width="16" height="17" viewBox="0 0 16 17" fill="none" xmlns="http://www.w3.org/2000/svg">
<path d="M4 10.5304H12V12.2447H4V10.5304Z" fill="#F1FAEE"/>
<path d="M12 9.38751H4V7.67322H12V9.38751Z" fill="#F1FAEE"/>
<path d="M4 13.3875H12V15.1018H4V13.3875Z" fill="#F1FAEE"/>
<path d="M16.0001 4.81605V15.6733C16.0001 15.9889 15.7445 16.2447 15.4287 16.2447H13.1429V7.10178C13.1429 6.78616 12.8873 6.53035 12.5715 6.53035H3.42859C3.11278 6.53035 2.85716 6.78616 2.85716 7.10178V16.2447H0.571432C0.255621 16.2447 0 15.9889 0 15.6733V4.81605C0 4.60595 0.115429 4.41262 0.300764 4.313L7.72938 0.312976C7.89795 0.221928 8.10214 0.221928 8.27072 0.312976L15.6993 4.313C15.8847 4.41262 16.0001 4.60595 16.0001 4.81605Z" fill="#F1FAEE"/>
</svg>
