<svg viewBox="0 0 117 117" fill="none" xmlns="http://www.w3.org/2000/svg">
<path d="M58.5 21.4574C38.0481 21.4574 21.4574 38.0481 21.4574 58.5C21.4574 78.9519 38.0481 95.5426 58.5 95.5426C78.9519 95.5426 95.5426 78.9519 95.5426 58.5C95.5426 38.0481 78.9519 21.4574 58.5 21.4574ZM77.2023 40.6222L80.1987 41.4869L78.7106 47.1177L84.6229 43.7594L86.4127 46.9568L80.5004 50.2951L86.1915 51.8637L85.4072 54.8601L76.6392 52.5072L67.1674 57.9369L65.4581 54.8802L75.2114 48.6662L77.2023 40.6222ZM61.7779 31.8945H64.8347V38.2894L68.9773 34.0864L71.1291 36.2181L64.8347 42.6332V53.3317H61.7779V31.8945ZM61.7779 54.8601H64.8146L66.8859 58.7614L64.7542 62.522H61.7779V54.8601ZM52.5072 34.1267L55.5036 38.0481L53.191 39.0134L50.8783 39.9787L50.2147 35.0919L49.5511 30.2052L52.5072 34.1267ZM43.8197 39.2949L48.083 41.7886L46.3134 43.5583L44.5437 45.3279L42.05 41.0646L39.5564 36.8013L43.8197 39.2949ZM37.7867 47.3993L42.6734 48.0629L41.7082 50.3755L40.7429 52.6882L36.8013 49.6918L32.8799 46.7155L37.7867 47.3993ZM30.6074 58.4598L35.454 57.2129L40.3608 55.9661V58.4799V60.9936L35.4942 59.7468L30.6074 58.4598ZM32.8397 70.1839L36.7611 67.1875L40.6826 64.2112L41.6478 66.5239L42.6131 68.8365L37.7264 69.5002L32.8397 70.1839ZM43.7192 77.6648L39.4558 80.1585L41.9495 75.8951L44.4431 71.6318L46.2128 73.4015L47.9825 75.1712L43.7192 77.6648ZM52.3665 82.8934L49.3902 86.8149L50.0538 81.9281L50.7174 77.0414L53.0502 78.0067L55.3629 78.972L52.3665 82.8934ZM60.2496 43.4175C54.1361 43.518 47.0574 47.7814 47.0574 53.0502C47.0574 47.7814 54.1361 43.518 60.2496 43.4175V62.6628V72.758C55.6645 72.7982 50.6973 71.3101 47.8015 68.3338C50.6973 71.2899 55.6645 72.7781 60.2496 72.758V74.588V75.9555C52.5877 75.8348 43.2164 68.1729 43.2164 58.7011C43.2164 49.2494 52.6078 41.5674 60.2496 41.4467V43.4175ZM68.9572 82.8331L64.8347 78.7105V85.4675H61.7779V64.0503H64.8347V74.0048L71.0688 80.621L68.9572 82.8331ZM84.4821 74.0048L78.5095 70.6665L79.9976 76.3577L77.0817 77.0012L75.2919 68.4343L65.3374 62.9644L67.1071 59.8272L76.4985 65.2368L85.4072 62.9644L86.0507 65.9608L80.5607 67.5294L86.2518 70.8877L84.4821 74.0048Z" fill="#F1FAEE"/>
<path d="M58.5 0C26.1832 0 0 26.1832 0 58.5C0 90.8168 26.1832 117 58.5 117C90.8168 117 117 90.8168 117 58.5C117 26.1832 90.8168 0 58.5 0ZM99.6853 26.3039C99.7054 26.1229 99.7858 25.9821 99.9266 25.8816C100.067 25.781 100.228 25.7408 100.409 25.7609C100.59 25.781 100.731 25.8816 100.852 26.0223C100.972 26.1832 101.013 26.3441 101.013 26.505C100.992 26.686 100.932 26.8066 100.791 26.9273C100.651 27.048 100.49 27.0882 100.309 27.0681C100.128 27.048 99.9869 26.9474 99.8663 26.8066C99.7054 26.6458 99.6652 26.4849 99.6853 26.3039ZM99.5646 27.6513L96.0052 30.3862L95.3616 29.5617L98.9211 26.8267L99.5646 27.6513ZM99.0217 32.7793C98.9814 32.9603 98.8809 33.1011 98.6999 33.2217C98.539 33.3223 98.358 33.3625 98.177 33.3223C97.9961 33.2821 97.8553 33.1815 97.7547 33.0206C97.6542 32.8597 97.614 32.6989 97.6542 32.4978C97.6944 32.3168 97.7949 32.176 97.9558 32.0553C98.1368 31.9347 98.2977 31.9146 98.4787 31.9548C98.6597 31.995 98.8004 32.0956 98.901 32.2564C99.0418 32.4173 99.0619 32.5983 99.0217 32.7793ZM93.2702 24.9163L94.8589 23.4483L94.3561 22.9053L94.9795 22.3422L95.4823 22.8852L96.2264 22.1813L96.9302 22.9455L96.1861 23.6494L97.0107 24.5342L96.3872 25.0973L95.5627 24.2124L93.9942 25.6604C93.8333 25.8011 93.7528 25.962 93.7327 26.1229C93.7126 26.2838 93.7931 26.4245 93.9137 26.5854C94.0746 26.7664 94.2556 26.867 94.4567 26.8871L94.1148 27.611C93.9539 27.5909 93.7931 27.5306 93.6523 27.43C93.4914 27.3295 93.3506 27.2088 93.2099 27.0681C92.868 26.7061 92.7071 26.3441 92.7071 25.962C92.7272 25.6201 92.9082 25.2582 93.2702 24.9163ZM89.2683 18.642C89.6504 18.5012 90.0325 18.4811 90.4548 18.5615C90.857 18.642 91.2391 18.8431 91.581 19.1246C91.9228 19.4263 92.1843 19.7681 92.3451 20.1502C92.506 20.5323 92.5462 20.9345 92.4658 21.3166C92.4055 21.7188 92.2245 22.0808 91.9429 22.4227C91.6614 22.7645 91.3195 23.0058 90.9374 23.1265C90.5553 23.2673 90.1531 23.2874 89.7509 23.2069C89.3487 23.1265 88.9667 22.9254 88.6248 22.6439C88.2829 22.3422 88.0215 22.0205 87.8807 21.6384C87.7198 21.2563 87.6796 20.8541 87.7601 20.472C87.8204 20.0698 88.0014 19.7078 88.2829 19.3659C88.5443 19.0241 88.8862 18.7827 89.2683 18.642ZM85.6083 14.8613L86.4529 15.4043L86.0909 15.9472C86.5937 15.726 87.1769 15.8065 87.8204 16.2288L87.2774 17.0734C87.2171 17.0131 87.1568 16.9527 87.0964 16.9125C86.7546 16.6913 86.4127 16.6109 86.0909 16.6913C85.7692 16.7717 85.4876 16.993 85.2463 17.375L84.0598 19.2051L83.175 18.642L85.6083 14.8613ZM78.0268 13.3933C78.2279 12.9911 78.4893 12.6894 78.8111 12.4682C79.153 12.247 79.515 12.1263 79.9172 12.0861C80.3194 12.066 80.7216 12.1464 81.1238 12.3475C81.526 12.5486 81.8276 12.79 82.0488 13.1318C82.27 13.4536 82.3907 13.8156 82.4108 14.2178C82.4309 14.62 82.3304 15.0222 82.1293 15.4445C82.089 15.5048 82.0488 15.6054 81.9684 15.726L78.8312 14.1373C78.7508 14.4591 78.7709 14.7607 78.9117 15.0624C79.0524 15.3439 79.3139 15.5853 79.6557 15.7461C80.0981 15.9673 80.5406 15.9875 80.9629 15.8467L81.1841 16.6712C80.9025 16.7919 80.5808 16.8522 80.259 16.8321C79.9373 16.812 79.5954 16.7114 79.2334 16.5505C78.791 16.3293 78.4491 16.0478 78.1877 15.7059C77.9464 15.364 77.8056 15.0021 77.7654 14.5798C77.7654 14.1776 77.8458 13.7754 78.0268 13.3933ZM71.0889 10.96C71.2296 10.5376 71.4508 10.1757 71.7324 9.91423C72.034 9.6528 72.3558 9.47181 72.758 9.39137C73.1401 9.31093 73.5423 9.35115 73.9445 9.47181C74.226 9.57236 74.4673 9.69302 74.6684 9.87401C74.8695 10.055 75.0304 10.2561 75.131 10.4974L75.8348 8.30543L76.8403 8.62719L74.9299 14.5596L73.9646 14.258L74.1456 13.715C73.9244 13.8558 73.6629 13.9563 73.3814 13.9765C73.0999 13.9966 72.8183 13.9563 72.5368 13.8759C72.1346 13.7351 71.7927 13.534 71.5112 13.2525C71.2497 12.971 71.0688 12.6291 70.9883 12.2269C70.928 11.8046 70.9481 11.4024 71.0889 10.96ZM68.2936 6.31454L69.3192 6.51564L68.1126 12.6291L67.087 12.428L68.2936 6.31454ZM60.1892 9.67291L60.3903 7.11894L61.4361 7.19938L61.235 9.61258C61.1947 10.0148 61.2752 10.3164 61.4361 10.5376C61.5969 10.7589 61.8584 10.8795 62.1801 10.8996C62.5622 10.9398 62.8639 10.8393 63.1052 10.6181C63.3465 10.3969 63.4873 10.0751 63.5074 9.6528L63.6884 7.40048L64.7341 7.48092L64.3721 11.9453L63.3666 11.8649L63.4068 11.3018C63.2258 11.4828 63.0046 11.6236 62.7432 11.7241C62.4818 11.8046 62.2002 11.8448 61.9187 11.8247C61.3154 11.7845 60.873 11.5633 60.5512 11.2214C60.2697 10.8393 60.1289 10.3365 60.1892 9.67291ZM57.1124 5.40959L57.3336 11.6437L56.2879 11.6839L56.0667 5.44981L57.1124 5.40959ZM49.1891 9.02939C49.3298 8.6473 49.5712 8.34565 49.8929 8.10433C50.2147 7.86301 50.5968 7.70213 51.0392 7.6418C51.4615 7.58147 51.8637 7.62169 52.2458 7.76246C52.6078 7.90323 52.9295 8.12444 53.1708 8.4462C53.4122 8.76796 53.5731 9.15005 53.6334 9.61258C53.6535 9.69302 53.6535 9.79357 53.6535 9.91423L50.1745 10.4371C50.275 10.7589 50.4761 11.0002 50.7576 11.1409C51.0392 11.3018 51.3811 11.342 51.7631 11.2817C52.2458 11.2013 52.6279 10.9801 52.8893 10.6181L53.5328 11.1812C53.372 11.4426 53.1507 11.6638 52.8491 11.8247C52.5675 11.9856 52.2257 12.1062 51.8436 12.1666C51.3609 12.247 50.9185 12.2068 50.5163 12.066C50.1141 11.9252 49.7924 11.704 49.5309 11.3823C49.2695 11.0605 49.1086 10.6985 49.0483 10.2561C49.0081 9.81368 49.0483 9.41148 49.1891 9.02939ZM43.8599 8.22499L44.8654 7.94345L45.1268 8.92884L46.2932 8.60708L46.5144 9.41148L45.3481 9.73324L45.9111 11.7845C45.9715 11.9856 46.072 12.1464 46.1927 12.2269C46.3334 12.3073 46.4943 12.3274 46.6753 12.2671C46.8965 12.2068 47.0775 12.0861 47.1982 11.9252L47.6808 12.5688C47.5803 12.6894 47.4596 12.8101 47.2987 12.9106C47.1378 13.0112 46.977 13.0715 46.7759 13.1318C46.2932 13.2525 45.891 13.2324 45.5693 13.0514C45.2475 12.8704 45.0062 12.5486 44.8855 12.066L44.3224 9.97456L43.6186 10.1757L43.3974 9.37126L44.1012 9.17016L43.8599 8.22499ZM37.5052 12.7497C37.5655 12.3475 37.7264 11.9856 37.9878 11.6638C38.2492 11.342 38.5911 11.1007 39.0134 10.9197C39.4357 10.7387 39.858 10.6784 40.2602 10.7186C40.6624 10.7589 41.0445 10.8996 41.3663 11.1409C41.688 11.3823 41.9294 11.704 42.0902 12.1263C42.2511 12.5285 42.3114 12.9508 42.2511 13.3329C42.1908 13.7351 42.0299 14.0971 41.7685 14.4189C41.507 14.7406 41.1652 14.982 40.7429 15.1629C40.3206 15.3439 39.8982 15.4043 39.496 15.364C39.0938 15.3238 38.7118 15.1831 38.39 14.9216C38.0682 14.6803 37.8269 14.3384 37.6459 13.9362C37.5052 13.5541 37.4448 13.1519 37.5052 12.7497ZM30.4063 13.4134L31.5727 15.364C31.633 15.1227 31.7336 14.8814 31.9146 14.6803C32.0755 14.4591 32.2967 14.2781 32.5782 14.1172C33.0608 13.8357 33.5435 13.7351 34.006 13.8558C34.4685 13.9563 34.8707 14.2982 35.1925 14.8613L36.4997 17.0734L35.5947 17.6164L34.3479 15.5249C34.1468 15.1831 33.9256 14.982 33.6641 14.9015C33.4027 14.8211 33.1212 14.8814 32.8396 15.0423C32.4978 15.2434 32.2967 15.5048 32.2363 15.8065C32.1559 16.1282 32.2363 16.4701 32.4575 16.8321L33.6239 18.7827L32.719 19.3257L29.5416 13.9563L30.4063 13.4134ZM29.1394 20.5122C29.1595 20.3312 29.2601 20.1703 29.4209 20.0698C29.5818 19.9491 29.7427 19.9089 29.9237 19.929C30.1047 19.9491 30.2656 20.0497 30.3862 20.2106C30.5069 20.3714 30.5471 20.5524 30.527 20.7334C30.5069 20.9144 30.4063 21.0753 30.2656 21.1758C30.1047 21.2965 29.9438 21.3367 29.7628 21.3166C29.5818 21.2965 29.4209 21.1959 29.3003 21.0351C29.1595 20.8742 29.0992 20.6932 29.1394 20.5122ZM20.5725 23.7499L23.7298 25.2984L22.302 22.0607L22.9254 21.4373L26.1229 22.9656L24.675 19.7279L25.3386 19.1045L27.2893 23.4684L26.5653 24.1722L23.5689 22.7645L24.8761 25.8011L24.1521 26.505L19.8486 24.4337L20.5725 23.7499ZM16.2288 38.1889L12.9307 37.9878L15.2635 40.3206L14.8412 41.2456L10.0751 40.9037L10.4773 39.9988L13.9765 40.2803L11.4828 37.8068L11.8448 37.0024L15.3842 37.2638L12.8503 34.7903L13.2324 33.9457L16.6511 37.2839L16.2288 38.1889ZM14.1977 32.2162L14.7607 31.4118L18.1593 32.3369L16.1483 29.4209L16.6511 28.697L20.0698 29.6019L18.0387 26.7061L18.5816 25.9419L21.3166 29.8634L20.7334 30.6879L17.5359 29.8634L19.386 32.5983L18.8029 33.4228L14.1977 32.2162ZM22.4025 96.9704L24.0717 95.241L22.1612 93.3909L20.4921 95.1203L19.5067 94.1751L23.589 89.952L24.5744 90.8972L22.9656 92.5663L24.8761 94.4165L26.4849 92.7473L27.4703 93.6925L23.3879 97.9156L22.4025 96.9704ZM30.0645 101.375C29.5617 101.576 29.0388 101.636 28.4959 101.556C27.9529 101.475 27.43 101.254 26.9474 100.892C26.4648 100.53 26.1028 100.087 25.8615 99.5847C25.6201 99.082 25.5397 98.5591 25.6 98.0162C25.6604 97.4732 25.8615 96.9905 26.2033 96.528C26.5452 96.0655 26.9675 95.7236 27.4703 95.5225C27.973 95.3214 28.4959 95.2611 29.0388 95.3415C29.5818 95.422 30.1047 95.6432 30.5873 96.0052C31.07 96.3671 31.4319 96.8096 31.6733 97.3123C31.9146 97.8151 31.995 98.3379 31.9347 98.8809C31.8744 99.4239 31.6934 99.9266 31.3314 100.389C30.9895 100.852 30.5672 101.173 30.0645 101.375ZM32.9402 104.673L31.7537 103.989L34.1267 99.8462L32.4978 98.9211L33.0407 97.9558L37.485 100.49L36.9421 101.455L35.3132 100.53L32.9402 104.673ZM40.2602 105.437L37.7666 104.351L37.2236 105.598L40.1597 106.865L39.7173 107.87L35.5344 106.06L37.8671 100.671L41.9495 102.44L41.507 103.446L38.6715 102.219L38.1688 103.386L40.6624 104.471L40.2602 105.437ZM45.147 109.6L41.0244 108.312L42.774 102.702L44.0811 103.104L42.6533 107.649L45.4687 108.534L45.147 109.6ZM51.8034 108.292C51.6425 109.137 51.3006 109.74 50.7375 110.122C50.1946 110.484 49.5108 110.605 48.6863 110.444C47.8618 110.283 47.2585 109.941 46.8965 109.398C46.5144 108.855 46.4139 108.152 46.5748 107.307L47.1781 104.069L48.5053 104.331L47.902 107.508C47.7009 108.534 48.0428 109.137 48.9075 109.298C49.3298 109.378 49.6717 109.318 49.9331 109.097C50.1946 108.896 50.3756 108.514 50.4761 107.991L51.0794 104.813L52.4067 105.055L51.8034 108.292ZM57.3135 111.309L53.01 111.007L53.4122 105.135L54.7796 105.236L54.4579 110.002L57.3939 110.203L57.3135 111.309ZM66.3027 109.358C66.0815 109.821 65.7396 110.203 65.257 110.484C64.7743 110.766 64.2515 110.947 63.6079 111.007L60.9534 111.269L60.3702 105.417L63.0248 105.155C63.6683 105.095 64.2314 105.155 64.7542 105.356C65.257 105.557 65.6793 105.859 66.001 106.261C66.3228 106.684 66.5038 107.166 66.5641 107.749C66.6043 108.353 66.5239 108.876 66.3027 109.358ZM68.2131 110.404L66.906 104.673L71.2296 103.687L71.471 104.753L68.4545 105.437L68.736 106.684L71.3905 106.08L71.6318 107.106L68.9773 107.709L69.279 109.036L72.396 108.333L72.6373 109.398L68.2131 110.404ZM79.8769 106.764L78.2078 105.678L78.1475 105.698L77.0615 106.141L77.6849 107.649L76.418 108.192L74.1858 102.762L76.5387 101.797C77.0213 101.596 77.4637 101.515 77.886 101.515C78.3084 101.515 78.6703 101.636 78.9921 101.857C79.3139 102.078 79.5552 102.38 79.7161 102.782C79.8769 103.184 79.9373 103.567 79.8568 103.949C79.7764 104.331 79.5954 104.652 79.3139 104.954L81.2444 106.201L79.8769 106.764ZM86.2116 103.104C85.93 103.567 85.5077 103.969 84.9849 104.27C84.462 104.572 83.919 104.733 83.356 104.753C82.7929 104.773 82.2901 104.652 81.8075 104.391C81.3249 104.13 80.9629 103.748 80.6612 103.245C80.3797 102.742 80.2389 102.219 80.2389 101.696C80.2389 101.153 80.3998 100.651 80.6813 100.188C80.983 99.7054 81.3852 99.3233 81.908 99.0217C82.4309 98.72 82.9739 98.5591 83.537 98.539C84.1 98.5189 84.6028 98.6396 85.0854 98.901C85.5681 99.1624 85.9502 99.5445 86.2317 100.047C86.5132 100.55 86.654 101.073 86.654 101.616C86.654 102.159 86.4931 102.621 86.2116 103.104ZM89.7308 101.053L86.8551 97.252L85.3469 98.3781L84.6832 97.4933L88.7656 94.3964L89.4292 95.2812L87.9209 96.4074L90.7967 100.208L89.7308 101.053ZM93.0088 98.4184L89.1074 94.0143L90.133 93.1093L94.0344 97.5134L93.0088 98.4184ZM58.5 99.7255C35.7355 99.7255 17.2745 81.2645 17.2745 58.5C17.2745 35.7355 35.7355 17.2745 58.5 17.2745C81.2645 17.2745 99.7255 35.7355 99.7255 58.5C99.7255 81.2645 81.2645 99.7255 58.5 99.7255ZM99.9266 36.5801L99.444 35.655L103.406 33.5636L103.868 34.4484L103.285 34.7501C103.848 34.7903 104.29 35.1523 104.652 35.836L103.768 36.2986C103.748 36.2181 103.707 36.1377 103.667 36.0773C103.466 35.7154 103.225 35.4942 102.903 35.3936C102.581 35.2931 102.219 35.3534 101.837 35.5746L99.9266 36.5801ZM106.241 42.5327C105.98 42.8544 105.658 43.0756 105.236 43.2365C104.813 43.3974 104.411 43.4376 104.009 43.3773C103.607 43.3169 103.245 43.136 102.943 42.8745C102.621 42.6131 102.4 42.2511 102.219 41.8288C102.058 41.4065 101.998 40.9842 102.058 40.582C102.119 40.1798 102.259 39.8178 102.521 39.496C102.782 39.1743 103.104 38.9531 103.526 38.7922C103.949 38.6313 104.351 38.5911 104.733 38.6514C105.135 38.7118 105.477 38.8927 105.799 39.1542C106.12 39.4156 106.342 39.7776 106.503 40.1999C106.663 40.6222 106.724 41.0445 106.663 41.4668C106.643 41.8489 106.482 42.2109 106.241 42.5327Z" fill="#F1FAEE"/>
</svg>
