<svg width="16" height="15" viewBox="0 0 16 15" fill="none" xmlns="http://www.w3.org/2000/svg">
<path fill-rule="evenodd" clip-rule="evenodd" d="M0.352416 2.7734L5.96522 0.0873153C6.3704 -0.154815 6.89934 0.133667 6.89934 0.617082V1.4239H11.0745C11.4157 1.4239 11.692 1.70011 11.692 2.04066V4.61096C11.692 5.42223 10.457 5.42223 10.457 4.61096V2.65741H6.89934V11.9769H10.457V10.0233C10.457 9.21229 11.692 9.21229 11.692 10.0233V12.5937C11.692 12.9344 11.4157 13.2104 11.0745 13.2104H6.89934L6.89701 14.0174C6.89743 14.4634 6.42804 14.7682 6.0165 14.5715L0.4037 11.8855C0.168049 11.7985 0 11.572 0 11.3068L0.00254297 3.32772C0.00275488 3.0985 0.131812 2.8788 0.352416 2.7734V2.7734ZM8.77204 6.53573C7.74425 6.53573 7.74425 8.09667 8.77204 8.09667H13.3327L12.4475 8.98053C11.7211 9.70608 12.8258 10.8096 13.5524 10.0841L15.7667 7.87232C16.0651 7.57431 16.0901 7.08307 15.7667 6.76008L13.5524 4.54832C12.8258 3.82277 11.7211 4.92633 12.4475 5.65187L13.3327 6.53573H8.77204Z" fill="#F1FAEE"/>
</svg>
