<svg width="886" height="630" viewBox="0 0 886 630" fill="none" xmlns="http://www.w3.org/2000/svg">
<path data-id="IF" d="M581.573 480.921C582.881 492.127 580.228 501.951 583.708 511.25C583.933 511.866 583.836 513.202 583.52 513.33C573.584 517.484 575.816 527.195 573.975 534.841C573.141 538.288 571.72 539.888 568.669 541.015C566.166 541.946 563.16 542.78 561.574 544.665C555.344 552.086 551.556 547.714 546.212 543.095C537.314 535.404 535.442 525.633 535.142 514.96C535.044 511.46 536.5 508 537.5 506C540.985 499.222 539.5 499 540.5 492C542 486 543.942 488.087 549.865 487.531C552.54 487.283 555.193 486.637 557.869 486.562C565.888 486.337 574.148 487.741 581.573 480.921Z" fill="#1D3557"/>
<path d="M556.946 514H554.31V501.203H556.946V514ZM567.098 508.771H562.035V514H559.398V501.203H567.73V503.339H562.035V506.644H567.098V508.771Z" fill="white"/>
<path d="M598.093 210.821C588.359 215.574 577.57 217.757 566.752 217.16C557.801 216.747 548.985 217.866 540.17 219.015C535.194 219.669 531.902 217.768 529.851 213.247C526.363 205.488 521.207 198.225 524.973 188.837C526.288 185.562 524.973 181.995 522.718 178.991C516.428 170.729 515.751 161.821 519.96 152.545C522.635 146.664 525.529 140.919 525.108 135.368C541.981 132.935 558.29 139.124 574.659 134.858C582.077 132.912 588.939 136.36 596.199 136.57C600.31 136.683 597.289 140.889 596.477 142.939C591.396 155.797 591.329 155.707 605.406 157.375C607.75 157.653 610.02 158.667 612.29 159.455C623.022 163.211 634.221 162.82 645.103 161.596C654.122 160.582 654.498 167.709 658.023 172.111C657.339 179.772 651.965 186.599 655.017 195.146C655.896 197.64 652.86 202.574 647.501 200.073C646.554 199.63 645.351 199.765 644.382 199.322C626.006 191.511 611.11 197.339 598.093 210.821Z" fill="#1D3557"/>
<path d="M572.549 183H569.912L564.779 174.58V183H562.143V170.203H564.779L569.921 178.641V170.203H572.549V183ZM584.221 172.339H580.301V183H577.664V172.339H573.797V170.203H584.221V172.339Z" fill="white"/>
<path d="M555.742 526.328C555.742 526.328 565.812 538.436 550.545 542.493C543.113 544.482 546.807 540.088 547.768 538.514C547.961 538.2 548.105 537.859 548.196 537.502C549.095 534.095 551.829 520.801 555.742 526.328Z" fill="#FF0000"/>
<path d="M645.141 103.635C638.896 110.47 632.289 110.853 624.496 105.799C619.686 102.674 614.056 100.984 609.216 106.587C606.909 109.261 604.444 108.217 602.054 106.587C599.266 104.694 596.928 102.126 596.492 98.9187C594.403 83.7095 583.851 74.6365 573.141 65.4885C563.19 56.9863 562.86 49.9488 566.595 37.6237C571.104 22.7975 583.836 16.2031 593.441 6.40163C605.391 -2.26574 609.254 -2.26574 621.038 7.2203C632.44 16.4059 643.443 25.9971 647.343 41.0185C648.178 44.2482 650.823 46.3962 653.048 48.7546C659.737 55.8597 663.675 63.9938 661.315 73.9756C658.902 84.3254 667.373 89.0797 672.588 95.9745C663.743 100.518 651.778 92.8575 645.141 103.635Z" fill="#1D3557"/>
<path d="M604.143 61.9999V49.203H608.625C610.178 49.203 611.355 49.5018 612.158 50.0995C612.961 50.6913 613.362 51.5614 613.362 52.7098C613.362 53.3368 613.201 53.8905 612.879 54.371C612.557 54.8456 612.108 55.1942 611.534 55.4169C612.19 55.5809 612.706 55.912 613.081 56.41C613.462 56.9081 613.652 57.5175 613.652 58.2382C613.652 59.4686 613.26 60.4003 612.475 61.0331C611.689 61.6659 610.57 61.9882 609.117 61.9999H604.143ZM606.779 56.4276V59.8817H609.038C609.659 59.8817 610.143 59.7352 610.488 59.4423C610.84 59.1434 611.016 58.7333 611.016 58.2118C611.016 57.0399 610.409 56.4452 609.196 56.4276H606.779ZM606.779 54.5643H608.73C610.061 54.5409 610.726 54.0106 610.726 52.9735C610.726 52.3934 610.556 51.9774 610.216 51.7255C609.882 51.4677 609.352 51.3387 608.625 51.3387H606.779V54.5643ZM625.025 51.3387H621.105V61.9999H618.469V51.3387H614.602V49.203H625.025V51.3387Z" fill="white"/>
<path d="M659.669 170.173C657.948 160.304 652.439 157.562 642.766 158.787C634.875 159.786 626.57 158.697 618.603 157.495C612.591 156.586 607.022 153.341 600.566 153.739C598.07 153.897 594.132 153.522 597.116 149.286C604.263 139.124 603.346 128.571 599.371 117.688C598.559 115.435 597.454 113.182 599.055 110.395C604.263 112.37 608.991 113.97 613.59 107.894C616.349 104.244 621.053 107.894 624.631 109.591C635.904 115.067 638.587 114.571 647.012 105.34C655.753 98.6634 666.23 102.291 675.82 100.676C676.699 100.534 678.308 102.614 679.022 103.958C684.23 113.722 694.113 121.12 694.271 133.566C694.271 136.277 696.939 137.096 699.006 137.036C704.628 136.878 707.1 140.175 709.024 144.749C714.285 157.217 721.049 168.138 734.878 173.02C739.388 174.619 741.59 185.72 738.824 190.504C735.48 196.28 730.286 195.379 725.333 193.193C718.276 190.084 712.106 185.502 704.59 182.866C694.865 179.464 686.101 177.864 676.827 183.279C672.852 185.575 668.712 187.574 664.441 189.258C662.668 190.009 660.405 191.834 658.526 189.783C656.911 188.026 657.955 185.675 658.248 183.565C658.85 179.103 664.268 175.168 659.669 170.173Z" fill="#1D3557"/>
<path d="M656.946 144H654.31V131.203H656.946V144ZM666.034 140.642C666.034 140.144 665.858 139.764 665.507 139.5C665.155 139.23 664.522 138.949 663.608 138.656C662.694 138.357 661.971 138.064 661.438 137.777C659.984 136.992 659.258 135.934 659.258 134.604C659.258 133.913 659.451 133.298 659.838 132.759C660.23 132.214 660.79 131.789 661.517 131.484C662.249 131.18 663.069 131.027 663.978 131.027C664.892 131.027 665.706 131.194 666.421 131.528C667.136 131.856 667.689 132.322 668.082 132.926C668.48 133.529 668.68 134.215 668.68 134.982H666.043C666.043 134.396 665.858 133.942 665.489 133.62C665.12 133.292 664.602 133.128 663.934 133.128C663.289 133.128 662.788 133.266 662.431 133.541C662.073 133.81 661.895 134.168 661.895 134.613C661.895 135.029 662.103 135.378 662.519 135.659C662.94 135.94 663.559 136.204 664.373 136.45C665.873 136.901 666.966 137.461 667.651 138.129C668.337 138.797 668.68 139.629 668.68 140.625C668.68 141.732 668.261 142.602 667.423 143.235C666.585 143.862 665.457 144.176 664.039 144.176C663.055 144.176 662.158 143.997 661.35 143.64C660.541 143.276 659.923 142.781 659.495 142.154C659.073 141.527 658.862 140.801 658.862 139.974H661.508C661.508 141.387 662.352 142.093 664.039 142.093C664.666 142.093 665.155 141.967 665.507 141.715C665.858 141.457 666.034 141.099 666.034 140.642Z" fill="white"/>
<path d="M493.55 53.569C500.111 54.1999 506.018 51.9842 512.339 50.2117C526.95 46.1033 542.071 44.0754 557.298 43.2192C559.988 43.0615 560.702 43.9102 560.545 46.2235C559.538 61.1098 570.232 69.9424 579.875 77.0776C590.307 84.7836 591.817 95.2084 594.305 105.528C595.808 111.672 595.808 118.296 597.725 124.515C599.641 130.734 597.484 134.662 590.78 132.642C582.626 130.178 574.877 132.642 566.978 132.604C553.036 132.507 538.847 133.663 525.168 129.405C521.148 128.158 520.381 129.758 521.178 133.468C523.244 143.104 516.195 150.187 513.76 158.569C513.008 161.153 510.182 160.251 508.063 159.861C502.373 158.817 498.721 154.829 494.895 150.976C487.853 143.878 481.931 144.216 476.392 152.478C473.498 156.774 470.657 157.991 465.584 156.128C460.676 154.325 457.783 152.32 458.429 146.447C459.015 141.144 459.354 135.706 457.542 130.411C454.596 121.751 452.905 113.339 460.225 105.513C463.435 102.081 461.631 98.7535 457.911 96.1022C439.512 82.8533 444.322 80.6602 458.895 74.1859C462.022 72.7964 465.381 70.8662 466.696 67.4263C471.491 54.5905 481.48 52.157 493.55 53.569Z" fill="#1D3557"/>
<path d="M518.278 97.6425C518.278 97.1445 518.103 96.7636 517.751 96.5C517.399 96.2304 516.767 95.9492 515.853 95.6562C514.938 95.3574 514.215 95.0644 513.682 94.7773C512.229 93.9922 511.502 92.9345 511.502 91.6045C511.502 90.9131 511.695 90.2978 512.082 89.7588C512.475 89.2138 513.034 88.789 513.761 88.4843C514.493 88.1797 515.313 88.0273 516.222 88.0273C517.136 88.0273 517.95 88.1943 518.665 88.5283C519.38 88.8564 519.934 89.3222 520.326 89.9258C520.725 90.5293 520.924 91.2148 520.924 91.9824H518.287C518.287 91.3965 518.103 90.9424 517.733 90.6201C517.364 90.292 516.846 90.1279 516.178 90.1279C515.533 90.1279 515.032 90.2656 514.675 90.541C514.317 90.8105 514.139 91.1679 514.139 91.6133C514.139 92.0293 514.347 92.3779 514.763 92.6591C515.185 92.9404 515.803 93.2041 516.617 93.4502C518.117 93.9013 519.21 94.4609 519.896 95.1289C520.581 95.7968 520.924 96.6289 520.924 97.625C520.924 98.7324 520.505 99.6025 519.667 100.235C518.829 100.862 517.701 101.176 516.283 101.176C515.299 101.176 514.402 100.997 513.594 100.64C512.785 100.276 512.167 99.7812 511.739 99.1543C511.317 98.5273 511.106 97.8008 511.106 96.9746H513.752C513.752 98.3867 514.596 99.0927 516.283 99.0927C516.91 99.0927 517.399 98.9668 517.751 98.7148C518.103 98.457 518.278 98.0996 518.278 97.6425ZM527.445 97.8271L530.346 88.2031H533.281L528.825 101H526.074L521.636 88.2031H524.562L527.445 97.8271Z" fill="white"/>
<path d="M692.956 303.06C683.764 294.137 682.253 282.699 679.976 271.77C676.737 256.223 670.664 241.667 665.193 226.901C663.134 221.351 660.218 216.131 657.835 210.693C654.077 202.184 656.805 195.852 665.426 192.525C667.44 191.774 669.65 191.18 671.341 189.934C687.695 177.916 702.794 183.925 717.63 193.073C722.568 196.115 727.648 198.841 733.548 197.782C738.538 196.889 740.312 199.284 741.582 203.37C744.543 213.134 747.542 222.973 750.819 232.662C751.668 235.163 751.157 236.478 749.391 238.16C747.79 239.662 746.655 242.471 748.436 243.988C753.998 248.712 750.586 253.121 748.512 257.583C744.002 267.294 740.996 277.268 741.086 288.159C741.146 294.227 737.644 294.918 732.774 292.32C729.114 290.337 725.446 289.023 721.553 292.185C719.501 293.844 716.938 293.041 714.511 292.62C705.146 291.02 697.337 292.988 692.956 303.06Z" fill="#1D3557"/>
<path d="M702.871 239.827L705.771 230.203H708.707L704.251 243H701.5L697.062 230.203H699.988L702.871 239.827ZM716.556 239.643C716.556 239.145 716.38 238.764 716.028 238.5C715.677 238.23 715.044 237.949 714.13 237.656C713.216 237.357 712.492 237.064 711.959 236.777C710.506 235.992 709.779 234.935 709.779 233.604C709.779 232.913 709.973 232.298 710.359 231.759C710.752 231.214 711.312 230.789 712.038 230.484C712.771 230.18 713.591 230.027 714.499 230.027C715.413 230.027 716.228 230.194 716.942 230.528C717.657 230.856 718.211 231.322 718.604 231.926C719.002 232.529 719.201 233.215 719.201 233.982H716.564C716.564 233.396 716.38 232.942 716.011 232.62C715.642 232.292 715.123 232.128 714.455 232.128C713.811 232.128 713.31 232.266 712.952 232.541C712.595 232.811 712.416 233.168 712.416 233.613C712.416 234.029 712.624 234.378 713.04 234.659C713.462 234.94 714.08 235.204 714.895 235.45C716.395 235.901 717.487 236.461 718.173 237.129C718.858 237.797 719.201 238.629 719.201 239.625C719.201 240.732 718.782 241.603 717.944 242.235C717.106 242.862 715.979 243.176 714.561 243.176C713.576 243.176 712.68 242.997 711.871 242.64C711.062 242.276 710.444 241.781 710.017 241.154C709.595 240.527 709.384 239.801 709.384 238.975H712.029C712.029 240.387 712.873 241.093 714.561 241.093C715.188 241.093 715.677 240.967 716.028 240.715C716.38 240.457 716.556 240.1 716.556 239.643Z" fill="white"/>
<path d="M544.762 229.065C548.076 221.036 554.532 220.014 562.318 220.307C575.441 220.803 588.698 220.9 600.077 212.496C601.264 211.903 602.723 211.572 603.602 210.678C614.875 199.217 627.652 196.829 642.871 202.184C648.756 204.249 652.063 206.81 654.964 212.278C663.727 228.802 667.801 247.098 675.452 264.012C676.617 266.581 676.121 269.878 676.624 272.799C677.263 276.502 679.788 280.934 678.526 283.682C676.526 288.046 671.987 283.157 668.462 283.953C661.766 285.455 655.753 288.549 649.928 291.922C640.436 297.42 630.636 299.861 619.655 297.472C614.094 296.255 609.133 299.042 604.316 301.573C591.351 308.333 585.527 307.146 578.304 294.581C573.509 286.221 565.843 278.808 568.045 267.444C568.722 263.944 565.332 261.804 561.867 261.045C553.021 259.107 549.609 253.046 551.218 244.837C552.623 237.679 546.528 234.442 544.762 229.065Z" fill="#1D3557"/>
<path d="M605.143 259V246.203H609.625C611.178 246.203 612.355 246.502 613.158 247.1C613.961 247.691 614.362 248.562 614.362 249.71C614.362 250.337 614.201 250.891 613.879 251.371C613.557 251.846 613.108 252.194 612.534 252.417C613.19 252.581 613.706 252.912 614.081 253.41C614.462 253.908 614.652 254.518 614.652 255.238C614.652 256.469 614.26 257.4 613.475 258.033C612.689 258.666 611.57 258.988 610.117 259H605.143ZM607.779 253.428V256.882H610.038C610.659 256.882 611.143 256.735 611.488 256.442C611.84 256.144 612.016 255.733 612.016 255.212C612.016 254.04 611.409 253.445 610.196 253.428H607.779ZM607.779 251.564H609.73C611.061 251.541 611.726 251.011 611.726 249.974C611.726 249.394 611.556 248.978 611.216 248.726C610.882 248.468 610.352 248.339 609.625 248.339H607.779V251.564ZM626.685 254.737C626.585 256.114 626.075 257.198 625.155 257.989C624.241 258.78 623.034 259.176 621.534 259.176C619.894 259.176 618.602 258.625 617.658 257.523C616.721 256.416 616.252 254.898 616.252 252.971V252.188C616.252 250.958 616.469 249.874 616.902 248.937C617.336 247.999 617.954 247.281 618.757 246.783C619.565 246.279 620.503 246.027 621.569 246.027C623.046 246.027 624.235 246.423 625.138 247.214C626.04 248.005 626.562 249.115 626.702 250.545H624.065C624.001 249.719 623.77 249.121 623.371 248.752C622.979 248.377 622.378 248.189 621.569 248.189C620.69 248.189 620.031 248.506 619.592 249.139C619.158 249.766 618.936 250.741 618.924 252.065V253.032C618.924 254.415 619.132 255.426 619.548 256.064C619.97 256.703 620.632 257.022 621.534 257.022C622.349 257.022 622.955 256.838 623.354 256.469C623.758 256.094 623.989 255.517 624.048 254.737H626.685Z" fill="white"/>
<path d="M739.868 464.751C751.525 458.93 751.969 457.736 744.378 446.958C742.033 443.638 742.048 440.386 742.612 436.984C743.822 429.676 742.123 423.374 738.14 417.088C734.555 411.432 732.398 404.89 729.264 398.919C726.814 394.263 728.633 392.212 732.916 390.44C742.364 386.549 749.954 387.165 754.524 395.953C762.423 411.139 775.012 414.684 790.344 415.12C799.49 415.383 808.562 417.005 817.798 416.975C826.246 416.975 832.123 413.67 836.099 406.415C836.782 404.963 837.815 403.704 839.105 402.75C847.613 397.635 870.025 400.932 877.435 408.143C878.893 409.562 879.915 410.786 879.186 413.017C878.457 415.248 878.51 417.629 880.111 419.198C889.581 428.459 883.012 439.335 883.117 449.422C883.252 462.993 874.489 470.587 862.396 473.043C851.972 475.161 846.328 482.266 839.91 489.108C837.948 491.204 836.362 494.508 832.912 493.862C828.749 493.111 830.485 489.078 829.733 486.449C829.29 484.895 828.907 483.317 828.576 481.733C827.997 478.916 826.772 476.34 823.803 475.814C820.835 475.288 818.828 477.497 817.099 479.615C816.258 480.651 815.281 481.815 815.025 483.062C812.77 493.81 805.961 495.545 795.95 494.696C786.586 493.892 777.101 493.847 767.684 493.021C761.138 492.45 756.08 490.49 755.659 482.889C755.448 479.217 753.449 477.166 750.202 475.596C745.564 473.342 741.895 469.491 739.868 464.751Z" fill="#1D3557"/>
<path d="M805.275 445.339H801.355V456H798.719V445.339H794.852V443.203H805.275V445.339ZM809.424 453.882H815.022V456H806.787V443.203H809.424V453.882Z" fill="white"/>
<path d="M741.868 377.994C738.11 369.41 737.02 360.359 737.742 351.114C738.794 337.707 739.523 324.225 741.545 310.954C742.755 303.045 743.664 297.93 733.277 295.97C723.124 294.055 713.564 297.412 703.696 296.721C701.509 296.563 699.547 298.847 698.097 300.972C693.377 307.867 692.227 307.852 686.643 301.528C684.779 299.417 683.787 294.971 679.473 298.448C674.625 304.645 667.448 308.483 664.005 316.377C661.803 321.491 661.54 325.119 664.141 329.761C667.275 335.349 669.83 341.267 672.641 347.035C681.276 361.756 688.747 376.988 705.477 385.408C714.067 389.726 721.2 393.099 730.181 387.954C732.721 386.497 735.622 385.092 738.448 384.859C743.95 384.379 743.506 381.705 741.868 377.994Z" fill="#1D3557"/>
<path d="M707.768 343.383C707.293 343.951 706.622 344.394 705.755 344.71C704.888 345.021 703.927 345.176 702.872 345.176C701.765 345.176 700.792 344.936 699.954 344.455C699.122 343.969 698.478 343.266 698.021 342.346C697.569 341.426 697.338 340.345 697.326 339.103V338.232C697.326 336.955 697.54 335.851 697.968 334.919C698.401 333.981 699.022 333.267 699.831 332.774C700.646 332.276 701.598 332.027 702.688 332.027C704.205 332.027 705.392 332.391 706.247 333.117C707.103 333.838 707.609 334.89 707.768 336.272H705.201C705.084 335.54 704.823 335.004 704.419 334.664C704.021 334.324 703.47 334.154 702.767 334.154C701.87 334.154 701.188 334.491 700.719 335.165C700.25 335.839 700.013 336.841 700.007 338.171V338.988C700.007 340.33 700.262 341.344 700.771 342.029C701.281 342.715 702.028 343.058 703.013 343.058C704.003 343.058 704.709 342.847 705.131 342.425V340.219H702.731V338.276H707.768V343.383ZM712.549 342.882H718.147V345H709.912V332.203H712.549V342.882Z" fill="white"/>
<path d="M677.579 296.661C678.405 294.693 681.945 294.573 681.381 291.952C680.758 289.038 677.714 289.421 675.504 288.579C667.237 285.425 660.691 289.864 654.378 293.604C643.502 300.033 632.184 303.068 619.61 301.265C615.843 300.635 611.975 301.351 608.682 303.285C603.775 306.215 598.619 308.543 592.832 308.828C589.014 309.016 587.962 311.367 587.428 314.544C585.925 323.557 584.294 332.57 584.767 341.815C585.519 356.041 592.501 365.85 605.811 370.394C627.494 377.777 649.282 384.762 671.16 391.559C677.999 393.684 681.682 388.464 685.68 383.883C689.679 379.301 687.184 376.372 684.516 372.767C679.052 365.414 674.159 357.678 670.897 349.041C669.552 346.742 668.304 344.377 666.854 342.146C653.709 321.95 655.069 314.799 677.579 296.661Z" fill="#1D3557"/>
<path d="M623.871 342.827L626.771 333.203H629.707L625.251 346H622.5L618.062 333.203H620.988L623.871 342.827ZM641.326 346H638.689L633.557 337.58V346H630.92V333.203H633.557L638.698 341.641V333.203H641.326V346Z" fill="white"/>
<path d="M643.833 570.975C629.163 564.058 616.394 572.139 603.076 576.984C599.757 578.125 596.374 579.07 592.945 579.815C588.826 580.784 585.249 578.426 582.686 576.188C580.123 573.949 583.753 571.411 585.173 569.428C588.796 564.463 587.338 560.002 583.813 556.254C573.915 545.739 576.651 534 579.89 522.058C580.942 518.175 582.844 516.665 586.932 517.979C590.136 519.098 593.552 519.477 596.924 519.086C600.295 518.696 603.534 517.547 606.398 515.726C610.156 513.383 613.049 514.269 615.417 517.619C619.498 523.417 625.029 525.032 631.756 523.68C633.063 523.425 634.837 522.929 635.731 523.575C647.877 531.837 660.736 525.948 673.31 525.58C684.756 525.242 695.361 526.331 702.673 536.921C705.364 540.835 710.302 541.796 714.616 543.336C717.757 544.432 721.034 546.017 720.764 549.772C720.508 553.663 717.134 554.624 713.639 554.925C711.226 555.127 708.776 556.194 706.454 555.916C686.785 553.588 669.371 560.821 651.988 568.361C649.56 569.435 646.907 570.051 643.833 570.975Z" fill="#1D3557"/>
<path d="M628.188 546.737C628.089 548.114 627.579 549.198 626.659 549.989C625.745 550.78 624.538 551.176 623.038 551.176C621.397 551.176 620.105 550.625 619.162 549.523C618.225 548.416 617.756 546.898 617.756 544.971V544.188C617.756 542.958 617.973 541.874 618.406 540.936C618.84 539.999 619.458 539.281 620.261 538.783C621.069 538.279 622.007 538.027 623.073 538.027C624.55 538.027 625.739 538.423 626.642 539.214C627.544 540.005 628.065 541.115 628.206 542.545H625.569C625.505 541.719 625.273 541.121 624.875 540.752C624.482 540.377 623.882 540.189 623.073 540.189C622.194 540.189 621.535 540.506 621.096 541.139C620.662 541.766 620.439 542.741 620.428 544.065V545.032C620.428 546.415 620.636 547.426 621.052 548.064C621.474 548.703 622.136 549.022 623.038 549.022C623.853 549.022 624.459 548.838 624.857 548.469C625.262 548.094 625.493 547.517 625.552 546.737H628.188ZM632.557 548.882H638.155V551H629.92V538.203H632.557V548.882Z" fill="white"/>
<path d="M739.463 434.152C736.892 440.581 738.997 446.98 744.325 452.846C746.58 455.355 746.843 458.412 742.544 459.606C734.442 461.859 731.376 468.101 729.452 475.514C726.551 486.652 725.859 487.336 715.623 481.853C701.524 474.304 687.236 474.77 672.491 478.586C670.927 478.991 669.364 479.449 667.778 479.727C657.828 481.47 656.415 480.418 660.871 471.548C667.56 458.224 666.395 446.763 657.707 434.745C651.319 425.905 653.002 420.941 662.344 415.721C664.125 414.786 665.68 413.475 666.901 411.878C668.123 410.281 668.981 408.437 669.417 406.475C670.995 400.399 673.881 395.652 680.224 393.429C683.013 392.445 685.673 390.53 686.921 387.781C690.859 379.091 696.368 381.945 701.411 385.986C707.258 390.665 713.158 394.578 721.019 394.18C723.274 394.067 724.236 395.397 725.025 397.387C728.745 406.936 733.255 416.159 738.508 424.959C740.011 427.52 739.485 430.239 739.463 434.152Z" fill="#1D3557"/>
<path d="M690.143 442V429.203H694.625C696.178 429.203 697.355 429.502 698.158 430.1C698.961 430.691 699.362 431.562 699.362 432.71C699.362 433.337 699.201 433.891 698.879 434.371C698.557 434.846 698.108 435.194 697.534 435.417C698.19 435.581 698.706 435.912 699.081 436.41C699.462 436.908 699.652 437.518 699.652 438.238C699.652 439.469 699.26 440.4 698.475 441.033C697.689 441.666 696.57 441.988 695.117 442H690.143ZM692.779 436.428V439.882H695.038C695.659 439.882 696.143 439.735 696.488 439.442C696.84 439.144 697.016 438.733 697.016 438.212C697.016 437.04 696.409 436.445 695.196 436.428H692.779ZM692.779 434.564H694.73C696.061 434.541 696.726 434.011 696.726 432.974C696.726 432.394 696.556 431.978 696.216 431.726C695.882 431.468 695.352 431.339 694.625 431.339H692.779V434.564ZM706.376 437.315H704.275V442H701.639V429.203H706.394C707.905 429.203 709.071 429.54 709.892 430.214C710.712 430.888 711.122 431.84 711.122 433.07C711.122 433.943 710.932 434.673 710.551 435.259C710.176 435.839 709.604 436.302 708.837 436.647L711.605 441.877V442H708.775L706.376 437.315ZM704.275 435.18H706.402C707.064 435.18 707.577 435.013 707.94 434.679C708.304 434.339 708.485 433.873 708.485 433.281C708.485 432.678 708.312 432.203 707.967 431.857C707.627 431.512 707.103 431.339 706.394 431.339H704.275V435.18Z" fill="white"/>
<path d="M815.416 512.512C812.553 520.24 805.353 524.266 800.325 530.154C798.416 532.408 796.439 534.571 794.493 536.771C788.247 542.877 785.654 550.013 787.826 558.748C789.083 563.714 790.047 568.75 790.712 573.829C791.644 581.25 793.365 588.926 784.97 593.95C781.964 595.745 781.393 599.208 782.204 602.663C783.061 606.336 783.978 610.008 784.655 613.719C786.481 623.678 779.98 629.198 770.232 626.051C763.821 623.986 758.958 619.652 754.592 614.845C748.406 608.086 742.101 601.326 736.622 594.003C732.781 588.858 728.655 587.664 723.454 590.571C716.916 594.243 711.535 594.431 706.529 587.889C703.711 584.194 699.555 583.931 694.782 584.802C683.148 586.913 672.385 580.784 668.319 570.802C667.109 567.843 666.884 565.913 670.529 564.666C679.187 561.707 687.59 558.177 697.187 559.221C702.837 559.728 708.526 559.584 714.143 558.793C719.99 558.042 724.266 554.955 724.431 548.323C724.499 545.709 725.1 543.599 727.686 542.367C738.253 537.312 739.711 527.924 739.11 517.732C738.756 511.768 738.185 505.076 734.202 500.885C722.673 488.74 733.45 478.939 735.615 467.275C741.056 471.841 743.995 477.346 749.97 479.292C752.382 480.088 752.397 482.754 752.555 484.85C753.201 493.066 758.718 495.267 765.73 496.116C776.444 497.49 787.253 497.977 798.047 497.573C801.565 497.438 804.338 497.483 803.97 502.56C803.128 514.472 803.331 514.472 815.416 512.512Z" fill="#1D3557"/>
<path d="M757.188 556.737C757.089 558.114 756.579 559.198 755.659 559.989C754.745 560.78 753.538 561.176 752.038 561.176C750.397 561.176 749.105 560.625 748.162 559.523C747.225 558.416 746.756 556.898 746.756 554.971V554.188C746.756 552.958 746.973 551.874 747.406 550.936C747.84 549.999 748.458 549.281 749.261 548.783C750.069 548.279 751.007 548.027 752.073 548.027C753.55 548.027 754.739 548.423 755.642 549.214C756.544 550.005 757.065 551.115 757.206 552.545H754.569C754.505 551.719 754.273 551.121 753.875 550.752C753.482 550.377 752.882 550.189 752.073 550.189C751.194 550.189 750.535 550.506 750.096 551.139C749.662 551.766 749.439 552.741 749.428 554.065V555.032C749.428 556.415 749.636 557.426 750.052 558.064C750.474 558.703 751.136 559.022 752.038 559.022C752.853 559.022 753.459 558.838 753.857 558.469C754.262 558.094 754.493 557.517 754.552 556.737H757.188ZM768.289 550.339H764.369V561H761.732V550.339H757.865V548.203H768.289V550.339Z" fill="white"/>
<path d="M585.098 495.695C585.512 475.288 595.057 468.574 615.161 474.485C620.805 476.167 626.442 478.112 632.477 475.416C633.591 474.861 634.854 474.677 636.081 474.89C637.307 475.104 638.433 475.704 639.294 476.603C648.703 486.712 660.285 485.353 671.746 482.213C688.424 477.639 704.274 478.255 719.193 487.606C731.218 495.117 741.221 518.993 733.037 533.256C727.656 542.622 713.316 544.259 705.462 534.623C692.437 518.648 675.933 521.487 659.443 523.965C653.566 524.852 648.418 525.723 643.217 522.336C641.676 521.329 639.647 520.203 637.956 520.39C628.419 521.464 620.144 520.06 613.733 511.806C611.914 509.455 608.104 510.814 605.406 512.361C589.337 521.585 585.527 511.821 585.068 498.947C585.061 497.836 585.091 496.747 585.098 495.695Z" fill="#1D3557"/>
<path d="M657.446 508H654.81V495.203H657.446V508ZM662.535 505.882H668.134V508H659.898V495.203H662.535V505.882Z" fill="white"/>
<path d="M581.303 345.113C584.617 362.951 595.523 371.4 610.614 375.846C626.908 380.668 643.127 385.733 659.27 391.041C662.863 392.212 669.59 392.257 668.973 396.351C668.162 401.706 667.335 408.293 661.901 412.078C660.578 412.994 659.053 413.618 657.692 414.497C650.928 418.815 648.936 424.441 652.176 431.809C654.455 436.702 657.077 441.428 660.022 445.951C663.539 451.63 663.69 457.007 659.699 462.475C655.862 467.71 652.925 473.549 651.011 479.75C647.321 479.292 645.051 476.828 642.676 474.74C639.797 472.209 636.295 470.587 633.003 471.946C623.579 475.859 615.319 471.157 607.277 468.303C601.685 466.328 601.174 459.29 602.497 453.823C603.361 450.225 603.955 447.506 600.558 445.441C593.794 441.347 592.434 435.091 593.193 427.933C594.004 420.265 591.314 416.502 582.904 416.382C570.691 416.202 570.217 415.263 568.767 402.795C567.715 393.729 562.852 386.091 559.447 377.904C557.892 374.149 556.794 369.815 562.356 369.154C573.81 367.795 577.117 359.849 579.169 350.378C579.469 349.101 580.168 347.899 581.303 345.113Z" fill="#1D3557"/>
<path d="M611.143 420V407.203H615.625C617.178 407.203 618.355 407.502 619.158 408.1C619.961 408.691 620.362 409.562 620.362 410.71C620.362 411.337 620.201 411.891 619.879 412.371C619.557 412.846 619.108 413.194 618.534 413.417C619.19 413.581 619.706 413.912 620.081 414.41C620.462 414.908 620.652 415.518 620.652 416.238C620.652 417.469 620.26 418.4 619.475 419.033C618.689 419.666 617.57 419.988 616.117 420H611.143ZM613.779 414.428V417.882H616.038C616.659 417.882 617.143 417.735 617.488 417.442C617.84 417.144 618.016 416.733 618.016 416.212C618.016 415.04 617.409 414.445 616.196 414.428H613.779ZM613.779 412.564H615.73C617.061 412.541 617.726 412.011 617.726 410.974C617.726 410.394 617.556 409.978 617.216 409.726C616.882 409.468 616.352 409.339 615.625 409.339H613.779V412.564ZM625.434 417.882H631.885V420H622.138V418.453L628.466 409.339H622.146V407.203H631.744V408.715L625.434 417.882Z" fill="white"/>
<path d="M510.836 382.231C511.105 382.199 511.377 382.215 511.64 382.276C525.755 388.284 539.005 384.409 552.052 378.693C554.682 377.536 556.186 378.31 557.102 380.728C560.432 389.471 565.685 397.425 565.918 407.376C566.129 416.254 569.774 419.747 579.627 419.491C588.646 419.251 590.983 422.826 590.014 430.892C589.262 437.134 590.81 442.752 596.5 446.425C599.07 448.085 600.378 449.872 598.799 453.087C598.138 454.424 597.822 456.579 598.446 457.796C603.023 466.674 597.83 469.28 590.878 473.568C577.124 482.01 562.258 483.505 546.994 484.729C544.348 484.94 542.89 484.046 542.161 481.65C541.305 478.818 540.305 476.017 539.651 473.14C536.51 459.306 529.264 448.085 517.006 441.017C507.131 435.316 501.787 426.867 498.398 416.615C496.962 412.273 495.669 407.88 494.324 403.508C490.446 390.86 497.548 381.772 510.836 382.231Z" fill="#1D3557"/>
<path d="M540.779 433.491V438H538.143V425.203H543.135C544.096 425.203 544.939 425.379 545.666 425.73C546.398 426.082 546.961 426.583 547.354 427.233C547.746 427.878 547.942 428.613 547.942 429.439C547.942 430.693 547.512 431.684 546.65 432.41C545.795 433.131 544.608 433.491 543.091 433.491H540.779ZM540.779 431.355H543.135C543.832 431.355 544.362 431.191 544.726 430.863C545.095 430.535 545.279 430.066 545.279 429.457C545.279 428.83 545.095 428.323 544.726 427.937C544.356 427.55 543.847 427.351 543.196 427.339H540.779V431.355ZM560.177 438H557.54V432.516H552.398V438H549.762V425.203H552.398V430.389H557.54V425.203H560.177V438Z" fill="white"/>
<path d="M555.885 595.325C546.197 598.922 538.366 605.427 530.234 611.495C527.055 613.869 523.515 615.769 520.14 617.879C510.701 619.599 508.461 617.616 510.911 607.988C512.414 601.979 512.189 596.902 508.709 591.87C507.018 589.429 507.334 586.943 508.438 584.201C511.167 577.442 513.203 570.397 516.187 563.765C520.328 554.564 517.856 547.053 511.587 540.016C505.319 532.978 497.375 528.539 488.018 524.611C501.419 516.207 515.127 516.349 529.204 518.497C532.331 518.978 531.985 520.796 532.083 523.087C532.661 537.162 543.026 544.68 552.375 552.814C554.63 554.752 556.659 554.188 558.53 551.793C559.91 550.127 561.528 548.674 563.333 547.481C568.211 544.079 573.006 540.97 575.666 549.967C576.418 552.438 578.364 554.647 580.093 556.727C583.851 561.233 584.813 565.439 580.378 570.314C578.124 572.83 576.162 576.097 579.973 579.485C583.039 582.211 579.349 582.819 578.116 584.111C572.044 590.465 562.995 590.976 555.885 595.325Z" fill="#1D3557"/>
<path d="M544.268 577.383C543.793 577.951 543.122 578.394 542.255 578.71C541.388 579.02 540.427 579.176 539.372 579.176C538.265 579.176 537.292 578.936 536.454 578.455C535.622 577.969 534.978 577.266 534.521 576.346C534.069 575.426 533.838 574.345 533.826 573.103V572.232C533.826 570.955 534.04 569.851 534.468 568.919C534.901 567.981 535.522 567.267 536.331 566.774C537.146 566.276 538.098 566.027 539.188 566.027C540.705 566.027 541.892 566.391 542.747 567.117C543.603 567.838 544.109 568.89 544.268 570.272H541.701C541.584 569.54 541.323 569.004 540.919 568.664C540.521 568.324 539.97 568.154 539.267 568.154C538.37 568.154 537.688 568.491 537.219 569.165C536.75 569.839 536.513 570.841 536.507 572.171V572.988C536.507 574.33 536.762 575.344 537.271 576.029C537.781 576.715 538.528 577.058 539.513 577.058C540.503 577.058 541.209 576.847 541.631 576.425V574.219H539.231V572.276H544.268V577.383ZM551.149 574.315H549.049V579H546.412V566.203H551.167C552.679 566.203 553.845 566.54 554.665 567.214C555.485 567.888 555.896 568.84 555.896 570.07C555.896 570.943 555.705 571.673 555.324 572.259C554.949 572.839 554.378 573.302 553.61 573.647L556.379 578.877V579H553.549L551.149 574.315ZM549.049 572.18H551.176C551.838 572.18 552.351 572.013 552.714 571.679C553.077 571.339 553.259 570.873 553.259 570.281C553.259 569.678 553.086 569.203 552.74 568.857C552.4 568.512 551.876 568.339 551.167 568.339H549.049V572.18Z" fill="white"/>
<path d="M450.327 538.506C459.076 538.829 466.975 536.711 472.874 529.831C476.369 525.753 480.661 526.399 484.787 527.51C494.794 530.18 503.723 535.891 510.34 543.854C514.849 549.194 516.353 554.94 513.346 561.789C510.34 568.639 508.085 575.902 505.342 582.925C504.335 585.523 502.892 588.798 504.636 590.661C513.301 599.966 502.809 612.006 509.393 621.53C510.1 622.544 508.123 623.558 507.026 624.301C499.728 629.251 491.626 631.872 483.291 628.447C468.14 622.228 452.815 617.842 436.235 619.149C423.977 620.118 422.895 609.67 419.513 602.047C417.469 597.443 417.003 592.163 415.402 587.318C414.463 584.487 415.56 583.225 417.852 582.399C420.648 581.4 423.511 580.611 426.322 579.657C435.897 576.405 437.205 574.227 436.228 564.336C435.544 557.373 436.499 550.29 434.582 543.418C433.906 540.962 435.431 540.241 437.588 539.715C441.735 538.591 446.043 538.182 450.327 538.506Z" fill="#1D3557"/>
<path d="M469.775 573.339H465.855V584H463.219V573.339H459.352V571.203H469.775V573.339ZM476.024 579.315H473.924V584H471.287V571.203H476.042C477.554 571.203 478.72 571.54 479.54 572.214C480.36 572.888 480.771 573.84 480.771 575.07C480.771 575.943 480.58 576.673 480.199 577.259C479.824 577.839 479.253 578.302 478.485 578.647L481.254 583.877V584H478.424L476.024 579.315ZM473.924 577.18H476.051C476.713 577.18 477.226 577.013 477.589 576.679C477.952 576.339 478.134 575.873 478.134 575.281C478.134 574.678 477.961 574.203 477.615 573.857C477.275 573.512 476.751 573.339 476.042 573.339H473.924V577.18Z" fill="white"/>
<path d="M515.383 514.059C505.492 513.608 494.782 515.403 485.32 522.2C482.412 524.288 478.624 525.069 477.346 520.826C472.386 504.415 463.6 488.763 465.321 470.902C467.207 451.104 468.395 431.035 479.052 413.25C481.54 409.104 481.134 404.432 480.518 399.821C480.277 398.018 478.368 395.247 482.118 395.141C484.659 395.066 488.071 393.189 489.311 397.83C491.197 404.853 493.407 411.8 495.707 418.703C499.119 428.947 504.643 437.434 514.308 443.255C531.594 453.642 537.93 470.294 539.11 489.484C539.11 489.747 539.02 490.017 539.05 490.28C539.696 496.837 536.449 507.209 532.504 511.152C529.505 514.081 529.505 514.081 515.383 514.059Z" fill="#1D3557"/>
<path d="M492.143 485V472.203H496.08C497.205 472.203 498.21 472.458 499.095 472.968C499.985 473.472 500.68 474.192 501.178 475.13C501.676 476.062 501.925 477.122 501.925 478.312V478.9C501.925 480.09 501.679 481.147 501.187 482.073C500.7 482.999 500.012 483.717 499.121 484.227C498.23 484.736 497.226 484.994 496.106 485H492.143ZM494.779 474.339V482.882H496.054C497.085 482.882 497.873 482.545 498.418 481.871C498.963 481.197 499.241 480.233 499.253 478.979V478.303C499.253 477.002 498.983 476.018 498.444 475.35C497.905 474.676 497.117 474.339 496.08 474.339H494.779ZM503.85 485V472.203H508.332C509.885 472.203 511.062 472.502 511.865 473.1C512.668 473.691 513.069 474.562 513.069 475.71C513.069 476.337 512.908 476.891 512.586 477.371C512.264 477.846 511.815 478.194 511.241 478.417C511.897 478.581 512.413 478.912 512.788 479.41C513.169 479.908 513.359 480.518 513.359 481.238C513.359 482.469 512.967 483.4 512.182 484.033C511.396 484.666 510.277 484.988 508.824 485H503.85ZM506.486 479.428V482.882H508.745C509.366 482.882 509.85 482.735 510.195 482.442C510.547 482.144 510.723 481.733 510.723 481.212C510.723 480.04 510.116 479.445 508.903 479.428H506.486ZM506.486 477.564H508.438C509.768 477.541 510.433 477.011 510.433 475.974C510.433 475.394 510.263 474.978 509.923 474.726C509.589 474.468 509.059 474.339 508.332 474.339H506.486V477.564Z" fill="white"/>
<path d="M453.514 373.961C446.066 375.861 439.617 373.751 435.709 366.451C432.906 364.52 430.824 361.861 426.751 361.561C415.079 360.682 408.6 366.503 404.76 379.452C401.085 391.829 402.956 404.673 400.01 416.945C399.078 420.813 398.725 423.983 400.393 427.685C404.512 436.781 404.151 445.373 396.861 453.087C394.681 455.385 393.201 458.389 391.6 461.183C390.796 462.573 390.149 464.743 392.562 464.939C405.083 465.998 410.667 476.783 419.152 483.49C423.09 486.607 424.488 490.438 424.413 495.447C424.165 508.306 427.848 520.45 431.929 532.49C432.741 534.901 433.297 537.455 436.694 536.321C442.511 534.383 448.501 535.569 454.393 535.149C469.605 534 476.504 524.521 470.492 511.175C460.188 488.38 461.037 465.359 465.426 441.483C467.854 428.271 474.407 416.787 477.827 404.109C477.131 402.939 476.898 401.552 477.173 400.219C477.173 400.219 477.173 400.174 477.173 400.159C475.813 393.459 473.107 387.315 469.793 381.096C465.757 373.563 461.187 372.001 453.514 373.961Z" fill="#1D3557"/>
<path d="M431.367 438.363H426.744L425.865 441H423.062L427.825 428.203H430.269L435.059 441H432.255L431.367 438.363ZM427.456 436.228H430.655L429.047 431.438L427.456 436.228ZM446.186 439.383C445.711 439.951 445.04 440.394 444.173 440.71C443.306 441.021 442.345 441.176 441.29 441.176C440.183 441.176 439.21 440.936 438.372 440.455C437.54 439.969 436.896 439.266 436.438 438.346C435.987 437.426 435.756 436.345 435.744 435.103V434.232C435.744 432.955 435.958 431.851 436.386 430.919C436.819 429.981 437.44 429.267 438.249 428.774C439.063 428.276 440.016 428.027 441.105 428.027C442.623 428.027 443.81 428.391 444.665 429.117C445.521 429.838 446.027 430.89 446.186 432.272H443.619C443.502 431.54 443.241 431.004 442.837 430.664C442.438 430.324 441.888 430.154 441.185 430.154C440.288 430.154 439.605 430.491 439.137 431.165C438.668 431.839 438.431 432.841 438.425 434.171V434.988C438.425 436.33 438.68 437.344 439.189 438.029C439.699 438.715 440.446 439.058 441.431 439.058C442.421 439.058 443.127 438.847 443.549 438.425V436.219H441.149V434.276H446.186V439.383Z" fill="white"/>
<path d="M549.173 358.782C546.212 354.929 542.657 352.541 537.449 353.419C536.234 353.594 534.996 353.504 533.819 353.155C532.643 352.806 531.555 352.207 530.632 351.399C525.296 346.945 520.944 339.908 512.301 345.3C511.881 345.571 510.798 344.895 510.047 344.549C501.607 340.846 494.384 320.515 498.563 312.253C502.576 304.299 502.005 298.621 494.97 294.408C488.958 290.788 482.119 287.137 474.445 290.652C469.781 292.778 464.664 293.717 459.549 293.386C456.137 293.206 452.033 294.303 451.612 298.644C450.515 309.557 442.428 313.71 434.078 317.781C429.862 322.242 429.922 329.423 424.083 332.953C416.341 337.632 421.272 344.564 421.647 350.468C421.956 355.23 424.075 358.97 430.29 358.782C433.515 358.692 435.89 361.614 437.468 364.595C442.225 370.191 447.719 372.181 455.25 370.131C463.179 367.968 469.207 370.882 472.491 379.144C474.129 383.282 477.293 386.82 479.766 390.628C485.29 392.227 489.597 390.44 493.437 386.301C500.547 378.655 509.22 376.124 518.99 380.375C526.01 383.44 532.346 382.253 539.178 379.752C555.554 373.743 555.629 373.954 549.173 358.782Z" fill="#1D3557"/>
<path d="M463.643 351V338.203H468.125C469.678 338.203 470.855 338.502 471.658 339.1C472.461 339.691 472.862 340.562 472.862 341.71C472.862 342.337 472.701 342.891 472.379 343.371C472.057 343.846 471.608 344.194 471.034 344.417C471.69 344.581 472.206 344.912 472.581 345.41C472.962 345.908 473.152 346.518 473.152 347.238C473.152 348.469 472.76 349.4 471.975 350.033C471.189 350.666 470.07 350.988 468.617 351H463.643ZM466.279 345.428V348.882H468.538C469.159 348.882 469.643 348.735 469.988 348.442C470.34 348.144 470.516 347.733 470.516 347.212C470.516 346.04 469.909 345.445 468.696 345.428H466.279ZM466.279 343.564H468.23C469.561 343.541 470.226 343.011 470.226 341.974C470.226 341.394 470.056 340.978 469.716 340.726C469.382 340.468 468.852 340.339 468.125 340.339H466.279V343.564ZM479.656 347.827L482.557 338.203H485.492L481.036 351H478.285L473.847 338.203H476.773L479.656 347.827Z" fill="white"/>
<path d="M550.849 356.747C548.985 352.338 545.874 349.664 540.884 350.265C535.465 350.911 531.632 348.56 528.212 344.684C524.627 340.614 520.554 337.632 514.879 341.26C514.318 341.61 513.673 341.803 513.012 341.817C512.35 341.832 511.697 341.668 511.122 341.342C505.432 338.804 498.135 320.492 501.231 315.055C504.989 308.528 506.83 303.038 501.479 295.872C498.848 292.335 501.644 286.108 505.237 282.481C508.408 279.281 512.534 279.476 516.42 281.857C520.539 284.381 523.552 288.497 528.325 290.067C533.421 294.633 539.005 294.611 544.732 291.569C549.94 288.775 555.569 286.394 560.034 282.661C565.159 278.372 566.798 280.671 569.007 285.2C572.81 292.891 576.425 300.784 583.325 306.417C583.874 306.806 584.31 307.335 584.585 307.95C584.86 308.564 584.964 309.241 584.888 309.91C582.783 327.252 579.499 344.354 572.036 360.232C568.834 367.051 557.328 366.931 553.623 360.637C552.788 359.285 551.774 358.039 550.849 356.747Z" fill="#1D3557"/>
<path d="M543.688 321.737C543.589 323.114 543.079 324.198 542.159 324.989C541.245 325.78 540.038 326.176 538.538 326.176C536.897 326.176 535.605 325.625 534.662 324.523C533.725 323.416 533.256 321.898 533.256 319.971V319.188C533.256 317.958 533.473 316.874 533.906 315.937C534.34 314.999 534.958 314.281 535.761 313.783C536.569 313.279 537.507 313.027 538.573 313.027C540.05 313.027 541.239 313.423 542.142 314.214C543.044 315.005 543.565 316.115 543.706 317.545H541.069C541.005 316.719 540.773 316.121 540.375 315.752C539.982 315.377 539.382 315.189 538.573 315.189C537.694 315.189 537.035 315.506 536.596 316.139C536.162 316.766 535.939 317.741 535.928 319.065V320.032C535.928 321.415 536.136 322.426 536.552 323.064C536.974 323.703 537.636 324.022 538.538 324.022C539.353 324.022 539.959 323.838 540.357 323.469C540.762 323.094 540.993 322.517 541.052 321.737H543.688ZM550.148 322.827L553.049 313.203H555.984L551.528 326H548.777L544.339 313.203H547.266L550.148 322.827Z" fill="white"/>
<path d="M530.279 288.399C526.664 285.598 523.154 282.653 519.426 280.01C510.851 273.934 502.373 276.405 499.134 286.401C497.789 290.6 495.775 291.111 492.753 289.338C484.719 284.621 476.828 285.703 468.748 289.053C465.434 290.427 462.315 292.192 462.984 285.417C463.547 279.664 457.866 276.878 453.672 274.151C448.411 270.711 443.503 267.692 449.546 260.94C449.736 260.736 449.841 260.468 449.839 260.189C447.945 245.453 459.046 239.835 468.666 233.038C471.72 230.807 474.515 228.242 477 225.392C484.291 217.31 484.982 211.362 478.105 203.145C472.656 196.618 471.897 190.79 475.775 183.317C479.09 176.955 479.436 169.745 477.376 162.812C475.633 156.969 478.744 153.544 482.727 150.668C487.282 147.378 490.183 150.923 492.934 153.957C497.608 159.102 502.967 162.97 510.152 163.563C512.211 163.721 514.293 164.187 514.248 166.5C514.023 176.797 524.447 184.03 520.794 196.19C518.344 204.347 525.304 212.909 530.565 220.134C532.586 222.891 535.923 222.312 538.832 222.23C542.252 222.125 544.093 223.161 542.996 226.931C541.432 229.064 540.388 231.753 542.635 233.511C547.896 237.627 547.663 242.944 547.633 248.78C547.633 256.208 551.248 261.946 558.831 263.719C566.272 265.461 565.084 270.756 563.341 275.03C560.222 282.774 538.419 291.08 530.279 288.399Z" fill="#1D3557"/>
<path d="M501.558 253H498.921V247.516H493.779V253H491.143V240.203H493.779V245.389H498.921V240.203H501.558V253ZM508.606 248.315H506.506V253H503.869V240.203H508.624C510.136 240.203 511.302 240.54 512.122 241.214C512.942 241.888 513.353 242.84 513.353 244.07C513.353 244.943 513.162 245.673 512.781 246.259C512.406 246.839 511.835 247.302 511.067 247.647L513.836 252.877V253H511.006L508.606 248.315ZM506.506 246.18H508.633C509.295 246.18 509.808 246.013 510.171 245.679C510.534 245.339 510.716 244.873 510.716 244.281C510.716 243.678 510.543 243.203 510.197 242.857C509.857 242.512 509.333 242.339 508.624 242.339H506.506V246.18Z" fill="white"/>
<path d="M365.611 169.362C367.384 160.634 363.574 155.842 359.297 151.073C350.376 141.167 350.466 136.33 358.681 126.055C362.709 121 365.986 115.36 369.789 110.117C378.5 98.1 386.196 95.0957 400.506 98.8511C410.524 101.487 419.535 102.216 428.907 95.5764C434.514 91.6032 442.751 92.5721 449.343 94.5024C457.941 97.0185 459.015 101.307 454.077 108.337C451.214 112.408 450.087 116.419 451.687 121.241C452.875 124.808 453.762 128.488 454.694 132.146C458.174 145.996 455.701 151.636 442.954 156.886C435.672 159.891 430.08 164.705 425.255 170.631C421.753 174.935 418.138 178.277 411.907 178.435C405.955 178.577 402.723 183.775 399.461 187.951C396.455 191.751 394.388 196.213 391.803 200.321C387.955 206.442 379.883 207.546 377.696 201.282C373.78 190.121 367.309 179.719 365.611 169.362Z" fill="#1D3557"/>
<path d="M394.143 147V134.203H398.625C400.178 134.203 401.355 134.502 402.158 135.1C402.961 135.691 403.362 136.562 403.362 137.71C403.362 138.337 403.201 138.891 402.879 139.371C402.557 139.846 402.108 140.194 401.534 140.417C402.19 140.581 402.706 140.912 403.081 141.41C403.462 141.908 403.652 142.518 403.652 143.238C403.652 144.469 403.26 145.4 402.475 146.033C401.689 146.666 400.57 146.988 399.117 147H394.143ZM396.779 141.428V144.882H399.038C399.659 144.882 400.143 144.735 400.488 144.442C400.84 144.144 401.016 143.733 401.016 143.212C401.016 142.04 400.409 141.445 399.196 141.428H396.779ZM396.779 139.564H398.73C400.061 139.541 400.726 139.011 400.726 137.974C400.726 137.394 400.556 136.978 400.216 136.726C399.882 136.468 399.352 136.339 398.625 136.339H396.779V139.564ZM416.045 147H413.408L408.275 138.58V147H405.639V134.203H408.275L413.417 142.641V134.203H416.045V147Z" fill="white"/>
<path d="M360.921 238.288C354.157 227.119 360.598 208.087 372.435 203.919C374.945 203.04 375.674 205.255 377.162 206.112C385.354 210.798 390.57 209.416 395.2 201.282C398.259 195.89 401.062 190.294 405.722 186.021C407.3 184.571 409.141 182.092 410.742 182.19C421.527 182.821 426.187 174.484 432.132 168.153C438.077 161.821 446.028 158.434 453.927 156.331C466.599 152.951 477.406 164.592 474.28 177.165C473.838 179.282 473.136 181.335 472.19 183.279C468.094 190.872 469.244 197.467 474.618 204.189C481.54 212.856 480.999 216.311 473.295 224.378C467.831 230.101 461.39 234.555 454.686 238.648C450.402 241.254 447.922 245.002 447.531 249.779C447.103 255.194 446.832 260.294 443.112 264.936C440.572 268.12 443.646 270.899 446.269 272.957C449.876 275.789 453.619 278.455 457.197 281.332C460.398 283.9 460.496 286.379 457.121 289.218C445.75 298.786 428.156 294.994 422.249 281.489C419.588 275.391 415.207 270.922 408.525 273.047C401.844 275.173 396.838 274.467 392.329 269.134C391.577 268.27 389.916 268.195 388.676 267.76C386.564 267.166 383.859 266.55 382.566 268.203C377.177 275.09 373.404 270.088 369.699 266.603C366.806 263.884 364.498 260.534 361.898 257.493C359.095 254.203 357.659 251.101 361.184 247.12C363.484 244.491 363.251 241.179 360.921 238.288Z" fill="#1D3557"/>
<path d="M405.588 224.203L408.875 233.484L412.145 224.203H415.607V237H412.962V233.502L413.226 227.464L409.771 237H407.961L404.516 227.473L404.779 233.502V237H402.143V224.203H405.588ZM424.546 233.643C424.546 233.145 424.37 232.764 424.019 232.5C423.667 232.23 423.034 231.949 422.12 231.656C421.206 231.357 420.482 231.064 419.949 230.777C418.496 229.992 417.77 228.935 417.77 227.604C417.77 226.913 417.963 226.298 418.35 225.759C418.742 225.214 419.302 224.789 420.028 224.484C420.761 224.18 421.581 224.027 422.489 224.027C423.403 224.027 424.218 224.194 424.933 224.528C425.647 224.856 426.201 225.322 426.594 225.926C426.992 226.529 427.191 227.215 427.191 227.982H424.555C424.555 227.396 424.37 226.942 424.001 226.62C423.632 226.292 423.113 226.128 422.445 226.128C421.801 226.128 421.3 226.266 420.942 226.541C420.585 226.811 420.406 227.168 420.406 227.613C420.406 228.029 420.614 228.378 421.03 228.659C421.452 228.94 422.07 229.204 422.885 229.45C424.385 229.901 425.478 230.461 426.163 231.129C426.849 231.797 427.191 232.629 427.191 233.625C427.191 234.732 426.772 235.603 425.935 236.235C425.097 236.862 423.969 237.176 422.551 237.176C421.566 237.176 420.67 236.997 419.861 236.64C419.053 236.276 418.435 235.781 418.007 235.154C417.585 234.527 417.374 233.801 417.374 232.975H420.02C420.02 234.387 420.863 235.093 422.551 235.093C423.178 235.093 423.667 234.967 424.019 234.715C424.37 234.457 424.546 234.1 424.546 233.643Z" fill="white"/>
<path d="M297.053 38.6977C301.645 35.6934 304.41 38.0968 307.041 39.5915C312.219 42.5207 316.932 42.8511 322.193 39.4788C327.266 36.2342 332.602 35.1076 337.517 40.5228C339.524 42.731 342.545 44.0754 345.649 42.9638C352.345 40.5604 357.854 42.9638 362.973 46.8844C371.24 53.2234 379.733 54.8908 389.277 49.5883C399.499 43.9026 409.089 44.9842 418.769 51.8415C429.937 59.7277 442.752 64.835 455.423 70.8136C441.805 81.3286 441.805 81.3286 444.337 90.4991C434.89 89.6054 426.645 92.0989 418.649 96.8833C414.711 99.2416 409.164 97.4616 404.369 96.2749C384.385 91.3479 376.223 94.4873 364.468 111.447C361.552 115.66 358.801 120.001 355.818 124.162C352.834 128.323 349.287 129.254 344.702 126.22C332.346 118.033 318.871 113.58 303.952 111.822C294.475 110.695 289.732 100.984 283.825 94.2245C281.969 92.0914 285.561 89.4702 287.342 87.7427C292.213 83.0034 290.815 79.4809 285.99 75.8758C282.983 73.6226 277.722 71.9402 280.841 66.6827C283.472 62.1762 287.508 65.4734 291.01 65.9316C293.944 66.3736 296.915 66.5245 299.879 66.3822C305.718 65.9466 309.1 61.8758 311.024 57.0013C312.948 52.1269 310.07 48.1612 306.312 45.1569C303.644 42.9788 300.638 41.1762 297.053 38.6977Z" fill="#1D3557"/>
<path d="M330.588 75.2031L333.875 84.4844L337.145 75.2031H340.607V88H337.962V84.502L338.226 78.4639L334.771 88H332.961L329.516 78.4727L329.779 84.502V88H327.143V75.2031H330.588ZM346.355 75.2031L349.643 84.4844L352.912 75.2031H356.375V88H353.729V84.502L353.993 78.4639L350.539 88H348.729L345.283 78.4727L345.547 84.502V88H342.91V75.2031H346.355Z" fill="white"/>
<path d="M236.003 209.101C233.44 203.979 234.718 189.265 238.04 185.69C239.543 184.098 240.986 185.187 242.421 185.743C247.186 187.613 251.868 189.716 256.701 191.361C264.217 193.922 271.394 194.74 277.234 187.402C279.661 184.346 283.419 184.744 287.004 185.502C291.258 186.404 295.519 186.651 299.728 184.924C305.448 182.573 308.319 178.615 307.327 172.306C306.831 169.121 306.207 165.952 305.711 162.767C304.876 157.405 306.68 154.002 311.836 151.193C321.306 146.041 330.204 139.83 336.856 131.034C338.359 129.007 339.967 126.776 342.643 129.157C344.995 131.245 350.542 130.216 349.61 135.443C348.144 143.705 352.188 149.331 357.674 154.588C360.004 156.841 362.897 159.553 362.514 162.722C361.297 172.742 365.52 180.831 369.812 189.31C372.893 195.386 372.615 201.635 365.528 206.014C361.432 208.56 358.508 212.593 356.254 217.047C351.053 227.202 351.519 231.212 359.26 240.33C359.485 248.697 353.743 250.523 347.145 251.274C331.715 253.039 318.044 247.601 304.689 240.849C299.946 238.319 294.974 236.246 289.838 234.66C283.179 232.752 277.692 234.382 274.31 239.917C270.552 246.076 266.043 245.971 260.669 243.282C254.657 240.278 248.907 236.77 242.902 233.744C240.114 232.339 240.076 230.657 240.648 227.9C242.015 220.983 241.204 214.441 236.003 209.101Z" fill="#1D3557"/>
<path d="M309.688 208.737C309.589 210.114 309.079 211.198 308.159 211.989C307.245 212.78 306.038 213.176 304.538 213.176C302.897 213.176 301.605 212.625 300.662 211.523C299.724 210.416 299.256 208.898 299.256 206.971V206.188C299.256 204.958 299.473 203.874 299.906 202.937C300.34 201.999 300.958 201.281 301.761 200.783C302.569 200.279 303.507 200.027 304.573 200.027C306.05 200.027 307.239 200.423 308.141 201.214C309.044 202.005 309.565 203.115 309.706 204.545H307.069C307.005 203.719 306.773 203.121 306.375 202.752C305.982 202.377 305.382 202.189 304.573 202.189C303.694 202.189 303.035 202.506 302.596 203.139C302.162 203.766 301.939 204.741 301.928 206.065V207.032C301.928 208.415 302.136 209.426 302.552 210.064C302.974 210.703 303.636 211.022 304.538 211.022C305.352 211.022 305.959 210.838 306.357 210.469C306.762 210.094 306.993 209.517 307.052 208.737H309.688ZM316.579 200.203H319.216V209.062C319.216 209.877 319.034 210.598 318.671 211.225C318.313 211.846 317.807 212.326 317.15 212.666C316.494 213.006 315.753 213.176 314.927 213.176C313.573 213.176 312.518 212.833 311.763 212.147C311.007 211.456 310.629 210.48 310.629 209.221H313.283C313.283 209.848 313.415 210.311 313.679 210.609C313.942 210.908 314.358 211.058 314.927 211.058C315.431 211.058 315.832 210.885 316.131 210.539C316.43 210.193 316.579 209.701 316.579 209.062V200.203Z" fill="white"/>
<path d="M296.188 63.4906C293.31 62.8146 290.446 62.0786 287.553 61.4627C283.9 60.7116 279.992 59.1644 277.895 64.1065C275.798 69.0485 276.152 73.1194 281.134 76.7245C287.493 81.2835 287.493 84.5807 282.247 88.291C279.661 90.1236 277.076 89.1698 274.483 88.5614C264.886 86.3082 260.774 89.6279 261.195 99.512C261.428 104.897 262.285 110.26 262.405 115.638C262.563 122.96 258.129 126.19 252.169 121.999C243.969 116.231 236.521 116.171 228.209 120.677C225.759 122.007 223.316 121.939 220.633 120.197C217.18 118.095 213.53 116.334 209.736 114.939C204.165 112.788 199.533 108.739 196.658 103.508C193.366 97.8672 191.495 90.9949 184.25 88.1558C181.304 86.9917 183.822 84.761 185.287 84.1C193.554 80.3447 199.965 74.1333 206.85 68.5303C210.096 65.8865 213.403 65.2556 217.131 68.0421C221.197 71.0464 224.534 70.7234 228.111 66.2996C236.228 56.3179 247.043 48.8672 257.002 41.011C262.263 36.8501 269.523 34.4617 274.288 28.8662C275.618 27.3115 276.896 27.8222 278.519 28.7085C288.38 34.0861 295.595 42.9413 305.154 48.7396C307.98 50.452 308.649 53.7417 307.229 56.6784C305.147 61.1247 301.6 63.8661 296.188 63.4906Z" fill="#1D3557"/>
<path d="M229.278 94.6426C229.278 94.1445 229.102 93.7637 228.751 93.5C228.399 93.2305 227.766 92.9492 226.852 92.6562C225.938 92.3574 225.215 92.0645 224.682 91.7773C223.228 90.9922 222.502 89.9346 222.502 88.6045C222.502 87.9131 222.695 87.2979 223.082 86.7588C223.474 86.2139 224.034 85.7891 224.761 85.4844C225.493 85.1797 226.313 85.0273 227.222 85.0273C228.136 85.0273 228.95 85.1943 229.665 85.5283C230.38 85.8564 230.933 86.3223 231.326 86.9258C231.724 87.5293 231.924 88.2148 231.924 88.9824H229.287C229.287 88.3965 229.102 87.9424 228.733 87.6201C228.364 87.292 227.846 87.1279 227.178 87.1279C226.533 87.1279 226.032 87.2656 225.675 87.541C225.317 87.8105 225.139 88.168 225.139 88.6133C225.139 89.0293 225.347 89.3779 225.763 89.6592C226.184 89.9404 226.803 90.2041 227.617 90.4502C229.117 90.9014 230.21 91.4609 230.895 92.1289C231.581 92.7969 231.924 93.6289 231.924 94.625C231.924 95.7324 231.505 96.6025 230.667 97.2354C229.829 97.8623 228.701 98.1758 227.283 98.1758C226.299 98.1758 225.402 97.9971 224.594 97.6396C223.785 97.2764 223.167 96.7812 222.739 96.1543C222.317 95.5273 222.106 94.8008 222.106 93.9746H224.752C224.752 95.3867 225.596 96.0928 227.283 96.0928C227.91 96.0928 228.399 95.9668 228.751 95.7148C229.102 95.457 229.278 95.0996 229.278 94.6426ZM237.162 85.2031L240.449 94.4844L243.719 85.2031H247.182V98H244.536V94.502L244.8 88.4639L241.346 98H239.535L236.09 88.4727L236.353 94.502V98H233.717V85.2031H237.162Z" fill="white"/>
<path d="M266.021 115.33C265.667 110.493 265.134 105.656 265.013 100.819C264.938 97.4391 263.788 92.9627 267.727 91.4005C271.965 89.7181 276.219 91.7159 279.406 94.9155C284.163 99.6998 288.861 104.567 293.265 109.667C297.293 114.331 302.163 116.374 308.229 116.291C316.548 116.186 324.011 119.295 331.482 122.54C336.841 124.831 336.164 127.189 332.985 130.674C326.897 137.314 320.043 143.375 311.979 146.987C302.051 151.434 301.457 158.682 302.832 167.469C304.884 180.771 302.081 183.489 288.259 181.965C282.495 181.334 277.166 181.394 272.905 186.734C269.418 191.105 264.134 190.489 259.377 188.777C252.763 186.434 246.322 183.632 239.768 181.116C238.636 180.696 237.606 180.04 236.748 179.19C235.89 178.34 235.223 177.317 234.793 176.189C232.929 171.855 229.727 168.445 226.052 165.674C220.31 161.4 214.493 157.525 219.386 149.015C219.882 148.136 219.048 146.432 218.687 145.147C215.718 134.505 219.438 128.143 229.494 123.734C237.01 120.437 243.023 120.182 250.35 124.891C259.144 130.554 266.968 125.259 266.021 115.33Z" fill="#1D3557"/>
<path d="M266.778 153.643C266.778 153.145 266.603 152.764 266.251 152.5C265.899 152.23 265.267 151.949 264.353 151.656C263.438 151.357 262.715 151.064 262.182 150.777C260.729 149.992 260.002 148.935 260.002 147.604C260.002 146.913 260.195 146.298 260.582 145.759C260.975 145.214 261.534 144.789 262.261 144.484C262.993 144.18 263.813 144.027 264.722 144.027C265.636 144.027 266.45 144.194 267.165 144.528C267.88 144.856 268.434 145.322 268.826 145.926C269.225 146.529 269.424 147.215 269.424 147.982H266.787C266.787 147.396 266.603 146.942 266.233 146.62C265.864 146.292 265.346 146.128 264.678 146.128C264.033 146.128 263.532 146.266 263.175 146.541C262.817 146.811 262.639 147.168 262.639 147.613C262.639 148.029 262.847 148.378 263.263 148.659C263.685 148.94 264.303 149.204 265.117 149.45C266.617 149.901 267.71 150.461 268.396 151.129C269.081 151.797 269.424 152.629 269.424 153.625C269.424 154.732 269.005 155.603 268.167 156.235C267.329 156.862 266.201 157.176 264.783 157.176C263.799 157.176 262.902 156.997 262.094 156.64C261.285 156.276 260.667 155.781 260.239 155.154C259.817 154.527 259.606 153.801 259.606 152.975H262.252C262.252 154.387 263.096 155.093 264.783 155.093C265.41 155.093 265.899 154.967 266.251 154.715C266.603 154.457 266.778 154.1 266.778 153.643ZM276.376 144.203H279.013V153.062C279.013 153.877 278.831 154.598 278.468 155.225C278.11 155.846 277.604 156.326 276.947 156.666C276.291 157.006 275.55 157.176 274.724 157.176C273.37 157.176 272.315 156.833 271.56 156.147C270.804 155.456 270.426 154.48 270.426 153.221H273.08C273.08 153.848 273.212 154.311 273.476 154.609C273.739 154.908 274.155 155.058 274.724 155.058C275.228 155.058 275.629 154.885 275.928 154.539C276.227 154.193 276.376 153.701 276.376 153.062V144.203Z" fill="white"/>
<path d="M187.151 359.496C184.708 362.89 181.394 365.084 177.501 362.77C169.534 358.039 166.227 362.147 163.973 369.057C163.586 370.035 163.134 370.986 162.62 371.903C160.824 372.346 160.004 371.077 159.411 370.048C155.518 363.191 150.354 364.122 145.281 368.095C140.208 372.069 135.661 373.556 131.001 367.51C128.747 364.603 125.741 365.377 122.99 367.044C117.609 370.273 110.822 374.014 109.401 379.226C107.568 385.986 108.026 393.264 103.389 399.347C103.081 399.753 105.734 402.622 107.222 404.132C109.702 406.64 112.227 409.059 113.505 412.461C114.176 414.104 114.352 415.907 114.012 417.648C113.671 419.389 112.829 420.993 111.588 422.263C109.086 424.891 105.989 423.014 103.411 421.587C87.6285 412.694 72.5972 402.9 59.7679 389.831C54.9804 384.957 48.2539 382.201 44.9245 375.486C42.3015 370.228 36.2965 366.383 39.7913 359.045C40.6781 357.19 38.3934 355.177 37.3412 353.292C34.3349 347.892 28.9762 342.341 29.0739 336.903C29.2543 322.25 18.4843 317.691 9.08975 311.682C-0.101913 305.779 -1.89064 297.893 4.75321 289.451C11.3971 281.009 12.9754 280.535 23.3094 285.575C25.5641 286.694 26.7441 286.371 27.8564 284.366C29.1641 282.015 30.5245 279.687 31.8547 277.351C37.1608 277.907 39.2501 282.24 41.8355 285.928C44.9245 290.322 47.9383 294.806 50.8543 299.267C58.7909 311.412 72.1613 313.936 84.1037 316.82C90.5671 318.397 98.6991 310.21 106.899 315.761C107.237 315.994 109.371 314.491 109.905 313.425C113.768 305.246 117.654 307.138 120.968 313.553C127.649 326.501 140.058 323.835 149.813 321.942C157.622 320.44 163.913 321.191 170.474 323.88C179.102 327.447 185.603 325.525 190.541 317.744C198.996 318.119 203.024 322.385 201.423 330.024C200.281 335.476 201.972 340.02 204.317 344.624C205.88 347.696 208.465 351.024 206.293 354.351C203.866 358.069 199.484 356.784 195.862 356.386C192.239 355.988 188.789 354.862 187.151 359.496Z" fill="#1D3557"/>
<path d="M91.7754 344.339H87.8555V355H85.2188V344.339H81.3516V342.203H91.7754V344.339ZM96.7324 342.203L100.02 351.484L103.289 342.203H106.752V355H104.106V351.502L104.37 345.464L100.916 355H99.1055L95.6602 345.473L95.9238 351.502V355H93.2871V342.203H96.7324Z" fill="white"/>
<path d="M189.24 238.212C183.619 233.173 177.756 228.388 172.465 223.033C168.249 218.775 162.59 224.01 160.403 221.877C157.472 219.03 156.111 214.546 151.188 213.915C147.942 213.502 144.605 213.547 141.629 215.012C132.482 219.518 123.456 217.423 114.399 214.854C110.446 213.735 107.289 212.173 111.784 207.974C119.826 200.464 123.29 190.467 126.815 180.545C130.385 170.428 135.36 161.378 143.748 154.378C149.801 149.302 154.024 142.385 155.773 134.685C157.133 129.134 159.125 123.847 163.634 119.904C166.318 117.553 167.039 114.488 166.385 111.063C165.431 106.091 167.452 102.171 170.496 98.4605C178.658 88.5238 187.256 90.2663 190.969 100.278C194.727 110.5 202.641 116.591 213.027 120.144C221.257 122.96 221.235 124.245 215.568 131.027C215.395 131.237 215.215 131.44 215.027 131.628C208.834 137.757 216.394 143.179 215.838 148.797C215.26 154.671 210.878 160.439 219.198 164.683C222.903 166.575 226.067 170.008 228.72 173.35C233.673 179.584 236.025 186.591 231.832 194.312C228.435 200.554 228.758 206.157 234.312 211.031C235.605 215.342 238.626 219.128 237.852 224.07C237.431 226.781 237.296 230.679 235.221 231.385C227.908 233.894 225.21 238.513 226.037 245.896C226.217 247.511 224.534 247.871 223.136 247.954C221.738 248.037 220.025 247.541 219.16 248.209C206.677 257.973 200.146 247.353 192.457 240.601C191.457 239.722 190.315 239.001 189.24 238.212Z" fill="#1D3557"/>
<path d="M171.143 188V175.203H175.625C177.178 175.203 178.355 175.502 179.158 176.1C179.961 176.691 180.362 177.562 180.362 178.71C180.362 179.337 180.201 179.891 179.879 180.371C179.557 180.846 179.108 181.194 178.534 181.417C179.19 181.581 179.706 181.912 180.081 182.41C180.462 182.908 180.652 183.518 180.652 184.238C180.652 185.469 180.26 186.4 179.475 187.033C178.689 187.666 177.57 187.988 176.117 188H171.143ZM173.779 182.428V185.882H176.038C176.659 185.882 177.143 185.735 177.488 185.442C177.84 185.144 178.016 184.733 178.016 184.212C178.016 183.04 177.409 182.445 176.196 182.428H173.779ZM173.779 180.564H175.73C177.061 180.541 177.726 180.011 177.726 178.974C177.726 178.394 177.556 177.978 177.216 177.726C176.882 177.468 176.352 177.339 175.625 177.339H173.779V180.564ZM193.054 188H190.417V182.516H185.275V188H182.639V175.203H185.275V180.389H190.417V175.203H193.054V188Z" fill="white"/>
<path d="M189.03 316.264C182.792 322.581 175.975 323.219 167.941 319.449C162.169 316.745 156.089 314.807 149.558 318.998C146.799 320.763 142.831 319.531 139.344 318.375C136.608 317.466 133.918 312.741 130.325 317.759C129.303 319.193 128.386 316.677 127.619 315.866C125.778 313.898 124.11 311.765 122.426 309.655C115.662 301.167 115.136 301.047 108.62 309.572C106.493 312.351 104.862 312.659 102.014 310.894C99.1651 309.129 95.6403 306.049 92.5889 309.602C87.4331 315.611 82.6532 311.983 76.8736 310.969C60.9103 308.167 52.7558 297.097 45.1425 284.749C43.3325 281.768 42.5289 278.284 42.8502 274.812C43.1809 267.775 46.6757 265.987 52.9437 267.805C55.5366 268.556 58.1671 269.149 60.7525 269.923C67.7571 272.011 73.0557 270.163 77.8281 264.327C87.3054 252.746 95.768 240.496 101.239 226.646C104.682 217.949 109.559 214.479 117.654 219.045C126.116 223.822 133.73 220.923 141.651 218.565C148.656 216.477 155.179 214.929 156.855 225.257C157.366 228.359 160.328 227.96 161.951 226.496C166.551 222.327 169.617 225.197 173.037 228.156C177.719 232.212 182.589 236.042 187.384 239.97C191.841 245.768 198.552 249.313 202.739 255.42C204.58 258.108 206.992 258.191 209.721 256.171C211.867 254.535 214.229 253.203 216.74 252.213C225.526 248.945 229.239 251.311 230.058 260.347C230.178 261.691 230.404 263.02 230.592 264.357C232.358 277.186 231.343 278.207 218.394 277.877C212.734 277.726 208.766 279.296 207.872 286.199C206.835 294.46 206.549 302.88 203.483 310.804C201.979 314.747 200.536 317.924 195.576 314.439C192.946 312.591 190.458 312.967 189.03 316.264Z" fill="#1D3557"/>
<path d="M140.367 275.363H135.744L134.865 278H132.062L136.825 265.203H139.269L144.059 278H141.255L140.367 275.363ZM136.456 273.228H139.655L138.047 268.438L136.456 273.228ZM149.991 273.315H147.891V278H145.254V265.203H150.009C151.521 265.203 152.687 265.54 153.507 266.214C154.327 266.888 154.737 267.84 154.737 269.07C154.737 269.943 154.547 270.673 154.166 271.259C153.791 271.839 153.22 272.302 152.452 272.647L155.221 277.877V278H152.391L149.991 273.315ZM147.891 271.18H150.018C150.68 271.18 151.192 271.013 151.556 270.679C151.919 270.339 152.101 269.873 152.101 269.281C152.101 268.678 151.928 268.203 151.582 267.857C151.242 267.512 150.718 267.339 150.009 267.339H147.891V271.18Z" fill="white"/>
<path d="M177.659 478.458C169.572 483.558 170.474 492.939 166.986 501.26C163.168 493.231 156.713 492.924 149.28 492.646C141.313 492.338 136.811 483.926 129.453 481.214C126.996 480.306 125.117 477.835 122.689 476.918C116.962 474.785 114.783 470.91 115.542 465.029C115.949 462.619 115.6 460.142 114.542 457.939C110.784 450.563 112.325 443.788 117.27 437.6C121.028 432.943 120.945 428.805 118.999 422.818C116.361 414.707 116.113 405.889 108.342 400.286C108.152 400.092 108.021 399.847 107.966 399.58C107.44 398.078 108.62 397.132 109.259 395.998C114.181 387.233 111.566 374.051 124.718 370.033C127.725 369.124 129.363 370.371 131.039 372.181C135.406 376.883 139.855 376.53 144.53 372.662C149.385 368.651 153.834 366.511 158.201 373.758C160.966 378.355 164.762 377.769 166.115 372.549C168.114 364.821 171.992 363.356 179.012 366.593C183.852 368.846 187.331 366.593 188.925 361.539C198.763 357.535 206.278 359.12 212.561 366.428C220.701 375.907 225.338 385.956 225.188 399.363C225.098 409.179 224.925 417.584 218.724 425.462C217.221 427.355 216.755 430.72 217.033 433.221C218.206 443.954 213.065 452.546 208.127 461.221C203.189 469.896 196.899 476.445 185.633 475.236C184.138 475.04 182.619 475.233 181.221 475.798C179.824 476.362 178.597 477.279 177.659 478.458Z" fill="#1D3557"/>
<path d="M167.188 427.737C167.089 429.114 166.579 430.198 165.659 430.989C164.745 431.78 163.538 432.176 162.038 432.176C160.397 432.176 159.105 431.625 158.162 430.523C157.225 429.416 156.756 427.898 156.756 425.971V425.188C156.756 423.958 156.973 422.874 157.406 421.937C157.84 420.999 158.458 420.281 159.261 419.783C160.069 419.279 161.007 419.027 162.073 419.027C163.55 419.027 164.739 419.423 165.642 420.214C166.544 421.005 167.065 422.115 167.206 423.545H164.569C164.505 422.719 164.273 422.121 163.875 421.752C163.482 421.377 162.882 421.189 162.073 421.189C161.194 421.189 160.535 421.506 160.096 422.139C159.662 422.766 159.439 423.741 159.428 425.065V426.032C159.428 427.415 159.636 428.426 160.052 429.064C160.474 429.703 161.136 430.022 162.038 430.022C162.853 430.022 163.459 429.838 163.857 429.469C164.262 429.094 164.493 428.517 164.552 427.737H167.188ZM175.556 428.643C175.556 428.145 175.38 427.764 175.028 427.5C174.677 427.23 174.044 426.949 173.13 426.656C172.216 426.357 171.492 426.064 170.959 425.777C169.506 424.992 168.779 423.935 168.779 422.604C168.779 421.913 168.973 421.298 169.359 420.759C169.752 420.214 170.312 419.789 171.038 419.484C171.771 419.18 172.591 419.027 173.499 419.027C174.413 419.027 175.228 419.194 175.942 419.528C176.657 419.856 177.211 420.322 177.604 420.926C178.002 421.529 178.201 422.215 178.201 422.982H175.564C175.564 422.396 175.38 421.942 175.011 421.62C174.642 421.292 174.123 421.128 173.455 421.128C172.811 421.128 172.31 421.266 171.952 421.541C171.595 421.811 171.416 422.168 171.416 422.613C171.416 423.029 171.624 423.378 172.04 423.659C172.462 423.94 173.08 424.204 173.895 424.45C175.395 424.901 176.487 425.461 177.173 426.129C177.858 426.797 178.201 427.629 178.201 428.625C178.201 429.732 177.782 430.603 176.944 431.235C176.106 431.862 174.979 432.176 173.561 432.176C172.576 432.176 171.68 431.997 170.871 431.64C170.062 431.276 169.444 430.781 169.017 430.154C168.595 429.527 168.384 428.801 168.384 427.975H171.029C171.029 429.387 171.873 430.093 173.561 430.093C174.188 430.093 174.677 429.967 175.028 429.715C175.38 429.457 175.556 429.1 175.556 428.643Z" fill="white"/>
<path d="M318.375 385.716C309.777 379.279 304.719 370.266 298.383 362.59C296.361 360.142 297.676 356.364 299.337 353.397C305.147 343.032 301.72 334.41 294.287 326.501C285.802 317.488 276.136 309.549 268.734 299.462C268.102 298.599 266.479 297.42 266.682 297.119C273.799 284.298 255.408 284.418 255.296 274.587C255.25 269.495 248.802 268.638 244.135 269.194C236.085 270.163 233.658 266.746 234.184 259.107C234.582 253.392 234.184 247.496 230.381 242.524C228.998 240.706 229.449 238.46 231.253 237.642C234.259 236.297 237.198 234.262 240.978 236.515C247.186 240.218 253.642 243.53 260.091 246.82C266.945 250.32 272.702 250.155 276.986 242.396C280.248 236.478 286.177 237.138 291.318 239.106C300.284 242.584 308.905 247.09 317.848 250.62C327.333 254.376 337.164 256.629 347.505 254.563C352.383 253.602 356.088 254.916 358.989 259.438C361.575 263.464 364.588 267.7 368.429 270.328C374.517 274.527 373.066 277.892 369.579 282.819C366.392 287.325 362.965 291.231 358.193 293.935C349.174 299.034 341.425 305.381 336.728 314.889C334.902 318.577 331.166 319.696 327.874 321.521C320.073 325.833 312.663 330.459 309.123 339.472C306.447 346.352 307.62 351.812 313.895 355.402C318.329 357.941 319.509 360.254 316.721 364.858C313.565 370.063 313.572 375.569 317.698 380.488C318.901 381.938 319.043 383.305 318.375 385.716Z" fill="#1D3557"/>
<path d="M305.367 291.363H300.744L299.865 294H297.062L301.825 281.203H304.269L309.059 294H306.255L305.367 291.363ZM301.456 289.228H304.655L303.047 284.438L301.456 289.228ZM310.254 294V281.203H314.736C316.289 281.203 317.467 281.502 318.27 282.1C319.072 282.691 319.474 283.562 319.474 284.71C319.474 285.337 319.312 285.891 318.99 286.371C318.668 286.846 318.22 287.194 317.646 287.417C318.302 287.581 318.817 287.912 319.192 288.41C319.573 288.908 319.764 289.518 319.764 290.238C319.764 291.469 319.371 292.4 318.586 293.033C317.801 293.666 316.682 293.988 315.229 294H310.254ZM312.891 288.428V291.882H315.149C315.771 291.882 316.254 291.735 316.6 291.442C316.951 291.144 317.127 290.733 317.127 290.212C317.127 289.04 316.521 288.445 315.308 288.428H312.891ZM312.891 286.564H314.842C316.172 286.541 316.837 286.011 316.837 284.974C316.837 284.394 316.667 283.978 316.327 283.726C315.993 283.468 315.463 283.339 314.736 283.339H312.891V286.564Z" fill="white"/>
<path d="M265.352 288.7C260.196 294.288 262.202 298.464 265.908 302.294C273.423 310.068 280.939 317.819 288.56 325.472C296.587 333.524 301.171 342.108 295.422 353.682C292.543 359.473 293.686 364.948 298.789 369.755C303.298 373.999 306.77 379.249 310.897 383.891C317.135 390.928 313.73 402.382 304.41 403.726C297.902 404.673 291.686 405.889 285.929 409.081C284.216 410.028 282.172 410.892 280.563 409.66C273.897 404.575 267.494 407.482 261.579 410.599C254.371 414.407 246.187 412.536 238.791 415.623C235.078 417.171 227.24 407.865 228.111 401.473C230.411 384.657 223.113 372.226 212.163 360.915C211.363 360.187 210.758 359.27 210.402 358.248C210.046 357.226 209.952 356.132 210.126 355.064C210.878 350.288 209.285 346.006 206.857 341.988C204.79 338.578 205.249 334.778 204.805 331.045C203.047 316.091 210.698 302.625 211.179 288.099C211.359 282.623 214.095 281.272 218.965 281.594C225.534 282.015 231.621 282.218 234.936 274.084C236.642 269.915 242.211 272.582 245.976 272.537C250.2 272.484 252.868 275.195 253.89 279.364C255.235 284.862 256.648 290.247 265.352 288.7Z" fill="#1D3557"/>
<path d="M255.558 355H252.921V349.516H247.779V355H245.143V342.203H247.779V347.389H252.921V342.203H255.558V355ZM257.869 355V342.203H261.807C262.932 342.203 263.937 342.458 264.821 342.968C265.712 343.472 266.406 344.192 266.904 345.13C267.402 346.062 267.651 347.122 267.651 348.312V348.9C267.651 350.09 267.405 351.147 266.913 352.073C266.427 352.999 265.738 353.717 264.848 354.227C263.957 354.736 262.952 354.994 261.833 355H257.869ZM260.506 344.339V352.882H261.78C262.812 352.882 263.6 352.545 264.145 351.871C264.689 351.197 264.968 350.233 264.979 348.979V348.303C264.979 347.002 264.71 346.018 264.171 345.35C263.632 344.676 262.844 344.339 261.807 344.339H260.506Z" fill="white"/>
<path d="M279.594 496.364C282.051 498.436 284.712 500.322 286.906 502.65C289.86 505.774 293.4 508.839 294.993 512.647C297.398 518.377 289.462 517.679 288.026 521.584C287.019 524.311 284.201 526.534 283.69 529.26C281.961 538.536 279.383 546.821 270.853 552.611C267.268 555.045 270.252 559.506 271.304 563.126C273.228 569.721 271.108 571.989 264.54 569.818C250.613 565.229 237.145 559.912 229.464 545.852C227.209 541.676 223.452 538.258 220.295 534.586C217.852 531.769 218.228 529.816 221.798 528.637C226.39 527.135 231.065 525.798 235.604 524.131C246.517 520.082 248.381 512.865 239.52 505.699C229.915 497.903 219.619 490.911 209.239 484.159C202.693 479.9 197.117 483.693 193.148 488.845C188.729 494.583 185.182 500.998 181.251 507.111C179.748 509.417 178.2 512.038 174.938 510.732C172.195 509.635 171.112 506.976 171.248 504.092C171.669 495.32 173.863 487.11 179.515 480.11C180.793 479.69 182.085 478.864 183.34 478.916C207.33 479.862 213.471 461.686 219.679 444.367C221.843 438.321 222.685 436.586 228.104 441.423C240.587 452.583 252.582 463.602 258.242 480.433C261.203 489.296 271.146 492.691 279.594 496.364Z" fill="#1D3557"/>
<path d="M258.088 506.203L261.375 515.484L264.645 506.203H268.107V519H265.462V515.502L265.726 509.464L262.271 519H260.461L257.016 509.473L257.279 515.502V519H254.643V506.203H258.088ZM280.825 519H278.188V513.516H273.047V519H270.41V506.203H273.047V511.389H278.188V506.203H280.825V519Z" fill="white"/>
<path d="M304.117 505.624C300.217 512.031 296.82 510.484 293.212 505.189C290.206 500.787 286.944 496.476 281.503 494.674C281.33 494.471 281.202 494.17 280.977 494.065C269.26 488.387 260.624 480.441 255.686 467.612C250.087 453.057 237.273 443.856 225.015 435.151C220.31 431.816 220.333 429.368 222.309 425.522C223.812 422.661 225.879 420.137 227.608 417.403C228.51 415.984 229.306 414.399 231.276 415.698C242.151 423.036 252.192 415.503 262.383 413.61C268.298 412.506 273.656 408.12 279.759 413.055C280.341 413.405 280.998 413.61 281.675 413.654C282.353 413.697 283.031 413.576 283.652 413.302C291.544 408.045 301.389 409.908 309.611 405.972C311.024 405.296 312.813 404.237 314.061 404.605C320.945 406.655 327.296 404.507 336.014 401.511C327.611 411.274 326.882 420.1 331.715 429.616C333.181 432.5 332.662 436.12 331.121 439.064C326.988 446.943 327.694 454.889 329.107 463.354C330.452 471.48 330.001 479.877 330.31 488.184C330.4 490.648 329.19 491.414 326.762 491.046C315.015 489.341 309.236 496.994 304.117 505.624Z" fill="#1D3557"/>
<path d="M291.768 457.383C291.293 457.951 290.622 458.394 289.755 458.71C288.888 459.021 287.927 459.176 286.872 459.176C285.765 459.176 284.792 458.936 283.954 458.455C283.122 457.969 282.478 457.266 282.021 456.346C281.569 455.426 281.338 454.345 281.326 453.103V452.232C281.326 450.955 281.54 449.851 281.968 448.919C282.401 447.981 283.022 447.267 283.831 446.774C284.646 446.276 285.598 446.027 286.688 446.027C288.205 446.027 289.392 446.391 290.247 447.117C291.103 447.838 291.609 448.89 291.768 450.272H289.201C289.084 449.54 288.823 449.004 288.419 448.664C288.021 448.324 287.47 448.154 286.767 448.154C285.87 448.154 285.188 448.491 284.719 449.165C284.25 449.839 284.013 450.841 284.007 452.171V452.988C284.007 454.33 284.262 455.344 284.771 456.029C285.281 456.715 286.028 457.058 287.013 457.058C288.003 457.058 288.709 456.847 289.131 456.425V454.219H286.731V452.276H291.768V457.383ZM299.071 446.203H301.708V455.062C301.708 455.877 301.526 456.598 301.163 457.225C300.806 457.846 300.299 458.326 299.643 458.666C298.986 459.006 298.245 459.176 297.419 459.176C296.065 459.176 295.011 458.833 294.255 458.147C293.499 457.456 293.121 456.48 293.121 455.221H295.775C295.775 455.848 295.907 456.311 296.171 456.609C296.435 456.908 296.851 457.058 297.419 457.058C297.923 457.058 298.324 456.885 298.623 456.539C298.922 456.193 299.071 455.701 299.071 455.062V446.203Z" fill="white"/>
<path d="M383.814 270.794C384.347 270.749 384.994 270.479 385.407 270.681C394.035 274.977 402.152 280.693 412.877 276.562C415.267 275.638 418.002 279.416 418.709 282.398C421.385 293.732 428.893 297.945 439.941 297.945C442.368 297.945 446.509 296.255 447.186 300.694C447.719 304.164 445.427 306.62 442.789 308.806C439.475 311.547 434.905 312.418 432.267 316.076C426.593 322.017 422.903 329.423 417.589 335.724C413.921 340.073 417.521 346.75 418.686 352.113C419.648 356.514 418.251 357.648 415.011 360.134C407.33 366.007 399.807 370.732 389.578 368.711C387.895 368.381 385.82 369.23 384.114 370.011C373.592 374.938 362.973 375.523 351.902 371.61C344.078 368.839 336.608 369.507 330.144 375.734C327.807 377.987 324.883 381.397 321.125 378.182C317.789 375.336 317.999 371.325 319.81 367.742C323.125 361.186 322.568 356.416 315.729 352.128C308.89 347.839 311.866 341.613 314.76 336.355C318.059 330.347 324.139 327.492 330.084 324.909C335.601 322.52 339.622 318.863 342.072 313.485C344.041 309.174 346.761 305.058 350.88 303.18C365.874 296.368 373.54 282.33 383.814 270.794Z" fill="#1D3557"/>
<path d="M372.778 332.643C372.778 332.145 372.603 331.764 372.251 331.5C371.899 331.23 371.267 330.949 370.353 330.656C369.438 330.357 368.715 330.064 368.182 329.777C366.729 328.992 366.002 327.935 366.002 326.604C366.002 325.913 366.195 325.298 366.582 324.759C366.975 324.214 367.534 323.789 368.261 323.484C368.993 323.18 369.813 323.027 370.722 323.027C371.636 323.027 372.45 323.194 373.165 323.528C373.88 323.856 374.434 324.322 374.826 324.926C375.225 325.529 375.424 326.215 375.424 326.982H372.787C372.787 326.396 372.603 325.942 372.233 325.62C371.864 325.292 371.346 325.128 370.678 325.128C370.033 325.128 369.532 325.266 369.175 325.541C368.817 325.811 368.639 326.168 368.639 326.613C368.639 327.029 368.847 327.378 369.263 327.659C369.685 327.94 370.303 328.204 371.117 328.45C372.617 328.901 373.71 329.461 374.396 330.129C375.081 330.797 375.424 331.629 375.424 332.625C375.424 333.732 375.005 334.603 374.167 335.235C373.329 335.862 372.201 336.176 370.783 336.176C369.799 336.176 368.902 335.997 368.094 335.64C367.285 335.276 366.667 334.781 366.239 334.154C365.817 333.527 365.606 332.801 365.606 331.975H368.252C368.252 333.387 369.096 334.093 370.783 334.093C371.41 334.093 371.899 333.967 372.251 333.715C372.603 333.457 372.778 333.1 372.778 332.643ZM377.217 336V323.203H381.699C383.252 323.203 384.43 323.502 385.232 324.1C386.035 324.691 386.437 325.562 386.437 326.71C386.437 327.337 386.275 327.891 385.953 328.371C385.631 328.846 385.183 329.194 384.608 329.417C385.265 329.581 385.78 329.912 386.155 330.41C386.536 330.908 386.727 331.518 386.727 332.238C386.727 333.469 386.334 334.4 385.549 335.033C384.764 335.666 383.645 335.988 382.191 336H377.217ZM379.854 330.428V333.882H382.112C382.733 333.882 383.217 333.735 383.562 333.442C383.914 333.144 384.09 332.733 384.09 332.212C384.09 331.04 383.483 330.445 382.271 330.428H379.854ZM379.854 328.564H381.805C383.135 328.541 383.8 328.011 383.8 326.974C383.8 326.394 383.63 325.978 383.29 325.726C382.956 325.468 382.426 325.339 381.699 325.339H379.854V328.564Z" fill="white"/>
<path d="M333.444 478.03C334.263 470.301 332.902 462.595 331.189 454.934C330.114 450.09 331.94 445.884 333.797 441.723C335.826 437.096 337.254 432.335 334.751 427.7C329.911 418.748 331.85 411.177 338.411 404.094C339.802 402.592 341.944 400.579 340.531 398.491C338.892 396.065 336.179 397.342 333.895 398.161C333.383 398.349 332.91 398.611 332.391 398.784C327.191 400.549 321.937 404.485 316.503 400.752C314.158 399.137 323.079 385.438 326.762 381.9C336.781 372.271 347.761 373.097 359.628 376.928C366.039 378.993 372.465 377.679 378.703 375.501C381.251 374.622 383.784 373.646 386.376 372.932C401.055 368.891 404.174 371.385 399.905 385.7C396.32 397.718 400.348 410.418 395.32 422.323C394.133 425.147 397.304 429.886 398.65 433.671C400.649 439.267 398.852 443.526 395.876 448.648C386.106 465.367 374.366 481.274 372.029 501.471C371.586 505.301 372.487 511.099 366.768 512.151C359.854 513.428 351.669 514.149 346.814 508.921C339.073 500.517 328.979 492.27 333.444 478.03Z" fill="#1D3557"/>
<path d="M360.371 441.827L363.271 432.203H366.207L361.751 445H359L354.562 432.203H357.488L360.371 441.827ZM370.057 442.882H375.655V445H367.42V432.203H370.057V442.882Z" fill="white"/>
<path d="M249.215 611.36C245.202 604.848 250.373 601.431 254.085 597.841C257.31 594.716 261.233 592.658 261.128 586.995C261.067 583.398 264.743 581.13 267.892 579.485C275.332 575.647 278.03 569.871 274.611 562.21C272.138 556.667 273.401 552.957 278.436 550.095C283.269 547.346 285.283 543.643 285.065 537.65C284.924 534.386 285.7 531.147 287.304 528.3C288.908 525.453 291.278 523.111 294.144 521.539C300.254 518.265 303.501 513.548 305.816 507.592C321.478 486.329 330.279 492.766 342.169 509.094C352.541 523.304 361.92 538.386 369.098 554.159C377.478 572.597 377.778 592.891 372.48 612.742C370.834 618.908 367.707 620.839 361.259 616.685C351.301 610.279 339.749 608.131 327.995 608.273C319.898 608.422 311.834 607.221 304.132 604.721C295.189 601.799 286.982 604.585 278.797 608.341C269.372 612.629 259.609 615.604 249.215 611.36Z" fill="#1D3557"/>
<path d="M314.643 568V555.203H318.58C319.705 555.203 320.71 555.458 321.595 555.968C322.485 556.472 323.18 557.192 323.678 558.13C324.176 559.061 324.425 560.122 324.425 561.311V561.9C324.425 563.09 324.179 564.147 323.687 565.073C323.2 565.999 322.512 566.717 321.621 567.227C320.73 567.736 319.726 567.994 318.606 568H314.643ZM317.279 557.339V565.882H318.554C319.585 565.882 320.373 565.545 320.918 564.871C321.463 564.197 321.741 563.233 321.753 561.979V561.303C321.753 560.002 321.483 559.018 320.944 558.35C320.405 557.676 319.617 557.339 318.58 557.339H317.279ZM331.509 555.203H334.146V564.062C334.146 564.877 333.964 565.598 333.601 566.225C333.243 566.846 332.736 567.326 332.08 567.666C331.424 568.006 330.683 568.176 329.856 568.176C328.503 568.176 327.448 567.833 326.692 567.147C325.937 566.456 325.559 565.48 325.559 564.221H328.213C328.213 564.848 328.345 565.311 328.608 565.609C328.872 565.908 329.288 566.058 329.856 566.058C330.36 566.058 330.762 565.885 331.061 565.539C331.359 565.193 331.509 564.701 331.509 564.062V555.203Z" fill="white"/>
<path d="M351.346 515.876C374.569 515.809 373.299 516.995 376.471 496.198C377.688 488.192 380.183 480.516 385.7 474.109C391.397 467.492 395.47 466.598 402.054 472.111C407.819 476.963 413.004 482.514 418.438 487.764C419.821 489.101 421.016 490.565 420.896 492.646C419.784 511.19 427.983 527.863 431.523 545.476C433.079 553.25 432.312 561.076 432.921 568.857C433.169 571.996 431.553 573.987 428.765 575.061C426.255 576.022 423.677 576.826 421.114 577.652C410.284 581.167 410.103 581.55 413.515 592.335C415.597 598.93 415.455 606.275 420.445 611.908C421.82 613.456 421.332 615.483 419.769 617.008C417.747 618.976 415.83 617.842 413.884 616.798C406.195 612.689 398.356 608.927 389.307 611.54C386.241 612.427 383.505 614.387 380.484 615.476C377.463 616.565 375.148 616.385 376.305 611.871C380.469 595.565 379.131 579.237 375.809 563.006C372.698 547.819 362.003 536.403 355.419 522.936C354.375 520.818 353.059 518.828 351.346 515.876Z" fill="#1D3557"/>
<path d="M399.654 538.892C399.654 540.151 399.432 541.256 398.986 542.205C398.541 543.154 397.902 543.887 397.07 544.402C396.244 544.918 395.295 545.176 394.223 545.176C393.162 545.176 392.216 544.921 391.384 544.411C390.552 543.901 389.907 543.175 389.45 542.231C388.993 541.282 388.762 540.192 388.756 538.962V538.329C388.756 537.069 388.981 535.962 389.433 535.007C389.89 534.046 390.531 533.311 391.357 532.801C392.189 532.285 393.139 532.027 394.205 532.027C395.271 532.027 396.218 532.285 397.044 532.801C397.876 533.311 398.518 534.046 398.969 535.007C399.426 535.962 399.654 537.066 399.654 538.32V538.892ZM396.982 538.311C396.982 536.97 396.742 535.95 396.262 535.253C395.781 534.556 395.096 534.207 394.205 534.207C393.32 534.207 392.638 534.553 392.157 535.244C391.677 535.93 391.434 536.937 391.428 538.268V538.892C391.428 540.198 391.668 541.212 392.148 541.933C392.629 542.653 393.32 543.014 394.223 543.014C395.107 543.014 395.787 542.668 396.262 541.977C396.736 541.279 396.977 540.266 396.982 538.936V538.311ZM410.447 534.339H406.527V545H403.891V534.339H400.023V532.203H410.447V534.339Z" fill="white"/>
</svg>
