<svg width="16" height="19" viewBox="0 0 16 19" fill="none" xmlns="http://www.w3.org/2000/svg">
<path d="M15.3499 9.1811C15.3499 8.84281 15.223 8.52566 14.9693 8.27194C14.7367 8.03937 14.4619 7.91251 14.1447 7.89137C14.1659 7.55308 14.1024 7.19365 13.8487 6.91879C13.6162 6.68622 13.299 6.55936 12.9819 6.53821C12.9607 6.22107 12.8339 5.90392 12.6013 5.67135C12.3687 5.43878 12.0516 5.31192 11.7344 5.29077C11.7133 4.97363 11.5864 4.65648 11.3538 4.42391C11.1213 4.19134 10.783 4.04333 10.4447 4.04333C10.1064 4.04333 9.78926 4.17019 9.53554 4.42391L7.52696 6.55936C7.4001 6.60164 6.89266 6.7285 6.15266 6.07307C6.0258 5.94621 5.81437 5.94621 5.68751 6.07307C5.64523 6.11535 4.6515 6.96108 4.5035 8.52566C4.41893 9.37138 4.0595 9.70967 4.03835 9.73081L4.01721 9.75196L3.63664 10.1325C3.48863 10.2805 3.48863 10.492 3.63664 10.64L7.80182 14.8051C7.86524 14.8686 7.94982 14.9109 8.05553 14.9109C8.16125 14.9109 8.24582 14.8686 8.30925 14.8051L8.68982 14.4246L8.71097 14.4034C8.71097 14.4034 9.0704 14.0229 9.91612 13.9383C11.3961 13.7903 12.2419 12.8811 12.3476 12.7543L14.9905 10.1114C15.223 9.85767 15.3499 9.54053 15.3499 9.1811Z" fill="#F1FAEE"/>
<path d="M3.31939 2.22507C2.93882 2.69022 2.98111 3.38794 3.42511 3.83194L4.33426 4.74109C4.75712 5.16395 5.4337 5.20624 5.91999 4.84681C5.94113 4.86795 5.96228 4.88909 5.98342 4.91024L7.23086 6.15768L8.52058 4.86795L7.252 3.59937C7.23086 3.57823 7.20972 3.55708 7.18857 3.53594C7.548 3.07079 7.50572 2.39421 7.08286 1.95021L6.17371 1.0622C5.7297 0.618199 5.05312 0.597056 4.56683 0.956488L5.79313 2.18278L4.54569 3.45137L3.31939 2.22507Z" fill="#F1FAEE"/>
<path d="M14.7366 11.1051L13.4258 12.3948L14.4406 13.4097C14.8001 13.7691 15.3921 13.7691 15.7304 13.4097C16.0898 13.0503 16.0898 12.4583 15.7304 12.12L14.7366 11.1051Z" fill="#F1FAEE"/>
<path d="M2.49488 10.492C2.34688 10.344 2.13545 10.344 1.98745 10.492L0.105715 12.3737C0.0422861 12.4371 0 12.5217 0 12.6274C0 12.7331 0.0422861 12.8177 0.105715 12.8811L5.41262 18.1881C5.47605 18.2515 5.58176 18.2938 5.66634 18.2938C5.75091 18.2938 5.85662 18.2515 5.92005 18.1881L7.80178 16.3063C7.86521 16.2429 7.9075 16.1583 7.9075 16.0526C7.9075 15.9469 7.86521 15.8623 7.80178 15.7989L2.49488 10.492Z" fill="#F1FAEE"/>
</svg>
