<svg width="16" height="19" viewBox="0 0 16 19" fill="none" xmlns="http://www.w3.org/2000/svg">
<path d="M15.2927 4.58723H14.2796L13.7826 2.44626C13.5149 1.28019 12.4636 0.439087 11.2593 0.439087H4.72162C3.49821 0.439087 2.44683 1.28019 2.17921 2.44626L1.6822 4.58723H0.669056C0.305854 4.58723 0 4.89309 0 5.25629V6.11651C0 6.44148 0.229391 6.72821 0.554361 6.76645L1.10872 6.84291C1.05137 7.05318 1.01314 7.28258 1.01314 7.51197V12.0424C1.01314 12.4056 1.319 12.7115 1.6822 12.7115H3.59379C3.80406 12.7115 3.99522 12.5394 3.99522 12.3101V11.2396C3.99522 10.8764 4.30107 10.5705 4.66428 10.5705H11.3357C11.6989 10.5705 12.0048 10.8764 12.0048 11.2396V12.3483C12.0048 12.5586 12.1768 12.7497 12.4062 12.7497H14.3178C14.681 12.7497 14.9869 12.4439 14.9869 12.0807V7.53108C14.9869 7.28258 14.9486 7.0723 14.8913 6.86203L15.4265 6.78556C15.7515 6.72821 16 6.44148 16 6.11651V5.27541C15.9618 4.89309 15.675 4.58723 15.2927 4.58723ZM3.68937 2.79034C3.80406 2.31244 4.22461 1.96836 4.72162 1.96836H11.2593C11.7563 1.96836 12.1768 2.29333 12.2915 2.79034L12.865 5.23717H3.11589L3.68937 2.79034ZM4.68339 8.79273L2.54241 8.69715C2.37037 8.69715 2.21744 8.54422 2.21744 8.37218C2.19833 8.10456 2.19833 7.68401 2.23656 7.33992C2.25567 7.12965 2.46595 6.99584 2.67622 7.05318C3.32616 7.24434 4.26284 7.47373 4.66428 7.58843C4.79809 7.62666 4.87455 7.72224 4.91278 7.83694L5.04659 8.35307C5.10394 8.58246 4.91278 8.81185 4.68339 8.79273ZM9.69176 8.42953C9.69176 8.54422 9.59618 8.6398 9.48148 8.6398H6.48029C6.36559 8.6398 6.27001 8.54422 6.27001 8.42953V8.0281C6.27001 7.9134 6.36559 7.81782 6.48029 7.81782H9.48148C9.59618 7.81782 9.69176 7.9134 9.69176 8.0281V8.42953ZM13.7826 8.37218C13.7826 8.56334 13.6296 8.69715 13.4576 8.69715L11.3166 8.79273C11.0872 8.79273 10.8961 8.58246 10.9725 8.35307L11.1063 7.83694C11.1446 7.70312 11.2401 7.62666 11.3548 7.58843C11.7563 7.47373 12.6738 7.24434 13.3429 7.05318C13.5532 6.99584 13.7634 7.12965 13.7826 7.33992C13.8017 7.68401 13.7826 8.10456 13.7826 8.37218Z" fill="#F1FAEE"/>
<path d="M10.6476 11.5646H5.31423C5.12307 11.5646 4.98926 11.7175 4.98926 11.8895V12.8836C4.98926 13.0747 5.14219 13.2085 5.31423 13.2085H7.07289V18.236C7.07289 18.4272 7.22582 18.561 7.39786 18.561H8.56393C8.75509 18.561 8.8889 18.4081 8.8889 18.236V13.2277H10.6476C10.8387 13.2277 10.9725 13.0747 10.9725 12.9027V11.9087C10.9916 11.7175 10.8387 11.5646 10.6476 11.5646Z" fill="#F1FAEE"/>
</svg>
