<svg width="21" height="20" viewBox="0 0 21 20" fill="none" xmlns="http://www.w3.org/2000/svg">
<path d="M17.9279 9.28037C17.927 9.65798 17.9024 10.0344 17.8533 10.4088C17.863 10.3378 17.8724 10.2668 17.882 10.1957C17.7804 10.9455 17.5806 11.6775 17.2863 12.3748C17.3134 12.3109 17.3402 12.2472 17.3673 12.1832C17.0814 12.8521 16.7121 13.4815 16.2681 14.0578C16.3098 14.0037 16.3518 13.9496 16.3935 13.8955C15.9497 14.4663 15.4368 14.9789 14.8654 15.4222C14.9195 15.3805 14.9737 15.3386 15.0278 15.2969C14.4509 15.741 13.8208 16.1101 13.151 16.3956C13.215 16.3686 13.2787 16.3418 13.3427 16.3147C12.6447 16.6087 11.9116 16.8087 11.1609 16.91C11.232 16.9004 11.3031 16.891 11.3742 16.8814C10.6209 16.9799 9.85819 16.9794 9.10513 16.8802C9.17624 16.8898 9.24735 16.8992 9.31845 16.9089C8.57503 16.8078 7.84857 16.6098 7.15675 16.3195C7.22075 16.3466 7.28452 16.3734 7.34852 16.4004C6.67367 16.114 6.03897 15.7426 5.45841 15.2953C5.51254 15.337 5.56667 15.3789 5.62081 15.4206C5.04575 14.9741 4.52964 14.4571 4.08395 13.8816C4.12569 13.9356 4.16767 13.9897 4.20942 14.0438C3.77015 13.4716 3.40451 12.847 3.121 12.1837C3.14806 12.2476 3.1749 12.3113 3.20197 12.3752C2.91088 11.6856 2.71201 10.9617 2.60924 10.2205C2.61888 10.2915 2.62828 10.3626 2.63792 10.4336C2.53607 9.67241 2.53538 8.90092 2.63608 8.13952C2.62645 8.21055 2.61704 8.28158 2.60741 8.35261C2.70926 7.6077 2.90836 6.88044 3.20059 6.18754C3.17353 6.25147 3.14669 6.31517 3.11962 6.3791C3.4036 5.71393 3.77015 5.08817 4.21079 4.51465C4.16905 4.56873 4.12707 4.6228 4.08532 4.67688C4.52964 4.10359 5.04368 3.58873 5.61645 3.14307C5.56231 3.18477 5.50818 3.2267 5.45405 3.26841C6.03324 2.82183 6.66633 2.4504 7.33934 2.16376C7.27534 2.1908 7.21158 2.21761 7.14758 2.24464C7.83756 1.95411 8.56172 1.75568 9.30332 1.65325C9.23221 1.66288 9.1611 1.67227 9.08999 1.6819C9.84833 1.58062 10.6165 1.5797 11.3751 1.67892C11.304 1.66929 11.2329 1.6599 11.1618 1.65028C11.9013 1.75041 12.6239 1.94586 13.3127 2.23296C13.2487 2.20592 13.1849 2.17911 13.1209 2.15208C13.8038 2.44032 14.4458 2.81518 15.0328 3.26772C14.9787 3.22602 14.9246 3.18408 14.8704 3.14238C15.4414 3.58621 15.954 4.09924 16.3974 4.67023C16.3557 4.61616 16.3137 4.56208 16.272 4.50801C16.7151 5.08382 17.0837 5.71255 17.3689 6.3807C17.3418 6.31678 17.315 6.25308 17.2879 6.18915C17.5815 6.88548 17.7808 7.61687 17.8822 8.36567C17.8726 8.29464 17.8632 8.22361 17.8535 8.15258C17.9024 8.52721 17.927 8.90322 17.9279 9.28037C17.9288 9.69991 18.2965 10.1018 18.7307 10.0823C19.1649 10.0629 19.5345 9.72992 19.5335 9.28037C19.5294 7.3859 18.9466 5.48411 17.8386 3.94114C17.2581 3.13253 16.5784 2.44261 15.787 1.84023C15.045 1.27565 14.2119 0.845336 13.3354 0.529593C11.5114 -0.127558 9.44668 -0.170176 7.5912 0.385239C5.80202 0.92095 4.16125 2.00612 3.00378 3.47485C2.70581 3.85315 2.42643 4.24244 2.18626 4.66038C1.94151 5.08588 1.73805 5.53337 1.55959 5.99026C1.21942 6.86211 1.03316 7.79055 0.9726 8.72335C0.844146 10.7028 1.38595 12.7398 2.48997 14.3895C3.46576 15.848 4.84458 17.0507 6.46012 17.7518C6.89663 17.9413 7.33911 18.1102 7.7988 18.2348C8.26788 18.3622 8.74546 18.442 9.22762 18.4995C10.1844 18.6136 11.1556 18.5575 12.1002 18.3723C13.9233 18.0151 15.6382 17.0628 16.9255 15.7272C18.221 14.3831 19.123 12.6362 19.4065 10.7876C19.4831 10.2876 19.5324 9.78629 19.5335 9.28014C19.5345 8.8606 19.1636 8.4587 18.7307 8.47818C18.2949 8.49788 17.9288 8.83081 17.9279 9.28037Z" fill="#1D3557"/>
<path d="M15.6905 15.8285C16.1352 16.2727 16.58 16.717 17.0248 17.1613C17.7331 17.8689 18.4415 18.5764 19.1498 19.284C19.3115 19.4455 19.4734 19.6073 19.6352 19.7688C19.9324 20.0658 20.4772 20.088 20.7706 19.7688C21.0649 19.4487 21.0878 18.9518 20.7706 18.6346C20.3258 18.1904 19.8811 17.7461 19.4363 17.3018C18.728 16.5942 18.0196 15.8867 17.3113 15.1791C17.1496 15.0176 16.9876 14.8558 16.8259 14.6943C16.5286 14.3973 15.9838 14.3751 15.6905 14.6943C15.3962 15.0144 15.3732 15.5113 15.6905 15.8285Z" fill="#1D3557"/>
</svg>
