<svg width="16" height="17" viewBox="0 0 16 17" fill="none" xmlns="http://www.w3.org/2000/svg">
<path d="M4.01733 10.1029C4.05358 10.1992 4.09358 10.2942 4.14233 10.3892L5.23733 9.76416L4.01733 10.1029Z" fill="#F1FAEE"/>
<path d="M7.09119 7.04908L5.84994 4.87158C5.24807 5.23663 4.743 5.74128 4.37744 6.34283L6.55494 7.57783C6.69571 7.36682 6.87821 7.18687 7.09119 7.04908Z" fill="#F1FAEE"/>
<path d="M4.1424 6.7804C4.0999 6.87415 4.06115 6.9679 4.0249 7.06415L5.22365 7.3954L4.1424 6.7804Z" fill="#F1FAEE"/>
<path d="M8.09121 6.74915C8.21721 6.74923 8.34286 6.76221 8.46621 6.7879L9.13121 4.3754C8.4488 4.2082 7.73612 4.2082 7.05371 4.3754L7.71621 6.7879C7.83956 6.76221 7.96522 6.74923 8.09121 6.74915Z" fill="#F1FAEE"/>
<path d="M6.24741 8.59288C6.24751 8.46303 6.26133 8.33356 6.28866 8.20663L3.87617 7.54163C3.70794 8.22602 3.70794 8.94098 3.87617 9.62538L6.28991 8.95913C6.26355 8.83877 6.24931 8.71607 6.24741 8.59288Z" fill="#F1FAEE"/>
<path d="M6.57495 4.52161C6.47995 4.55661 6.3862 4.59536 6.2937 4.63786L6.90245 5.71786L6.57495 4.52161Z" fill="#F1FAEE"/>
<path d="M9.62866 7.57658L11.8062 6.34283C11.4406 5.74131 10.9355 5.23666 10.3337 4.87158L9.09741 7.05033C9.30834 7.18792 9.48908 7.36697 9.62866 7.57658Z" fill="#F1FAEE"/>
<path d="M9.60734 4.52161L9.27734 5.71786L9.89109 4.63661C9.79776 4.59577 9.70318 4.55744 9.60734 4.52161Z" fill="#F1FAEE"/>
<path d="M12.1573 7.06409C12.1223 6.96909 12.0836 6.87534 12.0411 6.78284L10.9661 7.39284L12.1573 7.06409Z" fill="#F1FAEE"/>
<path d="M8.09106 7.24915C7.8253 7.24915 7.5655 7.32796 7.34452 7.47561C7.12354 7.62326 6.95131 7.83313 6.8496 8.07866C6.7479 8.3242 6.72129 8.59439 6.77313 8.85505C6.82498 9.11571 6.95296 9.35514 7.14089 9.54307C7.32882 9.731 7.56825 9.85898 7.82891 9.91083C8.08957 9.96267 8.35976 9.93606 8.6053 9.83436C8.85083 9.73265 9.0607 9.56042 9.20835 9.33944C9.35601 9.11846 9.43481 8.85866 9.43481 8.5929C9.43448 8.23661 9.2928 7.89502 9.04087 7.64309C8.78894 7.39116 8.44735 7.24948 8.09106 7.24915ZM8.09106 9.4054C7.93037 9.4054 7.77328 9.35774 7.63966 9.26846C7.50605 9.17919 7.40191 9.05229 7.34041 8.90383C7.27892 8.75536 7.26283 8.59199 7.29418 8.43438C7.32553 8.27678 7.40291 8.132 7.51654 8.01837C7.63017 7.90474 7.77494 7.82736 7.93255 7.79601C8.09016 7.76466 8.25353 7.78075 8.40199 7.84224C8.55046 7.90374 8.67736 8.00788 8.76663 8.14149C8.85591 8.27511 8.90356 8.4322 8.90356 8.5929C8.90323 8.80828 8.81752 9.01475 8.66522 9.16705C8.51292 9.31936 8.30645 9.40506 8.09106 9.4054Z" fill="#F1FAEE"/>
<path d="M8.09106 8.9054C8.26365 8.9054 8.40356 8.76548 8.40356 8.5929C8.40356 8.42031 8.26365 8.2804 8.09106 8.2804C7.91848 8.2804 7.77856 8.42031 7.77856 8.5929C7.77856 8.76548 7.91848 8.9054 8.09106 8.9054Z" fill="#F1FAEE"/>
<path d="M9.61243 12.6617C9.7091 12.6258 9.80451 12.5842 9.89868 12.5367L9.27368 11.4417L9.61243 12.6617Z" fill="#F1FAEE"/>
<path d="M12.0462 10.3879C12.0887 10.2941 12.1287 10.1991 12.165 10.1041L10.9587 9.77161L12.0462 10.3879Z" fill="#F1FAEE"/>
<path d="M9.89355 8.20668C9.95855 8.18918 9.9173 8.95668 9.89355 8.95668L12.3073 9.62293C12.4755 8.93853 12.4755 8.22359 12.3073 7.53918L9.89355 8.20668Z" fill="#F1FAEE"/>
<path d="M6.54612 9.5929L4.36987 10.8316C4.73448 11.4352 5.23914 11.942 5.84112 12.3091L7.07862 10.1316C6.866 9.99055 6.68473 9.80715 6.54612 9.5929Z" fill="#F1FAEE"/>
<path d="M9.1062 10.1304L10.3412 12.3079C10.9437 11.9409 11.4488 11.4341 11.8137 10.8304L9.63745 9.5929C9.49907 9.80657 9.31825 9.98953 9.1062 10.1304Z" fill="#F1FAEE"/>
<path d="M6.56991 12.6617L6.90241 11.4554L6.28491 12.5429C6.37825 12.5863 6.47325 12.6259 6.56991 12.6617Z" fill="#F1FAEE"/>
<path d="M8.09127 10.4366C7.96523 10.4361 7.83957 10.4227 7.71627 10.3966L7.05127 12.8091C7.73683 12.9782 8.45321 12.9782 9.13877 12.8091L8.46627 10.3966C8.34297 10.4227 8.21731 10.4361 8.09127 10.4366Z" fill="#F1FAEE"/>
<path d="M8 0.5C6.41775 0.5 4.87103 0.969192 3.55544 1.84824C2.23985 2.72729 1.21447 3.97672 0.608967 5.43853C0.00346625 6.90034 -0.15496 8.50887 0.153721 10.0607C0.462403 11.6126 1.22433 13.038 2.34315 14.1569C3.46197 15.2757 4.88743 16.0376 6.43928 16.3463C7.99113 16.655 9.59966 16.4965 11.0615 15.891C12.5233 15.2855 13.7727 14.2602 14.6518 12.9446C15.5308 11.629 16 10.0822 16 8.5C15.9977 6.37898 15.1541 4.34549 13.6543 2.8457C12.1545 1.34591 10.121 0.502316 8 0.5V0.5ZM1.72625 6.855C1.89659 6.19362 2.17129 5.56363 2.54 4.98875C2.55773 4.96109 2.58073 4.93719 2.6077 4.91842C2.63466 4.89965 2.66506 4.88638 2.69715 4.87936C2.72925 4.87233 2.76241 4.8717 2.79475 4.87749C2.82709 4.88329 2.85797 4.8954 2.88563 4.91312C2.91329 4.93085 2.93718 4.95386 2.95595 4.98082C2.97472 5.00778 2.988 5.03818 2.99502 5.07027C3.00204 5.10237 3.00268 5.13553 2.99688 5.16787C2.99109 5.20021 2.97898 5.23109 2.96125 5.25875C2.6214 5.78901 2.36822 6.37005 2.21125 6.98C2.20408 7.01286 2.19036 7.04393 2.1709 7.07136C2.15144 7.09878 2.12664 7.122 2.098 7.13963C2.06936 7.15725 2.03745 7.16891 2.0042 7.17391C1.97094 7.17892 1.93702 7.17716 1.90446 7.16875C1.8719 7.16033 1.84137 7.14544 1.8147 7.12495C1.78803 7.10446 1.76577 7.0788 1.74925 7.04951C1.73273 7.02022 1.72229 6.98789 1.71855 6.95447C1.71481 6.92105 1.71786 6.88722 1.7275 6.855H1.72625ZM8 14.9687C6.28499 14.9668 4.64079 14.2846 3.4281 13.0719C2.2154 11.8592 1.53324 10.215 1.53125 8.5C1.53125 8.43369 1.55759 8.37011 1.60448 8.32322C1.65136 8.27634 1.71495 8.25 1.78125 8.25C1.84756 8.25 1.91115 8.27634 1.95803 8.32322C2.00491 8.37011 2.03125 8.43369 2.03125 8.5C2.03291 10.0825 2.66229 11.5997 3.78129 12.7187C4.90029 13.8377 6.4175 14.4671 8 14.4687C8.06631 14.4687 8.12989 14.4951 8.17678 14.542C8.22366 14.5889 8.25 14.6524 8.25 14.7187C8.25 14.7851 8.22366 14.8486 8.17678 14.8955C8.12989 14.9424 8.06631 14.9687 8 14.9687ZM11.6625 11.5612C11.2103 12.1354 10.6294 12.5952 9.96663 12.9033C9.3039 13.2114 8.57796 13.3593 7.8475 13.335C5.05 13.21 2.88 10.7287 3.2225 7.93375C3.55875 5.15875 6.11 3.34125 8.8475 3.78875C10.6375 4.08125 12.0625 5.43 12.605 7.08375C13.0913 8.57125 12.625 10.3562 11.6625 11.5612ZM14.2875 10.0237C14.1269 10.6864 13.862 11.3193 13.5025 11.8987C13.4675 11.9551 13.4116 11.9953 13.347 12.0104C13.2824 12.0255 13.2145 12.0143 13.1581 11.9794C13.1018 11.9444 13.0616 11.8885 13.0465 11.8239C13.0314 11.7593 13.0425 11.6914 13.0775 11.635C13.4092 11.0996 13.6536 10.5148 13.8013 9.9025C13.8168 9.83802 13.8574 9.78237 13.914 9.74779C13.9706 9.71321 14.0386 9.70254 14.1031 9.71812C14.1676 9.7337 14.2233 9.77426 14.2578 9.83088C14.2924 9.88749 14.3031 9.95552 14.2875 10.02V10.0237ZM14.2188 8.75C14.1524 8.75 14.0889 8.72366 14.042 8.67677C13.9951 8.62989 13.9688 8.5663 13.9688 8.5C13.9671 6.9175 13.3377 5.40028 12.2187 4.28128C11.0997 3.16228 9.5825 2.5329 8 2.53125C7.9337 2.53125 7.87011 2.50491 7.82323 2.45803C7.77634 2.41114 7.75 2.34755 7.75 2.28125C7.75 2.21495 7.77634 2.15136 7.82323 2.10447C7.87011 2.05759 7.9337 2.03125 8 2.03125C9.71501 2.03323 11.3592 2.7154 12.5719 3.92809C13.7846 5.14079 14.4668 6.78499 14.4688 8.5C14.4688 8.5663 14.4424 8.62989 14.3955 8.67677C14.3486 8.72366 14.2851 8.75 14.2188 8.75Z" fill="#F1FAEE"/>
</svg>
