<svg width="127" height="101" viewBox="0 0 127 101" fill="none" xmlns="http://www.w3.org/2000/svg">
<path d="M119.886 27.7155C119.079 27.7155 118.271 27.7155 117.464 27.7155C114.701 27.8504 112.09 29.0166 110.146 30.9837C107.07 23.1656 103.084 14.3608 100.661 10.785C96.291 4.50492 89.9212 2.74907 85.5124 1.98008C78.2289 0.857785 70.8615 0.373194 63.4938 0.531822C56.1396 0.366952 48.7851 0.842959 41.5136 1.95445C37.1047 2.72343 30.735 4.51773 26.3646 10.7593C23.9038 14.2967 19.9563 23.1144 16.8548 30.8811C14.9105 28.9141 12.2991 27.7479 9.53658 27.6129C8.72914 27.6129 7.92171 27.6129 7.11427 27.6129C5.42091 27.6329 3.80252 28.3145 2.60505 29.5119C1.40758 30.7094 0.726018 32.3278 0.706055 34.0212C0.706055 35.3925 0.706055 36.8664 0.706055 38.6735C0.715772 40.4362 1.4142 42.1253 2.65222 43.3801C3.89024 44.6348 5.56975 45.3559 7.33215 45.3893H10.1518H10.5234C10.1902 45.8251 9.87408 46.2523 9.57503 46.671C6.47416 51.3839 4.89905 56.937 5.06364 62.5762V93.8995C5.05689 94.7617 5.22045 95.6168 5.54495 96.4156C5.86945 97.2145 6.34849 97.9414 6.9546 98.5546C7.56071 99.1679 8.28194 99.6554 9.07692 99.9892C9.8719 100.323 10.725 100.497 11.5872 100.5H20.0589C21.7958 100.5 23.4616 99.81 24.6898 98.5818C25.9181 97.3536 26.6081 95.6878 26.6081 93.9508V88.9652H100.379V93.8867C100.371 94.7522 100.534 95.6107 100.859 96.4127C101.185 97.2147 101.666 97.9442 102.275 98.5592C102.884 99.1741 103.609 99.6623 104.407 99.9954C105.206 100.329 106.063 100.5 106.929 100.5H115.4C117.137 100.5 118.803 99.81 120.031 98.5818C121.26 97.3536 121.95 95.6878 121.95 93.9508V62.5762C122.103 56.9329 120.514 51.3795 117.4 46.671C117.092 46.2181 116.776 45.7909 116.451 45.3893H116.823H119.643C121.394 45.3631 123.067 44.6573 124.308 43.421C125.549 42.1848 126.261 40.5147 126.294 38.7632C126.294 36.9561 126.294 35.4822 126.294 34.1109C126.271 32.4197 125.588 30.8046 124.391 29.6099C123.194 28.4152 121.577 27.7354 119.886 27.7155ZM38.9118 65.8956H26.9157C25.556 65.8956 24.252 65.3555 23.2906 64.3941C22.3292 63.4327 21.7891 62.1287 21.7891 60.7691V57.6547C21.7955 56.8758 21.9793 56.1087 22.3265 55.4115C22.6737 54.7143 23.1752 54.1054 23.7929 53.631C24.4106 53.1566 25.1283 52.8292 25.8914 52.6736C26.6546 52.5181 27.4432 52.5384 28.1973 52.7332L40.1935 55.8732C41.3489 56.228 42.3417 56.9795 42.9968 57.9952C43.6519 59.0109 43.9271 60.2253 43.7738 61.4242C43.6205 62.6231 43.0486 63.7292 42.159 64.5473C41.2694 65.3655 40.1193 65.843 38.9118 65.8956ZM105.16 60.7691C105.16 62.1287 104.62 63.4327 103.658 64.3941C102.697 65.3555 101.393 65.8956 100.033 65.8956H88.0757C86.8682 65.843 85.7182 65.3655 84.8286 64.5473C83.9389 63.7292 83.367 62.6231 83.2137 61.4242C83.0604 60.2253 83.3356 59.0109 83.9907 57.9952C84.6458 56.9795 85.6387 56.228 86.794 55.8732L98.7902 52.7332C99.5443 52.5384 100.333 52.5181 101.096 52.6736C101.859 52.8292 102.577 53.1566 103.195 53.631C103.812 54.1054 104.314 54.7143 104.661 55.4115C105.008 56.1087 105.192 56.8758 105.198 57.6547L105.16 60.7691Z" fill="#1D3557"/>
</svg>
