<svg width="125" height="101" viewBox="0 0 125 101" fill="none" xmlns="http://www.w3.org/2000/svg">
<path d="M117.735 34.9335H117.442C117.697 35.2728 117.939 35.6163 118.168 35.9641C120.545 39.5716 121.758 43.8221 121.641 48.1409V72.1765C121.641 73.5263 121.105 74.8209 120.151 75.7754C119.196 76.7298 117.902 77.2661 116.552 77.2661H110.126C108.776 77.2661 107.482 76.7298 106.527 75.7754C105.573 74.8209 105.037 73.5263 105.037 72.1765V68.3593H101.219C101.068 66.5136 100.744 64.6861 100.252 62.9007C101.608 61.6962 102.7 60.2245 103.46 58.5779C104.22 56.9313 104.631 55.1454 104.668 53.3323C104.668 51.7673 104.668 50.4821 104.668 49.2861C104.581 45.9646 103.223 42.803 100.875 40.4524C98.527 38.1018 95.3667 36.7413 92.0453 36.6512H89.9459H89.8187C89.3945 36.6512 88.9704 36.6724 88.5463 36.7148C87.1408 33.3955 85.4685 30.1955 83.5458 27.1464C81.5712 24.4116 79.0603 22.1077 76.1661 20.3751C73.2719 18.6425 70.0551 17.5176 66.712 17.069C60.6748 16.1097 54.5649 15.6839 48.4531 15.7966C47.0789 15.7966 45.692 15.7966 44.2796 15.7966C45.3916 13.1975 46.7018 10.6877 48.1986 8.28952C49.5713 6.42717 51.3118 4.86654 53.3123 3.70434C55.3127 2.54214 57.5306 1.80313 59.8283 1.5331C65.438 0.708837 71.109 0.37675 76.7766 0.540629C82.4259 0.41414 88.0756 0.78028 93.6613 1.63489C95.9591 1.90492 98.1769 2.64393 100.177 3.80613C102.178 4.96833 103.918 6.52896 105.291 8.39131C107.187 11.1015 110.202 17.8834 112.595 23.8255C114.083 22.3003 116.091 21.3917 118.219 21.2807H120.076C121.391 21.2941 122.647 21.8277 123.57 22.7647C124.493 23.7018 125.007 24.9661 125 26.2812C125 27.3373 125 28.4697 125 29.8566C124.977 31.1993 124.434 32.4806 123.484 33.4302C122.535 34.3797 121.253 34.9233 119.911 34.9462L117.735 34.9335ZM0.305664 53.1923C0.305664 51.8054 0.305664 50.6476 0.305664 49.6169C0.322078 48.3216 0.843067 47.0838 1.75787 46.1666C2.67267 45.2494 3.90913 44.7252 5.20439 44.7055H7.06208C9.19002 44.8165 11.198 45.7251 12.6861 47.2503C15.0909 41.2827 18.1065 34.5263 19.9896 31.8034C21.3623 29.941 23.1028 28.3804 25.1033 27.2182C27.1037 26.056 29.3216 25.317 31.6193 25.047C37.2097 24.1483 42.8679 23.7396 48.5294 23.8255C54.1788 23.699 59.8284 24.0651 65.4141 24.9197C67.7119 25.1898 69.9297 25.9288 71.9302 27.091C73.9306 28.2532 75.6711 29.8138 77.0438 31.6761C78.927 34.3991 81.9425 41.1682 84.3474 47.123C85.8354 45.5979 87.8434 44.6893 89.9714 44.5782H91.829C93.1243 44.598 94.3608 45.1222 95.2756 46.0394C96.1904 46.9566 96.7113 48.1944 96.7278 49.4897C96.7278 50.5458 96.7278 51.6782 96.7278 53.0651C96.7049 54.4078 96.1613 55.6891 95.2117 56.6386C94.2622 57.5882 92.9809 58.1318 91.6382 58.1547H89.1825C89.4369 58.494 89.6787 58.8375 89.9077 59.1853C92.2852 62.7928 93.4977 67.0433 93.3814 71.3622V95.4104C93.3814 96.7603 92.8451 98.0548 91.8907 99.0093C90.9362 99.9638 89.6416 100.5 88.2918 100.5H81.8662C80.5163 100.5 79.2218 99.9638 78.2673 99.0093C77.3128 98.0548 76.7766 96.7603 76.7766 95.4104V91.5932H20.2059V95.4104C20.2059 96.7603 19.6697 98.0548 18.7152 99.0093C17.7607 99.9638 16.4662 100.5 15.1163 100.5H8.6653C7.31546 100.5 6.0209 99.9638 5.06642 99.0093C4.11194 98.0548 3.57572 96.7603 3.57572 95.4104V71.4767C3.4594 67.1578 4.67191 62.9073 7.04936 59.2998C7.27839 58.9521 7.52014 58.6085 7.77462 58.2692H5.39524C4.05472 58.2464 2.77527 57.7046 1.82606 56.7577C0.876835 55.8109 0.331823 54.5328 0.305664 53.1923ZM63.4546 70.1152C63.4546 71.1524 63.8658 72.1473 64.598 72.8818C65.3302 73.6164 66.3237 74.0308 67.3609 74.0342H76.6494C77.671 74.0076 78.6419 73.5831 79.3549 72.851C80.068 72.1189 80.4669 71.1372 80.4666 70.1152V67.6977C80.4726 67.0968 80.3399 66.5027 80.0789 65.9615C79.8178 65.4202 79.4354 64.9466 78.9615 64.5772C78.4875 64.2079 77.9347 63.9529 77.3461 63.8321C76.7575 63.7112 76.149 63.7278 75.5678 63.8805L66.3557 66.298C65.5214 66.5262 64.7864 67.0247 64.266 67.7155C63.7456 68.4064 63.4692 69.2504 63.4801 70.1152H63.4546ZM16.5033 70.1152C16.5016 70.6292 16.6014 71.1386 16.7969 71.614C16.9925 72.0894 17.28 72.5215 17.6429 72.8856C18.0058 73.2496 18.4369 73.5385 18.9117 73.7356C19.3865 73.9327 19.8955 74.0342 20.4095 74.0342H29.6216C30.5416 73.9958 31.4185 73.6337 32.0974 73.0117C32.7764 72.3898 33.2138 71.548 33.3325 70.6349C33.4512 69.7218 33.2435 68.7961 32.7462 68.0213C32.2488 67.2464 31.4937 66.6721 30.6141 66.3998L21.402 63.9823C20.8208 63.8296 20.2123 63.813 19.6237 63.9338C19.0351 64.0547 18.4823 64.3097 18.0083 64.679C17.5344 65.0483 17.152 65.522 16.8909 66.0633C16.6299 66.6045 16.4972 67.1986 16.5033 67.7994V70.1152Z" fill="#1D3557"/>
</svg>
